<mxfile host="app.diagrams.net" modified="2023-08-01T12:50:48.258Z" agent="Mozilla/5.0 (Windows NT 10.0; Win64; x64) AppleWebKit/537.36 (KHTML, like Gecko) Chrome/115.0.0.0 Safari/537.36" etag="_TAGWRmv0blzpjew5jgb" version="21.6.6" type="device">
  <diagram name="페이지-1" id="cVfDctzRFTtNhfRhofbO">
    <mxGraphModel dx="1167" dy="638" grid="1" gridSize="10" guides="1" tooltips="1" connect="1" arrows="1" fold="1" page="1" pageScale="1" pageWidth="827" pageHeight="1169" math="0" shadow="0">
      <root>
        <mxCell id="0" />
        <mxCell id="1" parent="0" />
        <mxCell id="k5IW1HagH6-RW2qSPKCG-19" value="" style="rounded=0;whiteSpace=wrap;html=1;" vertex="1" parent="1">
          <mxGeometry x="270" y="290" width="270" height="160" as="geometry" />
        </mxCell>
        <mxCell id="k5IW1HagH6-RW2qSPKCG-1" value="Rendering" style="rounded=0;whiteSpace=wrap;html=1;" vertex="1" parent="1">
          <mxGeometry x="40" y="40" width="120" height="60" as="geometry" />
        </mxCell>
        <mxCell id="k5IW1HagH6-RW2qSPKCG-2" value="정점 데이터들로 2D 화면에 출력하는것" style="rounded=0;whiteSpace=wrap;html=1;" vertex="1" parent="1">
          <mxGeometry x="160" y="40" width="240" height="60" as="geometry" />
        </mxCell>
        <mxCell id="k5IW1HagH6-RW2qSPKCG-4" value="Render Pipeline" style="rounded=0;whiteSpace=wrap;html=1;" vertex="1" parent="1">
          <mxGeometry x="40" y="120" width="120" height="60" as="geometry" />
        </mxCell>
        <mxCell id="k5IW1HagH6-RW2qSPKCG-5" value="렌더링을 하기위한 일련의 과정" style="rounded=0;whiteSpace=wrap;html=1;" vertex="1" parent="1">
          <mxGeometry x="160" y="120" width="240" height="60" as="geometry" />
        </mxCell>
        <mxCell id="k5IW1HagH6-RW2qSPKCG-9" style="edgeStyle=orthogonalEdgeStyle;rounded=0;orthogonalLoop=1;jettySize=auto;html=1;entryX=0;entryY=0.5;entryDx=0;entryDy=0;" edge="1" parent="1" source="k5IW1HagH6-RW2qSPKCG-6" target="k5IW1HagH6-RW2qSPKCG-8">
          <mxGeometry relative="1" as="geometry" />
        </mxCell>
        <mxCell id="k5IW1HagH6-RW2qSPKCG-6" value="CPU" style="rounded=0;whiteSpace=wrap;html=1;" vertex="1" parent="1">
          <mxGeometry x="80" y="240" width="60" height="40" as="geometry" />
        </mxCell>
        <mxCell id="k5IW1HagH6-RW2qSPKCG-7" value="정점 데이터&lt;br&gt;(Vertices)" style="text;html=1;strokeColor=none;fillColor=none;align=center;verticalAlign=middle;whiteSpace=wrap;rounded=0;" vertex="1" parent="1">
          <mxGeometry x="50" y="300" width="120" height="50" as="geometry" />
        </mxCell>
        <mxCell id="k5IW1HagH6-RW2qSPKCG-8" value="GPU" style="rounded=0;whiteSpace=wrap;html=1;" vertex="1" parent="1">
          <mxGeometry x="280" y="240" width="60" height="40" as="geometry" />
        </mxCell>
        <mxCell id="k5IW1HagH6-RW2qSPKCG-10" value="드로우콜&lt;br&gt;(Draw call)" style="text;html=1;strokeColor=none;fillColor=none;align=center;verticalAlign=middle;whiteSpace=wrap;rounded=0;" vertex="1" parent="1">
          <mxGeometry x="170" y="220" width="80" height="40" as="geometry" />
        </mxCell>
        <mxCell id="k5IW1HagH6-RW2qSPKCG-11" value="Geometry&lt;br&gt;Transform" style="rounded=0;whiteSpace=wrap;html=1;" vertex="1" parent="1">
          <mxGeometry x="280" y="300" width="106" height="60" as="geometry" />
        </mxCell>
        <mxCell id="k5IW1HagH6-RW2qSPKCG-13" value="Local to World" style="rounded=0;whiteSpace=wrap;html=1;" vertex="1" parent="1">
          <mxGeometry x="400" y="300" width="126" height="40" as="geometry" />
        </mxCell>
        <mxCell id="k5IW1HagH6-RW2qSPKCG-15" value="World to View" style="rounded=0;whiteSpace=wrap;html=1;" vertex="1" parent="1">
          <mxGeometry x="400" y="350" width="126" height="40" as="geometry" />
        </mxCell>
        <mxCell id="k5IW1HagH6-RW2qSPKCG-17" value="View to Projection" style="rounded=0;whiteSpace=wrap;html=1;" vertex="1" parent="1">
          <mxGeometry x="400" y="400" width="126" height="40" as="geometry" />
        </mxCell>
        <mxCell id="k5IW1HagH6-RW2qSPKCG-20" value="" style="rounded=0;whiteSpace=wrap;html=1;" vertex="1" parent="1">
          <mxGeometry x="600" y="317.6" width="250" height="120" as="geometry" />
        </mxCell>
        <mxCell id="k5IW1HagH6-RW2qSPKCG-21" value="" style="endArrow=none;html=1;rounded=0;entryX=0.32;entryY=0.583;entryDx=0;entryDy=0;entryPerimeter=0;exitX=0.2;exitY=0.833;exitDx=0;exitDy=0;exitPerimeter=0;" edge="1" parent="1" source="k5IW1HagH6-RW2qSPKCG-20" target="k5IW1HagH6-RW2qSPKCG-20">
          <mxGeometry width="50" height="50" relative="1" as="geometry">
            <mxPoint x="420" y="507.6" as="sourcePoint" />
            <mxPoint x="470" y="457.6" as="targetPoint" />
          </mxGeometry>
        </mxCell>
        <mxCell id="k5IW1HagH6-RW2qSPKCG-22" value="" style="endArrow=none;html=1;rounded=0;entryX=0.68;entryY=0.583;entryDx=0;entryDy=0;entryPerimeter=0;" edge="1" parent="1" target="k5IW1HagH6-RW2qSPKCG-20">
          <mxGeometry width="50" height="50" relative="1" as="geometry">
            <mxPoint x="800" y="417.6" as="sourcePoint" />
            <mxPoint x="690" y="397.6" as="targetPoint" />
          </mxGeometry>
        </mxCell>
        <mxCell id="k5IW1HagH6-RW2qSPKCG-23" value="" style="endArrow=none;html=1;rounded=0;entryX=0.68;entryY=0.583;entryDx=0;entryDy=0;entryPerimeter=0;" edge="1" parent="1" target="k5IW1HagH6-RW2qSPKCG-20">
          <mxGeometry width="50" height="50" relative="1" as="geometry">
            <mxPoint x="680" y="387.6" as="sourcePoint" />
            <mxPoint x="780" y="397.6" as="targetPoint" />
          </mxGeometry>
        </mxCell>
        <mxCell id="k5IW1HagH6-RW2qSPKCG-24" value="" style="endArrow=none;html=1;rounded=0;entryX=0.8;entryY=0.833;entryDx=0;entryDy=0;entryPerimeter=0;" edge="1" parent="1" target="k5IW1HagH6-RW2qSPKCG-20">
          <mxGeometry width="50" height="50" relative="1" as="geometry">
            <mxPoint x="650" y="417.6" as="sourcePoint" />
            <mxPoint x="780" y="397.6" as="targetPoint" />
          </mxGeometry>
        </mxCell>
        <mxCell id="k5IW1HagH6-RW2qSPKCG-25" value="" style="endArrow=none;html=1;rounded=0;exitX=0.8;exitY=1.02;exitDx=0;exitDy=0;exitPerimeter=0;" edge="1" parent="1" source="k5IW1HagH6-RW2qSPKCG-20">
          <mxGeometry width="50" height="50" relative="1" as="geometry">
            <mxPoint x="810" y="427.6" as="sourcePoint" />
            <mxPoint x="800" y="417.6" as="targetPoint" />
          </mxGeometry>
        </mxCell>
        <mxCell id="k5IW1HagH6-RW2qSPKCG-26" value="" style="endArrow=none;html=1;rounded=0;" edge="1" parent="1">
          <mxGeometry width="50" height="50" relative="1" as="geometry">
            <mxPoint x="650" y="417.6" as="sourcePoint" />
            <mxPoint x="650" y="437.6" as="targetPoint" />
          </mxGeometry>
        </mxCell>
        <mxCell id="k5IW1HagH6-RW2qSPKCG-27" value="" style="rounded=0;whiteSpace=wrap;html=1;" vertex="1" parent="1">
          <mxGeometry x="270" y="460" width="270" height="160" as="geometry" />
        </mxCell>
        <mxCell id="k5IW1HagH6-RW2qSPKCG-29" value="" style="endArrow=none;html=1;rounded=0;entryX=0.32;entryY=0.583;entryDx=0;entryDy=0;entryPerimeter=0;exitX=0.2;exitY=0.833;exitDx=0;exitDy=0;exitPerimeter=0;" edge="1" parent="1">
          <mxGeometry width="50" height="50" relative="1" as="geometry">
            <mxPoint x="650" y="561.96" as="sourcePoint" />
            <mxPoint x="680" y="531.96" as="targetPoint" />
          </mxGeometry>
        </mxCell>
        <mxCell id="k5IW1HagH6-RW2qSPKCG-30" value="" style="endArrow=none;html=1;rounded=0;entryX=0.68;entryY=0.583;entryDx=0;entryDy=0;entryPerimeter=0;" edge="1" parent="1">
          <mxGeometry width="50" height="50" relative="1" as="geometry">
            <mxPoint x="800" y="562" as="sourcePoint" />
            <mxPoint x="770" y="531.96" as="targetPoint" />
          </mxGeometry>
        </mxCell>
        <mxCell id="k5IW1HagH6-RW2qSPKCG-31" value="" style="endArrow=none;html=1;rounded=0;entryX=0.68;entryY=0.583;entryDx=0;entryDy=0;entryPerimeter=0;" edge="1" parent="1">
          <mxGeometry width="50" height="50" relative="1" as="geometry">
            <mxPoint x="680" y="532" as="sourcePoint" />
            <mxPoint x="770" y="531.96" as="targetPoint" />
          </mxGeometry>
        </mxCell>
        <mxCell id="k5IW1HagH6-RW2qSPKCG-32" value="" style="endArrow=none;html=1;rounded=0;entryX=0.8;entryY=0.833;entryDx=0;entryDy=0;entryPerimeter=0;" edge="1" parent="1">
          <mxGeometry width="50" height="50" relative="1" as="geometry">
            <mxPoint x="650" y="562" as="sourcePoint" />
            <mxPoint x="800" y="561.96" as="targetPoint" />
          </mxGeometry>
        </mxCell>
        <mxCell id="k5IW1HagH6-RW2qSPKCG-33" value="" style="endArrow=none;html=1;rounded=0;exitX=0.8;exitY=1.02;exitDx=0;exitDy=0;exitPerimeter=0;" edge="1" parent="1">
          <mxGeometry width="50" height="50" relative="1" as="geometry">
            <mxPoint x="800" y="584.4" as="sourcePoint" />
            <mxPoint x="800" y="562" as="targetPoint" />
          </mxGeometry>
        </mxCell>
        <mxCell id="k5IW1HagH6-RW2qSPKCG-34" value="" style="endArrow=none;html=1;rounded=0;" edge="1" parent="1">
          <mxGeometry width="50" height="50" relative="1" as="geometry">
            <mxPoint x="650" y="562" as="sourcePoint" />
            <mxPoint x="650" y="582" as="targetPoint" />
          </mxGeometry>
        </mxCell>
        <mxCell id="k5IW1HagH6-RW2qSPKCG-36" value="" style="rounded=0;whiteSpace=wrap;html=1;strokeColor=#CCCCCC;dashed=1;dashPattern=1 2;fillColor=none;" vertex="1" parent="1">
          <mxGeometry x="600" y="480" width="10" height="10" as="geometry" />
        </mxCell>
        <mxCell id="k5IW1HagH6-RW2qSPKCG-37" value="" style="rounded=0;whiteSpace=wrap;html=1;strokeColor=#CCCCCC;dashed=1;dashPattern=1 2;fillColor=none;" vertex="1" parent="1">
          <mxGeometry x="610" y="480" width="10" height="10" as="geometry" />
        </mxCell>
        <mxCell id="k5IW1HagH6-RW2qSPKCG-38" value="" style="rounded=0;whiteSpace=wrap;html=1;strokeColor=#CCCCCC;dashed=1;dashPattern=1 2;fillColor=none;" vertex="1" parent="1">
          <mxGeometry x="620" y="480" width="10" height="10" as="geometry" />
        </mxCell>
        <mxCell id="k5IW1HagH6-RW2qSPKCG-39" value="" style="rounded=0;whiteSpace=wrap;html=1;strokeColor=#CCCCCC;dashed=1;dashPattern=1 2;fillColor=none;" vertex="1" parent="1">
          <mxGeometry x="630" y="480" width="10" height="10" as="geometry" />
        </mxCell>
        <mxCell id="k5IW1HagH6-RW2qSPKCG-40" value="" style="rounded=0;whiteSpace=wrap;html=1;strokeColor=#CCCCCC;dashed=1;dashPattern=1 2;fillColor=none;" vertex="1" parent="1">
          <mxGeometry x="640" y="480" width="10" height="10" as="geometry" />
        </mxCell>
        <mxCell id="k5IW1HagH6-RW2qSPKCG-41" value="" style="rounded=0;whiteSpace=wrap;html=1;strokeColor=#CCCCCC;dashed=1;dashPattern=1 2;fillColor=none;" vertex="1" parent="1">
          <mxGeometry x="650" y="480" width="10" height="10" as="geometry" />
        </mxCell>
        <mxCell id="k5IW1HagH6-RW2qSPKCG-42" value="" style="rounded=0;whiteSpace=wrap;html=1;strokeColor=#CCCCCC;dashed=1;dashPattern=1 2;fillColor=none;" vertex="1" parent="1">
          <mxGeometry x="660" y="480" width="10" height="10" as="geometry" />
        </mxCell>
        <mxCell id="k5IW1HagH6-RW2qSPKCG-43" value="" style="rounded=0;whiteSpace=wrap;html=1;strokeColor=#CCCCCC;dashed=1;dashPattern=1 2;fillColor=none;" vertex="1" parent="1">
          <mxGeometry x="670" y="480" width="10" height="10" as="geometry" />
        </mxCell>
        <mxCell id="k5IW1HagH6-RW2qSPKCG-44" value="" style="rounded=0;whiteSpace=wrap;html=1;strokeColor=#CCCCCC;dashed=1;dashPattern=1 2;fillColor=none;" vertex="1" parent="1">
          <mxGeometry x="680" y="480" width="10" height="10" as="geometry" />
        </mxCell>
        <mxCell id="k5IW1HagH6-RW2qSPKCG-45" value="" style="rounded=0;whiteSpace=wrap;html=1;strokeColor=#CCCCCC;dashed=1;dashPattern=1 2;fillColor=none;" vertex="1" parent="1">
          <mxGeometry x="690" y="480" width="10" height="10" as="geometry" />
        </mxCell>
        <mxCell id="k5IW1HagH6-RW2qSPKCG-46" value="" style="rounded=0;whiteSpace=wrap;html=1;strokeColor=#CCCCCC;dashed=1;dashPattern=1 2;fillColor=none;" vertex="1" parent="1">
          <mxGeometry x="700" y="480" width="10" height="10" as="geometry" />
        </mxCell>
        <mxCell id="k5IW1HagH6-RW2qSPKCG-47" value="" style="rounded=0;whiteSpace=wrap;html=1;strokeColor=#CCCCCC;dashed=1;dashPattern=1 2;fillColor=none;" vertex="1" parent="1">
          <mxGeometry x="710" y="480" width="10" height="10" as="geometry" />
        </mxCell>
        <mxCell id="k5IW1HagH6-RW2qSPKCG-48" value="" style="rounded=0;whiteSpace=wrap;html=1;strokeColor=#CCCCCC;dashed=1;dashPattern=1 2;fillColor=none;" vertex="1" parent="1">
          <mxGeometry x="720" y="480" width="10" height="10" as="geometry" />
        </mxCell>
        <mxCell id="k5IW1HagH6-RW2qSPKCG-49" value="" style="rounded=0;whiteSpace=wrap;html=1;strokeColor=#CCCCCC;dashed=1;dashPattern=1 2;fillColor=none;" vertex="1" parent="1">
          <mxGeometry x="730" y="480" width="10" height="10" as="geometry" />
        </mxCell>
        <mxCell id="k5IW1HagH6-RW2qSPKCG-50" value="" style="rounded=0;whiteSpace=wrap;html=1;strokeColor=#CCCCCC;dashed=1;dashPattern=1 2;fillColor=none;" vertex="1" parent="1">
          <mxGeometry x="740" y="480" width="10" height="10" as="geometry" />
        </mxCell>
        <mxCell id="k5IW1HagH6-RW2qSPKCG-51" value="" style="rounded=0;whiteSpace=wrap;html=1;strokeColor=#CCCCCC;dashed=1;dashPattern=1 2;fillColor=none;" vertex="1" parent="1">
          <mxGeometry x="750" y="480" width="10" height="10" as="geometry" />
        </mxCell>
        <mxCell id="k5IW1HagH6-RW2qSPKCG-52" value="" style="rounded=0;whiteSpace=wrap;html=1;strokeColor=#CCCCCC;dashed=1;dashPattern=1 2;fillColor=none;" vertex="1" parent="1">
          <mxGeometry x="760" y="480" width="10" height="10" as="geometry" />
        </mxCell>
        <mxCell id="k5IW1HagH6-RW2qSPKCG-53" value="" style="rounded=0;whiteSpace=wrap;html=1;strokeColor=#CCCCCC;dashed=1;dashPattern=1 2;fillColor=none;" vertex="1" parent="1">
          <mxGeometry x="770" y="480" width="10" height="10" as="geometry" />
        </mxCell>
        <mxCell id="k5IW1HagH6-RW2qSPKCG-54" value="" style="rounded=0;whiteSpace=wrap;html=1;strokeColor=#CCCCCC;dashed=1;dashPattern=1 2;fillColor=none;" vertex="1" parent="1">
          <mxGeometry x="780" y="480" width="10" height="10" as="geometry" />
        </mxCell>
        <mxCell id="k5IW1HagH6-RW2qSPKCG-55" value="" style="rounded=0;whiteSpace=wrap;html=1;strokeColor=#CCCCCC;dashed=1;dashPattern=1 2;fillColor=none;" vertex="1" parent="1">
          <mxGeometry x="790" y="480" width="10" height="10" as="geometry" />
        </mxCell>
        <mxCell id="k5IW1HagH6-RW2qSPKCG-56" value="" style="rounded=0;whiteSpace=wrap;html=1;strokeColor=#CCCCCC;dashed=1;dashPattern=1 2;fillColor=none;" vertex="1" parent="1">
          <mxGeometry x="800" y="480" width="10" height="10" as="geometry" />
        </mxCell>
        <mxCell id="k5IW1HagH6-RW2qSPKCG-57" value="" style="rounded=0;whiteSpace=wrap;html=1;strokeColor=#CCCCCC;dashed=1;dashPattern=1 2;fillColor=none;" vertex="1" parent="1">
          <mxGeometry x="810" y="480" width="10" height="10" as="geometry" />
        </mxCell>
        <mxCell id="k5IW1HagH6-RW2qSPKCG-58" value="" style="rounded=0;whiteSpace=wrap;html=1;strokeColor=#CCCCCC;dashed=1;dashPattern=1 2;fillColor=none;" vertex="1" parent="1">
          <mxGeometry x="820" y="480" width="10" height="10" as="geometry" />
        </mxCell>
        <mxCell id="k5IW1HagH6-RW2qSPKCG-59" value="" style="rounded=0;whiteSpace=wrap;html=1;strokeColor=#CCCCCC;dashed=1;dashPattern=1 2;fillColor=none;" vertex="1" parent="1">
          <mxGeometry x="830" y="480" width="10" height="10" as="geometry" />
        </mxCell>
        <mxCell id="k5IW1HagH6-RW2qSPKCG-60" value="" style="rounded=0;whiteSpace=wrap;html=1;strokeColor=#CCCCCC;dashed=1;dashPattern=1 2;fillColor=none;" vertex="1" parent="1">
          <mxGeometry x="600" y="490" width="10" height="10" as="geometry" />
        </mxCell>
        <mxCell id="k5IW1HagH6-RW2qSPKCG-61" value="" style="rounded=0;whiteSpace=wrap;html=1;strokeColor=#CCCCCC;dashed=1;dashPattern=1 2;fillColor=none;" vertex="1" parent="1">
          <mxGeometry x="610" y="490" width="10" height="10" as="geometry" />
        </mxCell>
        <mxCell id="k5IW1HagH6-RW2qSPKCG-62" value="" style="rounded=0;whiteSpace=wrap;html=1;strokeColor=#CCCCCC;dashed=1;dashPattern=1 2;fillColor=none;" vertex="1" parent="1">
          <mxGeometry x="620" y="490" width="10" height="10" as="geometry" />
        </mxCell>
        <mxCell id="k5IW1HagH6-RW2qSPKCG-63" value="" style="rounded=0;whiteSpace=wrap;html=1;strokeColor=#CCCCCC;dashed=1;dashPattern=1 2;fillColor=none;" vertex="1" parent="1">
          <mxGeometry x="630" y="490" width="10" height="10" as="geometry" />
        </mxCell>
        <mxCell id="k5IW1HagH6-RW2qSPKCG-64" value="" style="rounded=0;whiteSpace=wrap;html=1;strokeColor=#CCCCCC;dashed=1;dashPattern=1 2;fillColor=none;" vertex="1" parent="1">
          <mxGeometry x="640" y="490" width="10" height="10" as="geometry" />
        </mxCell>
        <mxCell id="k5IW1HagH6-RW2qSPKCG-65" value="" style="rounded=0;whiteSpace=wrap;html=1;strokeColor=#CCCCCC;dashed=1;dashPattern=1 2;fillColor=none;" vertex="1" parent="1">
          <mxGeometry x="650" y="490" width="10" height="10" as="geometry" />
        </mxCell>
        <mxCell id="k5IW1HagH6-RW2qSPKCG-66" value="" style="rounded=0;whiteSpace=wrap;html=1;strokeColor=#CCCCCC;dashed=1;dashPattern=1 2;fillColor=none;" vertex="1" parent="1">
          <mxGeometry x="660" y="490" width="10" height="10" as="geometry" />
        </mxCell>
        <mxCell id="k5IW1HagH6-RW2qSPKCG-67" value="" style="rounded=0;whiteSpace=wrap;html=1;strokeColor=#CCCCCC;dashed=1;dashPattern=1 2;fillColor=none;" vertex="1" parent="1">
          <mxGeometry x="670" y="490" width="10" height="10" as="geometry" />
        </mxCell>
        <mxCell id="k5IW1HagH6-RW2qSPKCG-68" value="" style="rounded=0;whiteSpace=wrap;html=1;strokeColor=#CCCCCC;dashed=1;dashPattern=1 2;fillColor=none;" vertex="1" parent="1">
          <mxGeometry x="680" y="490" width="10" height="10" as="geometry" />
        </mxCell>
        <mxCell id="k5IW1HagH6-RW2qSPKCG-69" value="" style="rounded=0;whiteSpace=wrap;html=1;strokeColor=#CCCCCC;dashed=1;dashPattern=1 2;fillColor=none;" vertex="1" parent="1">
          <mxGeometry x="690" y="490" width="10" height="10" as="geometry" />
        </mxCell>
        <mxCell id="k5IW1HagH6-RW2qSPKCG-70" value="" style="rounded=0;whiteSpace=wrap;html=1;strokeColor=#CCCCCC;dashed=1;dashPattern=1 2;fillColor=none;" vertex="1" parent="1">
          <mxGeometry x="700" y="490" width="10" height="10" as="geometry" />
        </mxCell>
        <mxCell id="k5IW1HagH6-RW2qSPKCG-71" value="" style="rounded=0;whiteSpace=wrap;html=1;strokeColor=#CCCCCC;dashed=1;dashPattern=1 2;fillColor=none;" vertex="1" parent="1">
          <mxGeometry x="710" y="490" width="10" height="10" as="geometry" />
        </mxCell>
        <mxCell id="k5IW1HagH6-RW2qSPKCG-72" value="" style="rounded=0;whiteSpace=wrap;html=1;strokeColor=#CCCCCC;dashed=1;dashPattern=1 2;fillColor=none;" vertex="1" parent="1">
          <mxGeometry x="720" y="490" width="10" height="10" as="geometry" />
        </mxCell>
        <mxCell id="k5IW1HagH6-RW2qSPKCG-73" value="" style="rounded=0;whiteSpace=wrap;html=1;strokeColor=#CCCCCC;dashed=1;dashPattern=1 2;fillColor=none;" vertex="1" parent="1">
          <mxGeometry x="730" y="490" width="10" height="10" as="geometry" />
        </mxCell>
        <mxCell id="k5IW1HagH6-RW2qSPKCG-74" value="" style="rounded=0;whiteSpace=wrap;html=1;strokeColor=#CCCCCC;dashed=1;dashPattern=1 2;fillColor=none;" vertex="1" parent="1">
          <mxGeometry x="740" y="490" width="10" height="10" as="geometry" />
        </mxCell>
        <mxCell id="k5IW1HagH6-RW2qSPKCG-75" value="" style="rounded=0;whiteSpace=wrap;html=1;strokeColor=#CCCCCC;dashed=1;dashPattern=1 2;fillColor=none;" vertex="1" parent="1">
          <mxGeometry x="750" y="490" width="10" height="10" as="geometry" />
        </mxCell>
        <mxCell id="k5IW1HagH6-RW2qSPKCG-76" value="" style="rounded=0;whiteSpace=wrap;html=1;strokeColor=#CCCCCC;dashed=1;dashPattern=1 2;fillColor=none;" vertex="1" parent="1">
          <mxGeometry x="760" y="490" width="10" height="10" as="geometry" />
        </mxCell>
        <mxCell id="k5IW1HagH6-RW2qSPKCG-77" value="" style="rounded=0;whiteSpace=wrap;html=1;strokeColor=#CCCCCC;dashed=1;dashPattern=1 2;fillColor=none;" vertex="1" parent="1">
          <mxGeometry x="770" y="490" width="10" height="10" as="geometry" />
        </mxCell>
        <mxCell id="k5IW1HagH6-RW2qSPKCG-78" value="" style="rounded=0;whiteSpace=wrap;html=1;strokeColor=#CCCCCC;dashed=1;dashPattern=1 2;fillColor=none;" vertex="1" parent="1">
          <mxGeometry x="780" y="490" width="10" height="10" as="geometry" />
        </mxCell>
        <mxCell id="k5IW1HagH6-RW2qSPKCG-79" value="" style="rounded=0;whiteSpace=wrap;html=1;strokeColor=#CCCCCC;dashed=1;dashPattern=1 2;fillColor=none;" vertex="1" parent="1">
          <mxGeometry x="790" y="490" width="10" height="10" as="geometry" />
        </mxCell>
        <mxCell id="k5IW1HagH6-RW2qSPKCG-80" value="" style="rounded=0;whiteSpace=wrap;html=1;strokeColor=#CCCCCC;dashed=1;dashPattern=1 2;fillColor=none;" vertex="1" parent="1">
          <mxGeometry x="800" y="490" width="10" height="10" as="geometry" />
        </mxCell>
        <mxCell id="k5IW1HagH6-RW2qSPKCG-81" value="" style="rounded=0;whiteSpace=wrap;html=1;strokeColor=#CCCCCC;dashed=1;dashPattern=1 2;fillColor=none;" vertex="1" parent="1">
          <mxGeometry x="810" y="490" width="10" height="10" as="geometry" />
        </mxCell>
        <mxCell id="k5IW1HagH6-RW2qSPKCG-82" value="" style="rounded=0;whiteSpace=wrap;html=1;strokeColor=#CCCCCC;dashed=1;dashPattern=1 2;fillColor=none;" vertex="1" parent="1">
          <mxGeometry x="820" y="490" width="10" height="10" as="geometry" />
        </mxCell>
        <mxCell id="k5IW1HagH6-RW2qSPKCG-83" value="" style="rounded=0;whiteSpace=wrap;html=1;strokeColor=#CCCCCC;dashed=1;dashPattern=1 2;fillColor=none;" vertex="1" parent="1">
          <mxGeometry x="830" y="490" width="10" height="10" as="geometry" />
        </mxCell>
        <mxCell id="k5IW1HagH6-RW2qSPKCG-84" value="" style="rounded=0;whiteSpace=wrap;html=1;strokeColor=#CCCCCC;dashed=1;dashPattern=1 2;fillColor=none;" vertex="1" parent="1">
          <mxGeometry x="600" y="500" width="10" height="10" as="geometry" />
        </mxCell>
        <mxCell id="k5IW1HagH6-RW2qSPKCG-85" value="" style="rounded=0;whiteSpace=wrap;html=1;strokeColor=#CCCCCC;dashed=1;dashPattern=1 2;fillColor=none;" vertex="1" parent="1">
          <mxGeometry x="610" y="500" width="10" height="10" as="geometry" />
        </mxCell>
        <mxCell id="k5IW1HagH6-RW2qSPKCG-86" value="" style="rounded=0;whiteSpace=wrap;html=1;strokeColor=#CCCCCC;dashed=1;dashPattern=1 2;fillColor=none;" vertex="1" parent="1">
          <mxGeometry x="620" y="500" width="10" height="10" as="geometry" />
        </mxCell>
        <mxCell id="k5IW1HagH6-RW2qSPKCG-87" value="" style="rounded=0;whiteSpace=wrap;html=1;strokeColor=#CCCCCC;dashed=1;dashPattern=1 2;fillColor=none;" vertex="1" parent="1">
          <mxGeometry x="630" y="500" width="10" height="10" as="geometry" />
        </mxCell>
        <mxCell id="k5IW1HagH6-RW2qSPKCG-88" value="" style="rounded=0;whiteSpace=wrap;html=1;strokeColor=#CCCCCC;dashed=1;dashPattern=1 2;fillColor=none;" vertex="1" parent="1">
          <mxGeometry x="640" y="500" width="10" height="10" as="geometry" />
        </mxCell>
        <mxCell id="k5IW1HagH6-RW2qSPKCG-89" value="" style="rounded=0;whiteSpace=wrap;html=1;strokeColor=#CCCCCC;dashed=1;dashPattern=1 2;fillColor=none;" vertex="1" parent="1">
          <mxGeometry x="650" y="500" width="10" height="10" as="geometry" />
        </mxCell>
        <mxCell id="k5IW1HagH6-RW2qSPKCG-90" value="" style="rounded=0;whiteSpace=wrap;html=1;strokeColor=#CCCCCC;dashed=1;dashPattern=1 2;fillColor=none;" vertex="1" parent="1">
          <mxGeometry x="660" y="500" width="10" height="10" as="geometry" />
        </mxCell>
        <mxCell id="k5IW1HagH6-RW2qSPKCG-91" value="" style="rounded=0;whiteSpace=wrap;html=1;strokeColor=#CCCCCC;dashed=1;dashPattern=1 2;fillColor=none;" vertex="1" parent="1">
          <mxGeometry x="670" y="500" width="10" height="10" as="geometry" />
        </mxCell>
        <mxCell id="k5IW1HagH6-RW2qSPKCG-92" value="" style="rounded=0;whiteSpace=wrap;html=1;strokeColor=#CCCCCC;dashed=1;dashPattern=1 2;fillColor=none;" vertex="1" parent="1">
          <mxGeometry x="680" y="500" width="10" height="10" as="geometry" />
        </mxCell>
        <mxCell id="k5IW1HagH6-RW2qSPKCG-93" value="" style="rounded=0;whiteSpace=wrap;html=1;strokeColor=#CCCCCC;dashed=1;dashPattern=1 2;fillColor=none;" vertex="1" parent="1">
          <mxGeometry x="690" y="500" width="10" height="10" as="geometry" />
        </mxCell>
        <mxCell id="k5IW1HagH6-RW2qSPKCG-94" value="" style="rounded=0;whiteSpace=wrap;html=1;strokeColor=#CCCCCC;dashed=1;dashPattern=1 2;fillColor=none;" vertex="1" parent="1">
          <mxGeometry x="700" y="500" width="10" height="10" as="geometry" />
        </mxCell>
        <mxCell id="k5IW1HagH6-RW2qSPKCG-95" value="" style="rounded=0;whiteSpace=wrap;html=1;strokeColor=#CCCCCC;dashed=1;dashPattern=1 2;fillColor=none;" vertex="1" parent="1">
          <mxGeometry x="710" y="500" width="10" height="10" as="geometry" />
        </mxCell>
        <mxCell id="k5IW1HagH6-RW2qSPKCG-96" value="" style="rounded=0;whiteSpace=wrap;html=1;strokeColor=#CCCCCC;dashed=1;dashPattern=1 2;fillColor=none;" vertex="1" parent="1">
          <mxGeometry x="720" y="500" width="10" height="10" as="geometry" />
        </mxCell>
        <mxCell id="k5IW1HagH6-RW2qSPKCG-97" value="" style="rounded=0;whiteSpace=wrap;html=1;strokeColor=#CCCCCC;dashed=1;dashPattern=1 2;fillColor=none;" vertex="1" parent="1">
          <mxGeometry x="730" y="500" width="10" height="10" as="geometry" />
        </mxCell>
        <mxCell id="k5IW1HagH6-RW2qSPKCG-98" value="" style="rounded=0;whiteSpace=wrap;html=1;strokeColor=#CCCCCC;dashed=1;dashPattern=1 2;fillColor=none;" vertex="1" parent="1">
          <mxGeometry x="740" y="500" width="10" height="10" as="geometry" />
        </mxCell>
        <mxCell id="k5IW1HagH6-RW2qSPKCG-99" value="" style="rounded=0;whiteSpace=wrap;html=1;strokeColor=#CCCCCC;dashed=1;dashPattern=1 2;fillColor=none;" vertex="1" parent="1">
          <mxGeometry x="750" y="500" width="10" height="10" as="geometry" />
        </mxCell>
        <mxCell id="k5IW1HagH6-RW2qSPKCG-100" value="" style="rounded=0;whiteSpace=wrap;html=1;strokeColor=#CCCCCC;dashed=1;dashPattern=1 2;fillColor=none;" vertex="1" parent="1">
          <mxGeometry x="760" y="500" width="10" height="10" as="geometry" />
        </mxCell>
        <mxCell id="k5IW1HagH6-RW2qSPKCG-101" value="" style="rounded=0;whiteSpace=wrap;html=1;strokeColor=#CCCCCC;dashed=1;dashPattern=1 2;fillColor=none;" vertex="1" parent="1">
          <mxGeometry x="770" y="500" width="10" height="10" as="geometry" />
        </mxCell>
        <mxCell id="k5IW1HagH6-RW2qSPKCG-102" value="" style="rounded=0;whiteSpace=wrap;html=1;strokeColor=#CCCCCC;dashed=1;dashPattern=1 2;fillColor=none;" vertex="1" parent="1">
          <mxGeometry x="780" y="500" width="10" height="10" as="geometry" />
        </mxCell>
        <mxCell id="k5IW1HagH6-RW2qSPKCG-103" value="" style="rounded=0;whiteSpace=wrap;html=1;strokeColor=#CCCCCC;dashed=1;dashPattern=1 2;fillColor=none;" vertex="1" parent="1">
          <mxGeometry x="790" y="500" width="10" height="10" as="geometry" />
        </mxCell>
        <mxCell id="k5IW1HagH6-RW2qSPKCG-104" value="" style="rounded=0;whiteSpace=wrap;html=1;strokeColor=#CCCCCC;dashed=1;dashPattern=1 2;fillColor=none;" vertex="1" parent="1">
          <mxGeometry x="800" y="500" width="10" height="10" as="geometry" />
        </mxCell>
        <mxCell id="k5IW1HagH6-RW2qSPKCG-105" value="" style="rounded=0;whiteSpace=wrap;html=1;strokeColor=#CCCCCC;dashed=1;dashPattern=1 2;fillColor=none;" vertex="1" parent="1">
          <mxGeometry x="810" y="500" width="10" height="10" as="geometry" />
        </mxCell>
        <mxCell id="k5IW1HagH6-RW2qSPKCG-106" value="" style="rounded=0;whiteSpace=wrap;html=1;strokeColor=#CCCCCC;dashed=1;dashPattern=1 2;fillColor=none;" vertex="1" parent="1">
          <mxGeometry x="820" y="500" width="10" height="10" as="geometry" />
        </mxCell>
        <mxCell id="k5IW1HagH6-RW2qSPKCG-107" value="" style="rounded=0;whiteSpace=wrap;html=1;strokeColor=#CCCCCC;dashed=1;dashPattern=1 2;fillColor=none;" vertex="1" parent="1">
          <mxGeometry x="830" y="500" width="10" height="10" as="geometry" />
        </mxCell>
        <mxCell id="k5IW1HagH6-RW2qSPKCG-108" value="" style="rounded=0;whiteSpace=wrap;html=1;strokeColor=#CCCCCC;dashed=1;dashPattern=1 2;fillColor=none;" vertex="1" parent="1">
          <mxGeometry x="600" y="510" width="10" height="10" as="geometry" />
        </mxCell>
        <mxCell id="k5IW1HagH6-RW2qSPKCG-109" value="" style="rounded=0;whiteSpace=wrap;html=1;strokeColor=#CCCCCC;dashed=1;dashPattern=1 2;fillColor=none;" vertex="1" parent="1">
          <mxGeometry x="610" y="510" width="10" height="10" as="geometry" />
        </mxCell>
        <mxCell id="k5IW1HagH6-RW2qSPKCG-110" value="" style="rounded=0;whiteSpace=wrap;html=1;strokeColor=#CCCCCC;dashed=1;dashPattern=1 2;fillColor=none;" vertex="1" parent="1">
          <mxGeometry x="620" y="510" width="10" height="10" as="geometry" />
        </mxCell>
        <mxCell id="k5IW1HagH6-RW2qSPKCG-111" value="" style="rounded=0;whiteSpace=wrap;html=1;strokeColor=#CCCCCC;dashed=1;dashPattern=1 2;fillColor=none;" vertex="1" parent="1">
          <mxGeometry x="630" y="510" width="10" height="10" as="geometry" />
        </mxCell>
        <mxCell id="k5IW1HagH6-RW2qSPKCG-112" value="" style="rounded=0;whiteSpace=wrap;html=1;strokeColor=#CCCCCC;dashed=1;dashPattern=1 2;fillColor=none;" vertex="1" parent="1">
          <mxGeometry x="640" y="510" width="10" height="10" as="geometry" />
        </mxCell>
        <mxCell id="k5IW1HagH6-RW2qSPKCG-113" value="" style="rounded=0;whiteSpace=wrap;html=1;strokeColor=#CCCCCC;dashed=1;dashPattern=1 2;fillColor=none;" vertex="1" parent="1">
          <mxGeometry x="650" y="510" width="10" height="10" as="geometry" />
        </mxCell>
        <mxCell id="k5IW1HagH6-RW2qSPKCG-114" value="" style="rounded=0;whiteSpace=wrap;html=1;strokeColor=#CCCCCC;dashed=1;dashPattern=1 2;fillColor=none;" vertex="1" parent="1">
          <mxGeometry x="660" y="510" width="10" height="10" as="geometry" />
        </mxCell>
        <mxCell id="k5IW1HagH6-RW2qSPKCG-115" value="" style="rounded=0;whiteSpace=wrap;html=1;strokeColor=#CCCCCC;dashed=1;dashPattern=1 2;fillColor=none;" vertex="1" parent="1">
          <mxGeometry x="670" y="510" width="10" height="10" as="geometry" />
        </mxCell>
        <mxCell id="k5IW1HagH6-RW2qSPKCG-116" value="" style="rounded=0;whiteSpace=wrap;html=1;strokeColor=#CCCCCC;dashed=1;dashPattern=1 2;fillColor=none;" vertex="1" parent="1">
          <mxGeometry x="680" y="510" width="10" height="10" as="geometry" />
        </mxCell>
        <mxCell id="k5IW1HagH6-RW2qSPKCG-117" value="" style="rounded=0;whiteSpace=wrap;html=1;strokeColor=#CCCCCC;dashed=1;dashPattern=1 2;fillColor=none;" vertex="1" parent="1">
          <mxGeometry x="690" y="510" width="10" height="10" as="geometry" />
        </mxCell>
        <mxCell id="k5IW1HagH6-RW2qSPKCG-118" value="" style="rounded=0;whiteSpace=wrap;html=1;strokeColor=#CCCCCC;dashed=1;dashPattern=1 2;fillColor=none;" vertex="1" parent="1">
          <mxGeometry x="700" y="510" width="10" height="10" as="geometry" />
        </mxCell>
        <mxCell id="k5IW1HagH6-RW2qSPKCG-119" value="" style="rounded=0;whiteSpace=wrap;html=1;strokeColor=#CCCCCC;dashed=1;dashPattern=1 2;fillColor=none;" vertex="1" parent="1">
          <mxGeometry x="710" y="510" width="10" height="10" as="geometry" />
        </mxCell>
        <mxCell id="k5IW1HagH6-RW2qSPKCG-120" value="" style="rounded=0;whiteSpace=wrap;html=1;strokeColor=#CCCCCC;dashed=1;dashPattern=1 2;fillColor=none;" vertex="1" parent="1">
          <mxGeometry x="720" y="510" width="10" height="10" as="geometry" />
        </mxCell>
        <mxCell id="k5IW1HagH6-RW2qSPKCG-121" value="" style="rounded=0;whiteSpace=wrap;html=1;strokeColor=#CCCCCC;dashed=1;dashPattern=1 2;fillColor=none;" vertex="1" parent="1">
          <mxGeometry x="730" y="510" width="10" height="10" as="geometry" />
        </mxCell>
        <mxCell id="k5IW1HagH6-RW2qSPKCG-122" value="" style="rounded=0;whiteSpace=wrap;html=1;strokeColor=#CCCCCC;dashed=1;dashPattern=1 2;fillColor=none;" vertex="1" parent="1">
          <mxGeometry x="740" y="510" width="10" height="10" as="geometry" />
        </mxCell>
        <mxCell id="k5IW1HagH6-RW2qSPKCG-123" value="" style="rounded=0;whiteSpace=wrap;html=1;strokeColor=#CCCCCC;dashed=1;dashPattern=1 2;fillColor=none;" vertex="1" parent="1">
          <mxGeometry x="750" y="510" width="10" height="10" as="geometry" />
        </mxCell>
        <mxCell id="k5IW1HagH6-RW2qSPKCG-124" value="" style="rounded=0;whiteSpace=wrap;html=1;strokeColor=#CCCCCC;dashed=1;dashPattern=1 2;fillColor=none;" vertex="1" parent="1">
          <mxGeometry x="760" y="510" width="10" height="10" as="geometry" />
        </mxCell>
        <mxCell id="k5IW1HagH6-RW2qSPKCG-125" value="" style="rounded=0;whiteSpace=wrap;html=1;strokeColor=#CCCCCC;dashed=1;dashPattern=1 2;fillColor=none;" vertex="1" parent="1">
          <mxGeometry x="770" y="510" width="10" height="10" as="geometry" />
        </mxCell>
        <mxCell id="k5IW1HagH6-RW2qSPKCG-126" value="" style="rounded=0;whiteSpace=wrap;html=1;strokeColor=#CCCCCC;dashed=1;dashPattern=1 2;fillColor=none;" vertex="1" parent="1">
          <mxGeometry x="780" y="510" width="10" height="10" as="geometry" />
        </mxCell>
        <mxCell id="k5IW1HagH6-RW2qSPKCG-127" value="" style="rounded=0;whiteSpace=wrap;html=1;strokeColor=#CCCCCC;dashed=1;dashPattern=1 2;fillColor=none;" vertex="1" parent="1">
          <mxGeometry x="790" y="510" width="10" height="10" as="geometry" />
        </mxCell>
        <mxCell id="k5IW1HagH6-RW2qSPKCG-128" value="" style="rounded=0;whiteSpace=wrap;html=1;strokeColor=#CCCCCC;dashed=1;dashPattern=1 2;fillColor=none;" vertex="1" parent="1">
          <mxGeometry x="800" y="510" width="10" height="10" as="geometry" />
        </mxCell>
        <mxCell id="k5IW1HagH6-RW2qSPKCG-129" value="" style="rounded=0;whiteSpace=wrap;html=1;strokeColor=#CCCCCC;dashed=1;dashPattern=1 2;fillColor=none;" vertex="1" parent="1">
          <mxGeometry x="810" y="510" width="10" height="10" as="geometry" />
        </mxCell>
        <mxCell id="k5IW1HagH6-RW2qSPKCG-130" value="" style="rounded=0;whiteSpace=wrap;html=1;strokeColor=#CCCCCC;dashed=1;dashPattern=1 2;fillColor=none;" vertex="1" parent="1">
          <mxGeometry x="820" y="510" width="10" height="10" as="geometry" />
        </mxCell>
        <mxCell id="k5IW1HagH6-RW2qSPKCG-131" value="" style="rounded=0;whiteSpace=wrap;html=1;strokeColor=#CCCCCC;dashed=1;dashPattern=1 2;fillColor=none;" vertex="1" parent="1">
          <mxGeometry x="830" y="510" width="10" height="10" as="geometry" />
        </mxCell>
        <mxCell id="k5IW1HagH6-RW2qSPKCG-133" value="" style="rounded=0;whiteSpace=wrap;html=1;strokeColor=#CCCCCC;dashed=1;dashPattern=1 2;fillColor=none;" vertex="1" parent="1">
          <mxGeometry x="600" y="520" width="10" height="10" as="geometry" />
        </mxCell>
        <mxCell id="k5IW1HagH6-RW2qSPKCG-134" value="" style="rounded=0;whiteSpace=wrap;html=1;strokeColor=#CCCCCC;dashed=1;dashPattern=1 2;fillColor=none;" vertex="1" parent="1">
          <mxGeometry x="610" y="520" width="10" height="10" as="geometry" />
        </mxCell>
        <mxCell id="k5IW1HagH6-RW2qSPKCG-135" value="" style="rounded=0;whiteSpace=wrap;html=1;strokeColor=#CCCCCC;dashed=1;dashPattern=1 2;fillColor=none;" vertex="1" parent="1">
          <mxGeometry x="620" y="520" width="10" height="10" as="geometry" />
        </mxCell>
        <mxCell id="k5IW1HagH6-RW2qSPKCG-136" value="" style="rounded=0;whiteSpace=wrap;html=1;strokeColor=#CCCCCC;dashed=1;dashPattern=1 2;fillColor=none;" vertex="1" parent="1">
          <mxGeometry x="630" y="520" width="10" height="10" as="geometry" />
        </mxCell>
        <mxCell id="k5IW1HagH6-RW2qSPKCG-137" value="" style="rounded=0;whiteSpace=wrap;html=1;strokeColor=#CCCCCC;dashed=1;dashPattern=1 2;fillColor=none;" vertex="1" parent="1">
          <mxGeometry x="640" y="520" width="10" height="10" as="geometry" />
        </mxCell>
        <mxCell id="k5IW1HagH6-RW2qSPKCG-138" value="" style="rounded=0;whiteSpace=wrap;html=1;strokeColor=#CCCCCC;dashed=1;dashPattern=1 2;fillColor=none;" vertex="1" parent="1">
          <mxGeometry x="650" y="520" width="10" height="10" as="geometry" />
        </mxCell>
        <mxCell id="k5IW1HagH6-RW2qSPKCG-139" value="" style="rounded=0;whiteSpace=wrap;html=1;strokeColor=#CCCCCC;dashed=1;dashPattern=1 2;fillColor=none;" vertex="1" parent="1">
          <mxGeometry x="660" y="520" width="10" height="10" as="geometry" />
        </mxCell>
        <mxCell id="k5IW1HagH6-RW2qSPKCG-140" value="" style="rounded=0;whiteSpace=wrap;html=1;strokeColor=#CCCCCC;dashed=1;dashPattern=1 2;fillColor=none;" vertex="1" parent="1">
          <mxGeometry x="670" y="520" width="10" height="10" as="geometry" />
        </mxCell>
        <mxCell id="k5IW1HagH6-RW2qSPKCG-141" value="" style="rounded=0;whiteSpace=wrap;html=1;strokeColor=#CCCCCC;dashed=1;dashPattern=1 2;fillColor=none;" vertex="1" parent="1">
          <mxGeometry x="680" y="520" width="10" height="10" as="geometry" />
        </mxCell>
        <mxCell id="k5IW1HagH6-RW2qSPKCG-142" value="" style="rounded=0;whiteSpace=wrap;html=1;strokeColor=#CCCCCC;dashed=1;dashPattern=1 2;fillColor=none;" vertex="1" parent="1">
          <mxGeometry x="690" y="520" width="10" height="10" as="geometry" />
        </mxCell>
        <mxCell id="k5IW1HagH6-RW2qSPKCG-143" value="" style="rounded=0;whiteSpace=wrap;html=1;strokeColor=#CCCCCC;dashed=1;dashPattern=1 2;fillColor=none;" vertex="1" parent="1">
          <mxGeometry x="700" y="520" width="10" height="10" as="geometry" />
        </mxCell>
        <mxCell id="k5IW1HagH6-RW2qSPKCG-144" value="" style="rounded=0;whiteSpace=wrap;html=1;strokeColor=#CCCCCC;dashed=1;dashPattern=1 2;fillColor=none;" vertex="1" parent="1">
          <mxGeometry x="710" y="520" width="10" height="10" as="geometry" />
        </mxCell>
        <mxCell id="k5IW1HagH6-RW2qSPKCG-145" value="" style="rounded=0;whiteSpace=wrap;html=1;strokeColor=#CCCCCC;dashed=1;dashPattern=1 2;fillColor=none;" vertex="1" parent="1">
          <mxGeometry x="720" y="520" width="10" height="10" as="geometry" />
        </mxCell>
        <mxCell id="k5IW1HagH6-RW2qSPKCG-146" value="" style="rounded=0;whiteSpace=wrap;html=1;strokeColor=#CCCCCC;dashed=1;dashPattern=1 2;fillColor=none;" vertex="1" parent="1">
          <mxGeometry x="730" y="520" width="10" height="10" as="geometry" />
        </mxCell>
        <mxCell id="k5IW1HagH6-RW2qSPKCG-147" value="" style="rounded=0;whiteSpace=wrap;html=1;strokeColor=#CCCCCC;dashed=1;dashPattern=1 2;fillColor=none;" vertex="1" parent="1">
          <mxGeometry x="740" y="520" width="10" height="10" as="geometry" />
        </mxCell>
        <mxCell id="k5IW1HagH6-RW2qSPKCG-148" value="" style="rounded=0;whiteSpace=wrap;html=1;strokeColor=#CCCCCC;dashed=1;dashPattern=1 2;fillColor=none;" vertex="1" parent="1">
          <mxGeometry x="750" y="520" width="10" height="10" as="geometry" />
        </mxCell>
        <mxCell id="k5IW1HagH6-RW2qSPKCG-149" value="" style="rounded=0;whiteSpace=wrap;html=1;strokeColor=#CCCCCC;dashed=1;dashPattern=1 2;fillColor=none;" vertex="1" parent="1">
          <mxGeometry x="760" y="520" width="10" height="10" as="geometry" />
        </mxCell>
        <mxCell id="k5IW1HagH6-RW2qSPKCG-150" value="" style="rounded=0;whiteSpace=wrap;html=1;strokeColor=#CCCCCC;dashed=1;dashPattern=1 2;fillColor=none;" vertex="1" parent="1">
          <mxGeometry x="770" y="520" width="10" height="10" as="geometry" />
        </mxCell>
        <mxCell id="k5IW1HagH6-RW2qSPKCG-151" value="" style="rounded=0;whiteSpace=wrap;html=1;strokeColor=#CCCCCC;dashed=1;dashPattern=1 2;fillColor=none;" vertex="1" parent="1">
          <mxGeometry x="780" y="520" width="10" height="10" as="geometry" />
        </mxCell>
        <mxCell id="k5IW1HagH6-RW2qSPKCG-152" value="" style="rounded=0;whiteSpace=wrap;html=1;strokeColor=#CCCCCC;dashed=1;dashPattern=1 2;fillColor=none;" vertex="1" parent="1">
          <mxGeometry x="790" y="520" width="10" height="10" as="geometry" />
        </mxCell>
        <mxCell id="k5IW1HagH6-RW2qSPKCG-153" value="" style="rounded=0;whiteSpace=wrap;html=1;strokeColor=#CCCCCC;dashed=1;dashPattern=1 2;fillColor=none;" vertex="1" parent="1">
          <mxGeometry x="800" y="520" width="10" height="10" as="geometry" />
        </mxCell>
        <mxCell id="k5IW1HagH6-RW2qSPKCG-154" value="" style="rounded=0;whiteSpace=wrap;html=1;strokeColor=#CCCCCC;dashed=1;dashPattern=1 2;fillColor=none;" vertex="1" parent="1">
          <mxGeometry x="810" y="520" width="10" height="10" as="geometry" />
        </mxCell>
        <mxCell id="k5IW1HagH6-RW2qSPKCG-155" value="" style="rounded=0;whiteSpace=wrap;html=1;strokeColor=#CCCCCC;dashed=1;dashPattern=1 2;fillColor=none;" vertex="1" parent="1">
          <mxGeometry x="820" y="520" width="10" height="10" as="geometry" />
        </mxCell>
        <mxCell id="k5IW1HagH6-RW2qSPKCG-156" value="" style="rounded=0;whiteSpace=wrap;html=1;strokeColor=#CCCCCC;dashed=1;dashPattern=1 2;fillColor=none;" vertex="1" parent="1">
          <mxGeometry x="830" y="520" width="10" height="10" as="geometry" />
        </mxCell>
        <mxCell id="k5IW1HagH6-RW2qSPKCG-157" value="" style="rounded=0;whiteSpace=wrap;html=1;strokeColor=#CCCCCC;dashed=1;dashPattern=1 2;fillColor=none;" vertex="1" parent="1">
          <mxGeometry x="600" y="530" width="10" height="10" as="geometry" />
        </mxCell>
        <mxCell id="k5IW1HagH6-RW2qSPKCG-158" value="" style="rounded=0;whiteSpace=wrap;html=1;strokeColor=#CCCCCC;dashed=1;dashPattern=1 2;fillColor=none;" vertex="1" parent="1">
          <mxGeometry x="610" y="530" width="10" height="10" as="geometry" />
        </mxCell>
        <mxCell id="k5IW1HagH6-RW2qSPKCG-159" value="" style="rounded=0;whiteSpace=wrap;html=1;strokeColor=#CCCCCC;dashed=1;dashPattern=1 2;fillColor=none;" vertex="1" parent="1">
          <mxGeometry x="620" y="530" width="10" height="10" as="geometry" />
        </mxCell>
        <mxCell id="k5IW1HagH6-RW2qSPKCG-160" value="" style="rounded=0;whiteSpace=wrap;html=1;strokeColor=#CCCCCC;dashed=1;dashPattern=1 2;fillColor=none;" vertex="1" parent="1">
          <mxGeometry x="630" y="530" width="10" height="10" as="geometry" />
        </mxCell>
        <mxCell id="k5IW1HagH6-RW2qSPKCG-161" value="" style="rounded=0;whiteSpace=wrap;html=1;strokeColor=#CCCCCC;dashed=1;dashPattern=1 2;fillColor=none;" vertex="1" parent="1">
          <mxGeometry x="640" y="530" width="10" height="10" as="geometry" />
        </mxCell>
        <mxCell id="k5IW1HagH6-RW2qSPKCG-162" value="" style="rounded=0;whiteSpace=wrap;html=1;strokeColor=#CCCCCC;dashed=1;dashPattern=1 2;fillColor=none;" vertex="1" parent="1">
          <mxGeometry x="650" y="530" width="10" height="10" as="geometry" />
        </mxCell>
        <mxCell id="k5IW1HagH6-RW2qSPKCG-163" value="" style="rounded=0;whiteSpace=wrap;html=1;strokeColor=#CCCCCC;dashed=1;dashPattern=1 2;fillColor=none;" vertex="1" parent="1">
          <mxGeometry x="660" y="530" width="10" height="10" as="geometry" />
        </mxCell>
        <mxCell id="k5IW1HagH6-RW2qSPKCG-164" value="" style="rounded=0;whiteSpace=wrap;html=1;strokeColor=#CCCCCC;dashed=1;dashPattern=1 2;fillColor=#000000;" vertex="1" parent="1">
          <mxGeometry x="670" y="530" width="10" height="10" as="geometry" />
        </mxCell>
        <mxCell id="k5IW1HagH6-RW2qSPKCG-165" value="" style="rounded=0;whiteSpace=wrap;html=1;strokeColor=#CCCCCC;dashed=1;dashPattern=1 2;fillColor=#000000;" vertex="1" parent="1">
          <mxGeometry x="680" y="530" width="10" height="10" as="geometry" />
        </mxCell>
        <mxCell id="k5IW1HagH6-RW2qSPKCG-166" value="" style="rounded=0;whiteSpace=wrap;html=1;strokeColor=#CCCCCC;dashed=1;dashPattern=1 2;fillColor=#000000;" vertex="1" parent="1">
          <mxGeometry x="690" y="530" width="10" height="10" as="geometry" />
        </mxCell>
        <mxCell id="k5IW1HagH6-RW2qSPKCG-167" value="" style="rounded=0;whiteSpace=wrap;html=1;strokeColor=#CCCCCC;dashed=1;dashPattern=1 2;fillColor=#000000;" vertex="1" parent="1">
          <mxGeometry x="700" y="530" width="10" height="10" as="geometry" />
        </mxCell>
        <mxCell id="k5IW1HagH6-RW2qSPKCG-168" value="" style="rounded=0;whiteSpace=wrap;html=1;strokeColor=#CCCCCC;dashed=1;dashPattern=1 2;fillColor=#000000;" vertex="1" parent="1">
          <mxGeometry x="710" y="530" width="10" height="10" as="geometry" />
        </mxCell>
        <mxCell id="k5IW1HagH6-RW2qSPKCG-169" value="" style="rounded=0;whiteSpace=wrap;html=1;strokeColor=#CCCCCC;dashed=1;dashPattern=1 2;fillColor=#000000;" vertex="1" parent="1">
          <mxGeometry x="720" y="530" width="10" height="10" as="geometry" />
        </mxCell>
        <mxCell id="k5IW1HagH6-RW2qSPKCG-170" value="" style="rounded=0;whiteSpace=wrap;html=1;strokeColor=#CCCCCC;dashed=1;dashPattern=1 2;fillColor=#000000;" vertex="1" parent="1">
          <mxGeometry x="730" y="530" width="10" height="10" as="geometry" />
        </mxCell>
        <mxCell id="k5IW1HagH6-RW2qSPKCG-171" value="" style="rounded=0;whiteSpace=wrap;html=1;strokeColor=#CCCCCC;dashed=1;dashPattern=1 2;fillColor=#000000;" vertex="1" parent="1">
          <mxGeometry x="740" y="530" width="10" height="10" as="geometry" />
        </mxCell>
        <mxCell id="k5IW1HagH6-RW2qSPKCG-172" value="" style="rounded=0;whiteSpace=wrap;html=1;strokeColor=#CCCCCC;dashed=1;dashPattern=1 2;fillColor=#000000;" vertex="1" parent="1">
          <mxGeometry x="750" y="530" width="10" height="10" as="geometry" />
        </mxCell>
        <mxCell id="k5IW1HagH6-RW2qSPKCG-173" value="" style="rounded=0;whiteSpace=wrap;html=1;strokeColor=#CCCCCC;dashed=1;dashPattern=1 2;fillColor=#000000;" vertex="1" parent="1">
          <mxGeometry x="760" y="530" width="10" height="10" as="geometry" />
        </mxCell>
        <mxCell id="k5IW1HagH6-RW2qSPKCG-175" value="" style="rounded=0;whiteSpace=wrap;html=1;strokeColor=#CCCCCC;dashed=1;dashPattern=1 2;fillColor=none;" vertex="1" parent="1">
          <mxGeometry x="780" y="530" width="10" height="10" as="geometry" />
        </mxCell>
        <mxCell id="k5IW1HagH6-RW2qSPKCG-176" value="" style="rounded=0;whiteSpace=wrap;html=1;strokeColor=#CCCCCC;dashed=1;dashPattern=1 2;fillColor=none;" vertex="1" parent="1">
          <mxGeometry x="790" y="530" width="10" height="10" as="geometry" />
        </mxCell>
        <mxCell id="k5IW1HagH6-RW2qSPKCG-177" value="" style="rounded=0;whiteSpace=wrap;html=1;strokeColor=#CCCCCC;dashed=1;dashPattern=1 2;fillColor=none;" vertex="1" parent="1">
          <mxGeometry x="800" y="530" width="10" height="10" as="geometry" />
        </mxCell>
        <mxCell id="k5IW1HagH6-RW2qSPKCG-178" value="" style="rounded=0;whiteSpace=wrap;html=1;strokeColor=#CCCCCC;dashed=1;dashPattern=1 2;fillColor=none;" vertex="1" parent="1">
          <mxGeometry x="810" y="530" width="10" height="10" as="geometry" />
        </mxCell>
        <mxCell id="k5IW1HagH6-RW2qSPKCG-179" value="" style="rounded=0;whiteSpace=wrap;html=1;strokeColor=#CCCCCC;dashed=1;dashPattern=1 2;fillColor=none;" vertex="1" parent="1">
          <mxGeometry x="820" y="530" width="10" height="10" as="geometry" />
        </mxCell>
        <mxCell id="k5IW1HagH6-RW2qSPKCG-180" value="" style="rounded=0;whiteSpace=wrap;html=1;strokeColor=#CCCCCC;dashed=1;dashPattern=1 2;fillColor=none;" vertex="1" parent="1">
          <mxGeometry x="830" y="530" width="10" height="10" as="geometry" />
        </mxCell>
        <mxCell id="k5IW1HagH6-RW2qSPKCG-181" value="" style="rounded=0;whiteSpace=wrap;html=1;strokeColor=#CCCCCC;dashed=1;dashPattern=1 2;fillColor=none;" vertex="1" parent="1">
          <mxGeometry x="600" y="540" width="10" height="10" as="geometry" />
        </mxCell>
        <mxCell id="k5IW1HagH6-RW2qSPKCG-182" value="" style="rounded=0;whiteSpace=wrap;html=1;strokeColor=#CCCCCC;dashed=1;dashPattern=1 2;fillColor=none;" vertex="1" parent="1">
          <mxGeometry x="610" y="540" width="10" height="10" as="geometry" />
        </mxCell>
        <mxCell id="k5IW1HagH6-RW2qSPKCG-183" value="" style="rounded=0;whiteSpace=wrap;html=1;strokeColor=#CCCCCC;dashed=1;dashPattern=1 2;fillColor=none;" vertex="1" parent="1">
          <mxGeometry x="620" y="540" width="10" height="10" as="geometry" />
        </mxCell>
        <mxCell id="k5IW1HagH6-RW2qSPKCG-184" value="" style="rounded=0;whiteSpace=wrap;html=1;strokeColor=#CCCCCC;dashed=1;dashPattern=1 2;fillColor=none;" vertex="1" parent="1">
          <mxGeometry x="630" y="540" width="10" height="10" as="geometry" />
        </mxCell>
        <mxCell id="k5IW1HagH6-RW2qSPKCG-185" value="" style="rounded=0;whiteSpace=wrap;html=1;strokeColor=#CCCCCC;dashed=1;dashPattern=1 2;fillColor=none;" vertex="1" parent="1">
          <mxGeometry x="640" y="540" width="10" height="10" as="geometry" />
        </mxCell>
        <mxCell id="k5IW1HagH6-RW2qSPKCG-186" value="" style="rounded=0;whiteSpace=wrap;html=1;strokeColor=#CCCCCC;dashed=1;dashPattern=1 2;fillColor=none;" vertex="1" parent="1">
          <mxGeometry x="650" y="540" width="10" height="10" as="geometry" />
        </mxCell>
        <mxCell id="k5IW1HagH6-RW2qSPKCG-187" value="" style="rounded=0;whiteSpace=wrap;html=1;strokeColor=#CCCCCC;dashed=1;dashPattern=1 2;fillColor=#000000;" vertex="1" parent="1">
          <mxGeometry x="660" y="540" width="10" height="10" as="geometry" />
        </mxCell>
        <mxCell id="k5IW1HagH6-RW2qSPKCG-188" value="" style="rounded=0;whiteSpace=wrap;html=1;strokeColor=#CCCCCC;dashed=1;dashPattern=1 2;fillColor=none;" vertex="1" parent="1">
          <mxGeometry x="670" y="540" width="10" height="10" as="geometry" />
        </mxCell>
        <mxCell id="k5IW1HagH6-RW2qSPKCG-189" value="" style="rounded=0;whiteSpace=wrap;html=1;strokeColor=#CCCCCC;dashed=1;dashPattern=1 2;fillColor=none;" vertex="1" parent="1">
          <mxGeometry x="680" y="540" width="10" height="10" as="geometry" />
        </mxCell>
        <mxCell id="k5IW1HagH6-RW2qSPKCG-190" value="" style="rounded=0;whiteSpace=wrap;html=1;strokeColor=#CCCCCC;dashed=1;dashPattern=1 2;fillColor=none;" vertex="1" parent="1">
          <mxGeometry x="690" y="540" width="10" height="10" as="geometry" />
        </mxCell>
        <mxCell id="k5IW1HagH6-RW2qSPKCG-191" value="" style="rounded=0;whiteSpace=wrap;html=1;strokeColor=#CCCCCC;dashed=1;dashPattern=1 2;fillColor=none;" vertex="1" parent="1">
          <mxGeometry x="700" y="540" width="10" height="10" as="geometry" />
        </mxCell>
        <mxCell id="k5IW1HagH6-RW2qSPKCG-192" value="" style="rounded=0;whiteSpace=wrap;html=1;strokeColor=#CCCCCC;dashed=1;dashPattern=1 2;fillColor=none;" vertex="1" parent="1">
          <mxGeometry x="710" y="540" width="10" height="10" as="geometry" />
        </mxCell>
        <mxCell id="k5IW1HagH6-RW2qSPKCG-193" value="" style="rounded=0;whiteSpace=wrap;html=1;strokeColor=#CCCCCC;dashed=1;dashPattern=1 2;fillColor=none;" vertex="1" parent="1">
          <mxGeometry x="720" y="540" width="10" height="10" as="geometry" />
        </mxCell>
        <mxCell id="k5IW1HagH6-RW2qSPKCG-194" value="" style="rounded=0;whiteSpace=wrap;html=1;strokeColor=#CCCCCC;dashed=1;dashPattern=1 2;fillColor=none;" vertex="1" parent="1">
          <mxGeometry x="730" y="540" width="10" height="10" as="geometry" />
        </mxCell>
        <mxCell id="k5IW1HagH6-RW2qSPKCG-195" value="" style="rounded=0;whiteSpace=wrap;html=1;strokeColor=#CCCCCC;dashed=1;dashPattern=1 2;fillColor=none;" vertex="1" parent="1">
          <mxGeometry x="740" y="540" width="10" height="10" as="geometry" />
        </mxCell>
        <mxCell id="k5IW1HagH6-RW2qSPKCG-196" value="" style="rounded=0;whiteSpace=wrap;html=1;strokeColor=#005700;dashed=1;dashPattern=1 2;fillColor=#008a00;fontColor=#ffffff;" vertex="1" parent="1">
          <mxGeometry x="750" y="540" width="10" height="10" as="geometry" />
        </mxCell>
        <mxCell id="k5IW1HagH6-RW2qSPKCG-197" value="" style="rounded=0;whiteSpace=wrap;html=1;strokeColor=#005700;dashed=1;dashPattern=1 2;fillColor=#008a00;fontColor=#ffffff;" vertex="1" parent="1">
          <mxGeometry x="760" y="540" width="10" height="10" as="geometry" />
        </mxCell>
        <mxCell id="k5IW1HagH6-RW2qSPKCG-198" value="" style="rounded=0;whiteSpace=wrap;html=1;strokeColor=#005700;dashed=1;dashPattern=1 2;fillColor=#008a00;fontColor=#ffffff;" vertex="1" parent="1">
          <mxGeometry x="770" y="540" width="10" height="10" as="geometry" />
        </mxCell>
        <mxCell id="k5IW1HagH6-RW2qSPKCG-199" value="" style="rounded=0;whiteSpace=wrap;html=1;strokeColor=#CCCCCC;dashed=1;dashPattern=1 2;fillColor=#000000;" vertex="1" parent="1">
          <mxGeometry x="780" y="540" width="10" height="10" as="geometry" />
        </mxCell>
        <mxCell id="k5IW1HagH6-RW2qSPKCG-200" value="" style="rounded=0;whiteSpace=wrap;html=1;strokeColor=#CCCCCC;dashed=1;dashPattern=1 2;fillColor=none;" vertex="1" parent="1">
          <mxGeometry x="790" y="540" width="10" height="10" as="geometry" />
        </mxCell>
        <mxCell id="k5IW1HagH6-RW2qSPKCG-201" value="" style="rounded=0;whiteSpace=wrap;html=1;strokeColor=#CCCCCC;dashed=1;dashPattern=1 2;fillColor=none;" vertex="1" parent="1">
          <mxGeometry x="800" y="540" width="10" height="10" as="geometry" />
        </mxCell>
        <mxCell id="k5IW1HagH6-RW2qSPKCG-202" value="" style="rounded=0;whiteSpace=wrap;html=1;strokeColor=#CCCCCC;dashed=1;dashPattern=1 2;fillColor=none;" vertex="1" parent="1">
          <mxGeometry x="810" y="540" width="10" height="10" as="geometry" />
        </mxCell>
        <mxCell id="k5IW1HagH6-RW2qSPKCG-203" value="" style="rounded=0;whiteSpace=wrap;html=1;strokeColor=#CCCCCC;dashed=1;dashPattern=1 2;fillColor=none;" vertex="1" parent="1">
          <mxGeometry x="820" y="540" width="10" height="10" as="geometry" />
        </mxCell>
        <mxCell id="k5IW1HagH6-RW2qSPKCG-204" value="" style="rounded=0;whiteSpace=wrap;html=1;strokeColor=#CCCCCC;dashed=1;dashPattern=1 2;fillColor=none;" vertex="1" parent="1">
          <mxGeometry x="830" y="540" width="10" height="10" as="geometry" />
        </mxCell>
        <mxCell id="k5IW1HagH6-RW2qSPKCG-205" value="" style="rounded=0;whiteSpace=wrap;html=1;strokeColor=#CCCCCC;dashed=1;dashPattern=1 2;fillColor=none;" vertex="1" parent="1">
          <mxGeometry x="600" y="550" width="10" height="10" as="geometry" />
        </mxCell>
        <mxCell id="k5IW1HagH6-RW2qSPKCG-206" value="" style="rounded=0;whiteSpace=wrap;html=1;strokeColor=#CCCCCC;dashed=1;dashPattern=1 2;fillColor=none;" vertex="1" parent="1">
          <mxGeometry x="610" y="550" width="10" height="10" as="geometry" />
        </mxCell>
        <mxCell id="k5IW1HagH6-RW2qSPKCG-207" value="" style="rounded=0;whiteSpace=wrap;html=1;strokeColor=#CCCCCC;dashed=1;dashPattern=1 2;fillColor=none;" vertex="1" parent="1">
          <mxGeometry x="620" y="550" width="10" height="10" as="geometry" />
        </mxCell>
        <mxCell id="k5IW1HagH6-RW2qSPKCG-208" value="" style="rounded=0;whiteSpace=wrap;html=1;strokeColor=#CCCCCC;dashed=1;dashPattern=1 2;fillColor=none;" vertex="1" parent="1">
          <mxGeometry x="630" y="550" width="10" height="10" as="geometry" />
        </mxCell>
        <mxCell id="k5IW1HagH6-RW2qSPKCG-209" value="" style="rounded=0;whiteSpace=wrap;html=1;strokeColor=#CCCCCC;dashed=1;dashPattern=1 2;fillColor=none;" vertex="1" parent="1">
          <mxGeometry x="640" y="550" width="10" height="10" as="geometry" />
        </mxCell>
        <mxCell id="k5IW1HagH6-RW2qSPKCG-210" value="" style="rounded=0;whiteSpace=wrap;html=1;strokeColor=#CCCCCC;dashed=1;dashPattern=1 2;fillColor=#000000;" vertex="1" parent="1">
          <mxGeometry x="650" y="550" width="10" height="10" as="geometry" />
        </mxCell>
        <mxCell id="k5IW1HagH6-RW2qSPKCG-211" value="" style="rounded=0;whiteSpace=wrap;html=1;strokeColor=#CCCCCC;dashed=1;dashPattern=1 2;fillColor=none;" vertex="1" parent="1">
          <mxGeometry x="660" y="550" width="10" height="10" as="geometry" />
        </mxCell>
        <mxCell id="k5IW1HagH6-RW2qSPKCG-212" value="" style="rounded=0;whiteSpace=wrap;html=1;strokeColor=#CCCCCC;dashed=1;dashPattern=1 2;fillColor=none;" vertex="1" parent="1">
          <mxGeometry x="670" y="550" width="10" height="10" as="geometry" />
        </mxCell>
        <mxCell id="k5IW1HagH6-RW2qSPKCG-213" value="" style="rounded=0;whiteSpace=wrap;html=1;strokeColor=#CCCCCC;dashed=1;dashPattern=1 2;fillColor=none;" vertex="1" parent="1">
          <mxGeometry x="680" y="550" width="10" height="10" as="geometry" />
        </mxCell>
        <mxCell id="k5IW1HagH6-RW2qSPKCG-214" value="" style="rounded=0;whiteSpace=wrap;html=1;strokeColor=#CCCCCC;dashed=1;dashPattern=1 2;fillColor=none;" vertex="1" parent="1">
          <mxGeometry x="690" y="550" width="10" height="10" as="geometry" />
        </mxCell>
        <mxCell id="k5IW1HagH6-RW2qSPKCG-215" value="" style="rounded=0;whiteSpace=wrap;html=1;strokeColor=#CCCCCC;dashed=1;dashPattern=1 2;fillColor=none;" vertex="1" parent="1">
          <mxGeometry x="700" y="550" width="10" height="10" as="geometry" />
        </mxCell>
        <mxCell id="k5IW1HagH6-RW2qSPKCG-216" value="" style="rounded=0;whiteSpace=wrap;html=1;strokeColor=#CCCCCC;dashed=1;dashPattern=1 2;fillColor=none;" vertex="1" parent="1">
          <mxGeometry x="710" y="550" width="10" height="10" as="geometry" />
        </mxCell>
        <mxCell id="k5IW1HagH6-RW2qSPKCG-217" value="" style="rounded=0;whiteSpace=wrap;html=1;strokeColor=#CCCCCC;dashed=1;dashPattern=1 2;fillColor=none;" vertex="1" parent="1">
          <mxGeometry x="720" y="550" width="10" height="10" as="geometry" />
        </mxCell>
        <mxCell id="k5IW1HagH6-RW2qSPKCG-218" value="" style="rounded=0;whiteSpace=wrap;html=1;strokeColor=#CCCCCC;dashed=1;dashPattern=1 2;fillColor=none;" vertex="1" parent="1">
          <mxGeometry x="730" y="550" width="10" height="10" as="geometry" />
        </mxCell>
        <mxCell id="k5IW1HagH6-RW2qSPKCG-219" value="" style="rounded=0;whiteSpace=wrap;html=1;strokeColor=#CCCCCC;dashed=1;dashPattern=1 2;fillColor=none;" vertex="1" parent="1">
          <mxGeometry x="740" y="550" width="10" height="10" as="geometry" />
        </mxCell>
        <mxCell id="k5IW1HagH6-RW2qSPKCG-220" value="" style="rounded=0;whiteSpace=wrap;html=1;strokeColor=#005700;dashed=1;dashPattern=1 2;fillColor=#008a00;fontColor=#ffffff;" vertex="1" parent="1">
          <mxGeometry x="750" y="550" width="10" height="10" as="geometry" />
        </mxCell>
        <mxCell id="k5IW1HagH6-RW2qSPKCG-221" value="" style="rounded=0;whiteSpace=wrap;html=1;strokeColor=#005700;dashed=1;dashPattern=1 2;fillColor=#008a00;fontColor=#ffffff;" vertex="1" parent="1">
          <mxGeometry x="760" y="550" width="10" height="10" as="geometry" />
        </mxCell>
        <mxCell id="k5IW1HagH6-RW2qSPKCG-222" value="" style="rounded=0;whiteSpace=wrap;html=1;strokeColor=#005700;dashed=1;dashPattern=1 2;fillColor=#008a00;fontColor=#ffffff;" vertex="1" parent="1">
          <mxGeometry x="770" y="550" width="10" height="10" as="geometry" />
        </mxCell>
        <mxCell id="k5IW1HagH6-RW2qSPKCG-223" value="" style="rounded=0;whiteSpace=wrap;html=1;strokeColor=#005700;dashed=1;dashPattern=1 2;fillColor=#008a00;fontColor=#ffffff;" vertex="1" parent="1">
          <mxGeometry x="780" y="550" width="10" height="10" as="geometry" />
        </mxCell>
        <mxCell id="k5IW1HagH6-RW2qSPKCG-224" value="" style="rounded=0;whiteSpace=wrap;html=1;strokeColor=#CCCCCC;dashed=1;dashPattern=1 2;fillColor=#000000;" vertex="1" parent="1">
          <mxGeometry x="790" y="550" width="10" height="10" as="geometry" />
        </mxCell>
        <mxCell id="k5IW1HagH6-RW2qSPKCG-225" value="" style="rounded=0;whiteSpace=wrap;html=1;strokeColor=#CCCCCC;dashed=1;dashPattern=1 2;fillColor=none;" vertex="1" parent="1">
          <mxGeometry x="800" y="550" width="10" height="10" as="geometry" />
        </mxCell>
        <mxCell id="k5IW1HagH6-RW2qSPKCG-226" value="" style="rounded=0;whiteSpace=wrap;html=1;strokeColor=#CCCCCC;dashed=1;dashPattern=1 2;fillColor=none;" vertex="1" parent="1">
          <mxGeometry x="810" y="550" width="10" height="10" as="geometry" />
        </mxCell>
        <mxCell id="k5IW1HagH6-RW2qSPKCG-227" value="" style="rounded=0;whiteSpace=wrap;html=1;strokeColor=#CCCCCC;dashed=1;dashPattern=1 2;fillColor=none;" vertex="1" parent="1">
          <mxGeometry x="820" y="550" width="10" height="10" as="geometry" />
        </mxCell>
        <mxCell id="k5IW1HagH6-RW2qSPKCG-228" value="" style="rounded=0;whiteSpace=wrap;html=1;strokeColor=#CCCCCC;dashed=1;dashPattern=1 2;fillColor=none;" vertex="1" parent="1">
          <mxGeometry x="830" y="550" width="10" height="10" as="geometry" />
        </mxCell>
        <mxCell id="k5IW1HagH6-RW2qSPKCG-229" value="" style="rounded=0;whiteSpace=wrap;html=1;strokeColor=#CCCCCC;dashed=1;dashPattern=1 2;fillColor=none;" vertex="1" parent="1">
          <mxGeometry x="600" y="560" width="10" height="10" as="geometry" />
        </mxCell>
        <mxCell id="k5IW1HagH6-RW2qSPKCG-230" value="" style="rounded=0;whiteSpace=wrap;html=1;strokeColor=#CCCCCC;dashed=1;dashPattern=1 2;fillColor=none;" vertex="1" parent="1">
          <mxGeometry x="610" y="560" width="10" height="10" as="geometry" />
        </mxCell>
        <mxCell id="k5IW1HagH6-RW2qSPKCG-231" value="" style="rounded=0;whiteSpace=wrap;html=1;strokeColor=#CCCCCC;dashed=1;dashPattern=1 2;fillColor=none;" vertex="1" parent="1">
          <mxGeometry x="620" y="560" width="10" height="10" as="geometry" />
        </mxCell>
        <mxCell id="k5IW1HagH6-RW2qSPKCG-232" value="" style="rounded=0;whiteSpace=wrap;html=1;strokeColor=#CCCCCC;dashed=1;dashPattern=1 2;fillColor=none;" vertex="1" parent="1">
          <mxGeometry x="630" y="560" width="10" height="10" as="geometry" />
        </mxCell>
        <mxCell id="k5IW1HagH6-RW2qSPKCG-233" value="" style="rounded=0;whiteSpace=wrap;html=1;strokeColor=#CCCCCC;dashed=1;dashPattern=1 2;fillColor=none;" vertex="1" parent="1">
          <mxGeometry x="640" y="560" width="10" height="10" as="geometry" />
        </mxCell>
        <mxCell id="k5IW1HagH6-RW2qSPKCG-234" value="" style="rounded=0;whiteSpace=wrap;html=1;strokeColor=#CCCCCC;dashed=1;dashPattern=1 2;fillColor=#000000;" vertex="1" parent="1">
          <mxGeometry x="650" y="560" width="10" height="10" as="geometry" />
        </mxCell>
        <mxCell id="k5IW1HagH6-RW2qSPKCG-235" value="" style="rounded=0;whiteSpace=wrap;html=1;strokeColor=#CCCCCC;dashed=1;dashPattern=1 2;fillColor=#000000;" vertex="1" parent="1">
          <mxGeometry x="660" y="560" width="10" height="10" as="geometry" />
        </mxCell>
        <mxCell id="k5IW1HagH6-RW2qSPKCG-236" value="" style="rounded=0;whiteSpace=wrap;html=1;strokeColor=#CCCCCC;dashed=1;dashPattern=1 2;fillColor=#000000;" vertex="1" parent="1">
          <mxGeometry x="670" y="560" width="10" height="10" as="geometry" />
        </mxCell>
        <mxCell id="k5IW1HagH6-RW2qSPKCG-237" value="" style="rounded=0;whiteSpace=wrap;html=1;strokeColor=#CCCCCC;dashed=1;dashPattern=1 2;fillColor=#000000;" vertex="1" parent="1">
          <mxGeometry x="680" y="560" width="10" height="10" as="geometry" />
        </mxCell>
        <mxCell id="k5IW1HagH6-RW2qSPKCG-238" value="" style="rounded=0;whiteSpace=wrap;html=1;strokeColor=#CCCCCC;dashed=1;dashPattern=1 2;fillColor=#000000;" vertex="1" parent="1">
          <mxGeometry x="690" y="560" width="10" height="10" as="geometry" />
        </mxCell>
        <mxCell id="k5IW1HagH6-RW2qSPKCG-239" value="" style="rounded=0;whiteSpace=wrap;html=1;strokeColor=#CCCCCC;dashed=1;dashPattern=1 2;fillColor=#000000;" vertex="1" parent="1">
          <mxGeometry x="700" y="560" width="10" height="10" as="geometry" />
        </mxCell>
        <mxCell id="k5IW1HagH6-RW2qSPKCG-240" value="" style="rounded=0;whiteSpace=wrap;html=1;strokeColor=#CCCCCC;dashed=1;dashPattern=1 2;fillColor=#000000;" vertex="1" parent="1">
          <mxGeometry x="710" y="560" width="10" height="10" as="geometry" />
        </mxCell>
        <mxCell id="k5IW1HagH6-RW2qSPKCG-241" value="" style="rounded=0;whiteSpace=wrap;html=1;strokeColor=#CCCCCC;dashed=1;dashPattern=1 2;fillColor=#000000;" vertex="1" parent="1">
          <mxGeometry x="720" y="560" width="10" height="10" as="geometry" />
        </mxCell>
        <mxCell id="k5IW1HagH6-RW2qSPKCG-242" value="" style="rounded=0;whiteSpace=wrap;html=1;strokeColor=#CCCCCC;dashed=1;dashPattern=1 2;fillColor=#000000;" vertex="1" parent="1">
          <mxGeometry x="730" y="560" width="10" height="10" as="geometry" />
        </mxCell>
        <mxCell id="k5IW1HagH6-RW2qSPKCG-243" value="" style="rounded=0;whiteSpace=wrap;html=1;strokeColor=#CCCCCC;dashed=1;dashPattern=1 2;fillColor=#000000;" vertex="1" parent="1">
          <mxGeometry x="740" y="560" width="10" height="10" as="geometry" />
        </mxCell>
        <mxCell id="k5IW1HagH6-RW2qSPKCG-244" value="" style="rounded=0;whiteSpace=wrap;html=1;strokeColor=#CCCCCC;dashed=1;dashPattern=1 2;fillColor=#000000;" vertex="1" parent="1">
          <mxGeometry x="750" y="560" width="10" height="10" as="geometry" />
        </mxCell>
        <mxCell id="k5IW1HagH6-RW2qSPKCG-245" value="" style="rounded=0;whiteSpace=wrap;html=1;strokeColor=#CCCCCC;dashed=1;dashPattern=1 2;fillColor=#000000;" vertex="1" parent="1">
          <mxGeometry x="760" y="560" width="10" height="10" as="geometry" />
        </mxCell>
        <mxCell id="k5IW1HagH6-RW2qSPKCG-246" value="" style="rounded=0;whiteSpace=wrap;html=1;strokeColor=#CCCCCC;dashed=1;dashPattern=1 2;fillColor=#000000;" vertex="1" parent="1">
          <mxGeometry x="770" y="560" width="10" height="10" as="geometry" />
        </mxCell>
        <mxCell id="k5IW1HagH6-RW2qSPKCG-247" value="" style="rounded=0;whiteSpace=wrap;html=1;strokeColor=#CCCCCC;dashed=1;dashPattern=1 2;fillColor=#000000;" vertex="1" parent="1">
          <mxGeometry x="780" y="560" width="10" height="10" as="geometry" />
        </mxCell>
        <mxCell id="k5IW1HagH6-RW2qSPKCG-248" value="" style="rounded=0;whiteSpace=wrap;html=1;strokeColor=#CCCCCC;dashed=1;dashPattern=1 2;fillColor=#000000;" vertex="1" parent="1">
          <mxGeometry x="790" y="560" width="10" height="10" as="geometry" />
        </mxCell>
        <mxCell id="k5IW1HagH6-RW2qSPKCG-249" value="" style="rounded=0;whiteSpace=wrap;html=1;strokeColor=#CCCCCC;dashed=1;dashPattern=1 2;fillColor=none;" vertex="1" parent="1">
          <mxGeometry x="800" y="560" width="10" height="10" as="geometry" />
        </mxCell>
        <mxCell id="k5IW1HagH6-RW2qSPKCG-250" value="" style="rounded=0;whiteSpace=wrap;html=1;strokeColor=#CCCCCC;dashed=1;dashPattern=1 2;fillColor=none;" vertex="1" parent="1">
          <mxGeometry x="810" y="560" width="10" height="10" as="geometry" />
        </mxCell>
        <mxCell id="k5IW1HagH6-RW2qSPKCG-251" value="" style="rounded=0;whiteSpace=wrap;html=1;strokeColor=#CCCCCC;dashed=1;dashPattern=1 2;fillColor=none;" vertex="1" parent="1">
          <mxGeometry x="820" y="560" width="10" height="10" as="geometry" />
        </mxCell>
        <mxCell id="k5IW1HagH6-RW2qSPKCG-252" value="" style="rounded=0;whiteSpace=wrap;html=1;strokeColor=#CCCCCC;dashed=1;dashPattern=1 2;fillColor=none;" vertex="1" parent="1">
          <mxGeometry x="830" y="560" width="10" height="10" as="geometry" />
        </mxCell>
        <mxCell id="k5IW1HagH6-RW2qSPKCG-253" value="" style="rounded=0;whiteSpace=wrap;html=1;strokeColor=#CCCCCC;dashed=1;dashPattern=1 2;fillColor=none;" vertex="1" parent="1">
          <mxGeometry x="600" y="570" width="10" height="10" as="geometry" />
        </mxCell>
        <mxCell id="k5IW1HagH6-RW2qSPKCG-254" value="" style="rounded=0;whiteSpace=wrap;html=1;strokeColor=#CCCCCC;dashed=1;dashPattern=1 2;fillColor=none;" vertex="1" parent="1">
          <mxGeometry x="610" y="570" width="10" height="10" as="geometry" />
        </mxCell>
        <mxCell id="k5IW1HagH6-RW2qSPKCG-255" value="" style="rounded=0;whiteSpace=wrap;html=1;strokeColor=#CCCCCC;dashed=1;dashPattern=1 2;fillColor=none;" vertex="1" parent="1">
          <mxGeometry x="620" y="570" width="10" height="10" as="geometry" />
        </mxCell>
        <mxCell id="k5IW1HagH6-RW2qSPKCG-256" value="" style="rounded=0;whiteSpace=wrap;html=1;strokeColor=#CCCCCC;dashed=1;dashPattern=1 2;fillColor=none;" vertex="1" parent="1">
          <mxGeometry x="630" y="570" width="10" height="10" as="geometry" />
        </mxCell>
        <mxCell id="k5IW1HagH6-RW2qSPKCG-257" value="" style="rounded=0;whiteSpace=wrap;html=1;strokeColor=#CCCCCC;dashed=1;dashPattern=1 2;fillColor=none;" vertex="1" parent="1">
          <mxGeometry x="640" y="570" width="10" height="10" as="geometry" />
        </mxCell>
        <mxCell id="k5IW1HagH6-RW2qSPKCG-258" value="" style="rounded=0;whiteSpace=wrap;html=1;strokeColor=#CCCCCC;dashed=1;dashPattern=1 2;fillColor=#000000;" vertex="1" parent="1">
          <mxGeometry x="650" y="570" width="10" height="10" as="geometry" />
        </mxCell>
        <mxCell id="k5IW1HagH6-RW2qSPKCG-259" value="" style="rounded=0;whiteSpace=wrap;html=1;strokeColor=#CCCCCC;dashed=1;dashPattern=1 2;fillColor=none;" vertex="1" parent="1">
          <mxGeometry x="660" y="570" width="10" height="10" as="geometry" />
        </mxCell>
        <mxCell id="k5IW1HagH6-RW2qSPKCG-260" value="" style="rounded=0;whiteSpace=wrap;html=1;strokeColor=#CCCCCC;dashed=1;dashPattern=1 2;fillColor=none;" vertex="1" parent="1">
          <mxGeometry x="670" y="570" width="10" height="10" as="geometry" />
        </mxCell>
        <mxCell id="k5IW1HagH6-RW2qSPKCG-261" value="" style="rounded=0;whiteSpace=wrap;html=1;strokeColor=#CCCCCC;dashed=1;dashPattern=1 2;fillColor=none;" vertex="1" parent="1">
          <mxGeometry x="680" y="570" width="10" height="10" as="geometry" />
        </mxCell>
        <mxCell id="k5IW1HagH6-RW2qSPKCG-262" value="" style="rounded=0;whiteSpace=wrap;html=1;strokeColor=#CCCCCC;dashed=1;dashPattern=1 2;fillColor=none;" vertex="1" parent="1">
          <mxGeometry x="690" y="570" width="10" height="10" as="geometry" />
        </mxCell>
        <mxCell id="k5IW1HagH6-RW2qSPKCG-263" value="" style="rounded=0;whiteSpace=wrap;html=1;strokeColor=#CCCCCC;dashed=1;dashPattern=1 2;fillColor=none;" vertex="1" parent="1">
          <mxGeometry x="700" y="570" width="10" height="10" as="geometry" />
        </mxCell>
        <mxCell id="k5IW1HagH6-RW2qSPKCG-264" value="" style="rounded=0;whiteSpace=wrap;html=1;strokeColor=#CCCCCC;dashed=1;dashPattern=1 2;fillColor=none;" vertex="1" parent="1">
          <mxGeometry x="710" y="570" width="10" height="10" as="geometry" />
        </mxCell>
        <mxCell id="k5IW1HagH6-RW2qSPKCG-265" value="" style="rounded=0;whiteSpace=wrap;html=1;strokeColor=#CCCCCC;dashed=1;dashPattern=1 2;fillColor=none;" vertex="1" parent="1">
          <mxGeometry x="720" y="570" width="10" height="10" as="geometry" />
        </mxCell>
        <mxCell id="k5IW1HagH6-RW2qSPKCG-266" value="" style="rounded=0;whiteSpace=wrap;html=1;strokeColor=#CCCCCC;dashed=1;dashPattern=1 2;fillColor=none;" vertex="1" parent="1">
          <mxGeometry x="730" y="570" width="10" height="10" as="geometry" />
        </mxCell>
        <mxCell id="k5IW1HagH6-RW2qSPKCG-267" value="" style="rounded=0;whiteSpace=wrap;html=1;strokeColor=#CCCCCC;dashed=1;dashPattern=1 2;fillColor=none;" vertex="1" parent="1">
          <mxGeometry x="740" y="570" width="10" height="10" as="geometry" />
        </mxCell>
        <mxCell id="k5IW1HagH6-RW2qSPKCG-268" value="" style="rounded=0;whiteSpace=wrap;html=1;strokeColor=#CCCCCC;dashed=1;dashPattern=1 2;fillColor=none;" vertex="1" parent="1">
          <mxGeometry x="750" y="570" width="10" height="10" as="geometry" />
        </mxCell>
        <mxCell id="k5IW1HagH6-RW2qSPKCG-269" value="" style="rounded=0;whiteSpace=wrap;html=1;strokeColor=#CCCCCC;dashed=1;dashPattern=1 2;fillColor=none;" vertex="1" parent="1">
          <mxGeometry x="760" y="570" width="10" height="10" as="geometry" />
        </mxCell>
        <mxCell id="k5IW1HagH6-RW2qSPKCG-270" value="" style="rounded=0;whiteSpace=wrap;html=1;strokeColor=#CCCCCC;dashed=1;dashPattern=1 2;fillColor=none;" vertex="1" parent="1">
          <mxGeometry x="770" y="570" width="10" height="10" as="geometry" />
        </mxCell>
        <mxCell id="k5IW1HagH6-RW2qSPKCG-271" value="" style="rounded=0;whiteSpace=wrap;html=1;strokeColor=#CCCCCC;dashed=1;dashPattern=1 2;fillColor=none;" vertex="1" parent="1">
          <mxGeometry x="780" y="570" width="10" height="10" as="geometry" />
        </mxCell>
        <mxCell id="k5IW1HagH6-RW2qSPKCG-272" value="" style="rounded=0;whiteSpace=wrap;html=1;strokeColor=#CCCCCC;dashed=1;dashPattern=1 2;fillColor=#000000;" vertex="1" parent="1">
          <mxGeometry x="790" y="570" width="10" height="10" as="geometry" />
        </mxCell>
        <mxCell id="k5IW1HagH6-RW2qSPKCG-273" value="" style="rounded=0;whiteSpace=wrap;html=1;strokeColor=#CCCCCC;dashed=1;dashPattern=1 2;fillColor=none;" vertex="1" parent="1">
          <mxGeometry x="800" y="570" width="10" height="10" as="geometry" />
        </mxCell>
        <mxCell id="k5IW1HagH6-RW2qSPKCG-274" value="" style="rounded=0;whiteSpace=wrap;html=1;strokeColor=#CCCCCC;dashed=1;dashPattern=1 2;fillColor=none;" vertex="1" parent="1">
          <mxGeometry x="810" y="570" width="10" height="10" as="geometry" />
        </mxCell>
        <mxCell id="k5IW1HagH6-RW2qSPKCG-275" value="" style="rounded=0;whiteSpace=wrap;html=1;strokeColor=#CCCCCC;dashed=1;dashPattern=1 2;fillColor=none;" vertex="1" parent="1">
          <mxGeometry x="820" y="570" width="10" height="10" as="geometry" />
        </mxCell>
        <mxCell id="k5IW1HagH6-RW2qSPKCG-276" value="" style="rounded=0;whiteSpace=wrap;html=1;strokeColor=#CCCCCC;dashed=1;dashPattern=1 2;fillColor=none;" vertex="1" parent="1">
          <mxGeometry x="830" y="570" width="10" height="10" as="geometry" />
        </mxCell>
        <mxCell id="k5IW1HagH6-RW2qSPKCG-277" value="" style="rounded=0;whiteSpace=wrap;html=1;strokeColor=#CCCCCC;dashed=1;dashPattern=1 2;fillColor=none;" vertex="1" parent="1">
          <mxGeometry x="600" y="580" width="10" height="10" as="geometry" />
        </mxCell>
        <mxCell id="k5IW1HagH6-RW2qSPKCG-278" value="" style="rounded=0;whiteSpace=wrap;html=1;strokeColor=#CCCCCC;dashed=1;dashPattern=1 2;fillColor=none;" vertex="1" parent="1">
          <mxGeometry x="610" y="580" width="10" height="10" as="geometry" />
        </mxCell>
        <mxCell id="k5IW1HagH6-RW2qSPKCG-279" value="" style="rounded=0;whiteSpace=wrap;html=1;strokeColor=#CCCCCC;dashed=1;dashPattern=1 2;fillColor=none;" vertex="1" parent="1">
          <mxGeometry x="620" y="580" width="10" height="10" as="geometry" />
        </mxCell>
        <mxCell id="k5IW1HagH6-RW2qSPKCG-280" value="" style="rounded=0;whiteSpace=wrap;html=1;strokeColor=#CCCCCC;dashed=1;dashPattern=1 2;fillColor=none;" vertex="1" parent="1">
          <mxGeometry x="630" y="580" width="10" height="10" as="geometry" />
        </mxCell>
        <mxCell id="k5IW1HagH6-RW2qSPKCG-281" value="" style="rounded=0;whiteSpace=wrap;html=1;strokeColor=#CCCCCC;dashed=1;dashPattern=1 2;fillColor=none;" vertex="1" parent="1">
          <mxGeometry x="640" y="580" width="10" height="10" as="geometry" />
        </mxCell>
        <mxCell id="k5IW1HagH6-RW2qSPKCG-282" value="" style="rounded=0;whiteSpace=wrap;html=1;strokeColor=#CCCCCC;dashed=1;dashPattern=1 2;fillColor=#000000;" vertex="1" parent="1">
          <mxGeometry x="650" y="580" width="10" height="10" as="geometry" />
        </mxCell>
        <mxCell id="k5IW1HagH6-RW2qSPKCG-283" value="" style="rounded=0;whiteSpace=wrap;html=1;strokeColor=#CCCCCC;dashed=1;dashPattern=1 2;fillColor=none;" vertex="1" parent="1">
          <mxGeometry x="660" y="580" width="10" height="10" as="geometry" />
        </mxCell>
        <mxCell id="k5IW1HagH6-RW2qSPKCG-284" value="" style="rounded=0;whiteSpace=wrap;html=1;strokeColor=#CCCCCC;dashed=1;dashPattern=1 2;fillColor=none;" vertex="1" parent="1">
          <mxGeometry x="670" y="580" width="10" height="10" as="geometry" />
        </mxCell>
        <mxCell id="k5IW1HagH6-RW2qSPKCG-285" value="" style="rounded=0;whiteSpace=wrap;html=1;strokeColor=#CCCCCC;dashed=1;dashPattern=1 2;fillColor=none;" vertex="1" parent="1">
          <mxGeometry x="680" y="580" width="10" height="10" as="geometry" />
        </mxCell>
        <mxCell id="k5IW1HagH6-RW2qSPKCG-286" value="" style="rounded=0;whiteSpace=wrap;html=1;strokeColor=#CCCCCC;dashed=1;dashPattern=1 2;fillColor=none;" vertex="1" parent="1">
          <mxGeometry x="690" y="580" width="10" height="10" as="geometry" />
        </mxCell>
        <mxCell id="k5IW1HagH6-RW2qSPKCG-287" value="" style="rounded=0;whiteSpace=wrap;html=1;strokeColor=#CCCCCC;dashed=1;dashPattern=1 2;fillColor=none;" vertex="1" parent="1">
          <mxGeometry x="700" y="580" width="10" height="10" as="geometry" />
        </mxCell>
        <mxCell id="k5IW1HagH6-RW2qSPKCG-288" value="" style="rounded=0;whiteSpace=wrap;html=1;strokeColor=#CCCCCC;dashed=1;dashPattern=1 2;fillColor=none;" vertex="1" parent="1">
          <mxGeometry x="710" y="580" width="10" height="10" as="geometry" />
        </mxCell>
        <mxCell id="k5IW1HagH6-RW2qSPKCG-289" value="" style="rounded=0;whiteSpace=wrap;html=1;strokeColor=#CCCCCC;dashed=1;dashPattern=1 2;fillColor=none;" vertex="1" parent="1">
          <mxGeometry x="720" y="580" width="10" height="10" as="geometry" />
        </mxCell>
        <mxCell id="k5IW1HagH6-RW2qSPKCG-290" value="" style="rounded=0;whiteSpace=wrap;html=1;strokeColor=#CCCCCC;dashed=1;dashPattern=1 2;fillColor=none;" vertex="1" parent="1">
          <mxGeometry x="730" y="580" width="10" height="10" as="geometry" />
        </mxCell>
        <mxCell id="k5IW1HagH6-RW2qSPKCG-291" value="" style="rounded=0;whiteSpace=wrap;html=1;strokeColor=#CCCCCC;dashed=1;dashPattern=1 2;fillColor=none;" vertex="1" parent="1">
          <mxGeometry x="740" y="580" width="10" height="10" as="geometry" />
        </mxCell>
        <mxCell id="k5IW1HagH6-RW2qSPKCG-292" value="" style="rounded=0;whiteSpace=wrap;html=1;strokeColor=#CCCCCC;dashed=1;dashPattern=1 2;fillColor=none;" vertex="1" parent="1">
          <mxGeometry x="750" y="580" width="10" height="10" as="geometry" />
        </mxCell>
        <mxCell id="k5IW1HagH6-RW2qSPKCG-293" value="" style="rounded=0;whiteSpace=wrap;html=1;strokeColor=#CCCCCC;dashed=1;dashPattern=1 2;fillColor=none;" vertex="1" parent="1">
          <mxGeometry x="760" y="580" width="10" height="10" as="geometry" />
        </mxCell>
        <mxCell id="k5IW1HagH6-RW2qSPKCG-294" value="" style="rounded=0;whiteSpace=wrap;html=1;strokeColor=#CCCCCC;dashed=1;dashPattern=1 2;fillColor=none;" vertex="1" parent="1">
          <mxGeometry x="770" y="580" width="10" height="10" as="geometry" />
        </mxCell>
        <mxCell id="k5IW1HagH6-RW2qSPKCG-295" value="" style="rounded=0;whiteSpace=wrap;html=1;strokeColor=#CCCCCC;dashed=1;dashPattern=1 2;fillColor=none;" vertex="1" parent="1">
          <mxGeometry x="780" y="580" width="10" height="10" as="geometry" />
        </mxCell>
        <mxCell id="k5IW1HagH6-RW2qSPKCG-296" value="" style="rounded=0;whiteSpace=wrap;html=1;strokeColor=#CCCCCC;dashed=1;dashPattern=1 2;fillColor=#000000;" vertex="1" parent="1">
          <mxGeometry x="790" y="580" width="10" height="10" as="geometry" />
        </mxCell>
        <mxCell id="k5IW1HagH6-RW2qSPKCG-297" value="" style="rounded=0;whiteSpace=wrap;html=1;strokeColor=#CCCCCC;dashed=1;dashPattern=1 2;fillColor=none;" vertex="1" parent="1">
          <mxGeometry x="800" y="580" width="10" height="10" as="geometry" />
        </mxCell>
        <mxCell id="k5IW1HagH6-RW2qSPKCG-298" value="" style="rounded=0;whiteSpace=wrap;html=1;strokeColor=#CCCCCC;dashed=1;dashPattern=1 2;fillColor=none;" vertex="1" parent="1">
          <mxGeometry x="810" y="580" width="10" height="10" as="geometry" />
        </mxCell>
        <mxCell id="k5IW1HagH6-RW2qSPKCG-299" value="" style="rounded=0;whiteSpace=wrap;html=1;strokeColor=#CCCCCC;dashed=1;dashPattern=1 2;fillColor=none;" vertex="1" parent="1">
          <mxGeometry x="820" y="580" width="10" height="10" as="geometry" />
        </mxCell>
        <mxCell id="k5IW1HagH6-RW2qSPKCG-300" value="" style="rounded=0;whiteSpace=wrap;html=1;strokeColor=#CCCCCC;dashed=1;dashPattern=1 2;fillColor=none;" vertex="1" parent="1">
          <mxGeometry x="830" y="580" width="10" height="10" as="geometry" />
        </mxCell>
        <mxCell id="k5IW1HagH6-RW2qSPKCG-328" value="Rasterization" style="rounded=0;whiteSpace=wrap;html=1;" vertex="1" parent="1">
          <mxGeometry x="280" y="470" width="106" height="60" as="geometry" />
        </mxCell>
        <mxCell id="k5IW1HagH6-RW2qSPKCG-329" value="Projection to Bitmap" style="rounded=0;whiteSpace=wrap;html=1;" vertex="1" parent="1">
          <mxGeometry x="400" y="470" width="126" height="40" as="geometry" />
        </mxCell>
        <mxCell id="k5IW1HagH6-RW2qSPKCG-330" value="" style="rounded=0;whiteSpace=wrap;html=1;" vertex="1" parent="1">
          <mxGeometry x="270" y="630" width="270" height="160" as="geometry" />
        </mxCell>
        <mxCell id="k5IW1HagH6-RW2qSPKCG-331" value="Shading" style="rounded=0;whiteSpace=wrap;html=1;" vertex="1" parent="1">
          <mxGeometry x="400" y="640" width="126" height="40" as="geometry" />
        </mxCell>
        <mxCell id="k5IW1HagH6-RW2qSPKCG-332" value="" style="endArrow=none;html=1;rounded=0;entryX=0.32;entryY=0.583;entryDx=0;entryDy=0;entryPerimeter=0;exitX=0.2;exitY=0.833;exitDx=0;exitDy=0;exitPerimeter=0;" edge="1" parent="1">
          <mxGeometry width="50" height="50" relative="1" as="geometry">
            <mxPoint x="650" y="731.96" as="sourcePoint" />
            <mxPoint x="680" y="701.96" as="targetPoint" />
          </mxGeometry>
        </mxCell>
        <mxCell id="k5IW1HagH6-RW2qSPKCG-333" value="" style="endArrow=none;html=1;rounded=0;entryX=0.68;entryY=0.583;entryDx=0;entryDy=0;entryPerimeter=0;" edge="1" parent="1">
          <mxGeometry width="50" height="50" relative="1" as="geometry">
            <mxPoint x="800" y="732" as="sourcePoint" />
            <mxPoint x="770" y="701.96" as="targetPoint" />
          </mxGeometry>
        </mxCell>
        <mxCell id="k5IW1HagH6-RW2qSPKCG-334" value="" style="endArrow=none;html=1;rounded=0;entryX=0.68;entryY=0.583;entryDx=0;entryDy=0;entryPerimeter=0;" edge="1" parent="1">
          <mxGeometry width="50" height="50" relative="1" as="geometry">
            <mxPoint x="680" y="702" as="sourcePoint" />
            <mxPoint x="770" y="701.96" as="targetPoint" />
          </mxGeometry>
        </mxCell>
        <mxCell id="k5IW1HagH6-RW2qSPKCG-335" value="" style="endArrow=none;html=1;rounded=0;entryX=0.8;entryY=0.833;entryDx=0;entryDy=0;entryPerimeter=0;" edge="1" parent="1">
          <mxGeometry width="50" height="50" relative="1" as="geometry">
            <mxPoint x="650" y="732" as="sourcePoint" />
            <mxPoint x="800" y="731.96" as="targetPoint" />
          </mxGeometry>
        </mxCell>
        <mxCell id="k5IW1HagH6-RW2qSPKCG-336" value="" style="endArrow=none;html=1;rounded=0;exitX=0.8;exitY=1.02;exitDx=0;exitDy=0;exitPerimeter=0;" edge="1" parent="1">
          <mxGeometry width="50" height="50" relative="1" as="geometry">
            <mxPoint x="800" y="754.4" as="sourcePoint" />
            <mxPoint x="800" y="732" as="targetPoint" />
          </mxGeometry>
        </mxCell>
        <mxCell id="k5IW1HagH6-RW2qSPKCG-337" value="" style="endArrow=none;html=1;rounded=0;" edge="1" parent="1">
          <mxGeometry width="50" height="50" relative="1" as="geometry">
            <mxPoint x="650" y="732" as="sourcePoint" />
            <mxPoint x="650" y="752" as="targetPoint" />
          </mxGeometry>
        </mxCell>
        <mxCell id="k5IW1HagH6-RW2qSPKCG-338" value="" style="rounded=0;whiteSpace=wrap;html=1;strokeColor=#CCCCCC;dashed=1;dashPattern=1 2;fillColor=none;" vertex="1" parent="1">
          <mxGeometry x="600" y="650" width="10" height="10" as="geometry" />
        </mxCell>
        <mxCell id="k5IW1HagH6-RW2qSPKCG-339" value="" style="rounded=0;whiteSpace=wrap;html=1;strokeColor=#CCCCCC;dashed=1;dashPattern=1 2;fillColor=none;" vertex="1" parent="1">
          <mxGeometry x="610" y="650" width="10" height="10" as="geometry" />
        </mxCell>
        <mxCell id="k5IW1HagH6-RW2qSPKCG-340" value="" style="rounded=0;whiteSpace=wrap;html=1;strokeColor=#CCCCCC;dashed=1;dashPattern=1 2;fillColor=none;" vertex="1" parent="1">
          <mxGeometry x="620" y="650" width="10" height="10" as="geometry" />
        </mxCell>
        <mxCell id="k5IW1HagH6-RW2qSPKCG-341" value="" style="rounded=0;whiteSpace=wrap;html=1;strokeColor=#CCCCCC;dashed=1;dashPattern=1 2;fillColor=none;" vertex="1" parent="1">
          <mxGeometry x="630" y="650" width="10" height="10" as="geometry" />
        </mxCell>
        <mxCell id="k5IW1HagH6-RW2qSPKCG-342" value="" style="rounded=0;whiteSpace=wrap;html=1;strokeColor=#CCCCCC;dashed=1;dashPattern=1 2;fillColor=none;" vertex="1" parent="1">
          <mxGeometry x="640" y="650" width="10" height="10" as="geometry" />
        </mxCell>
        <mxCell id="k5IW1HagH6-RW2qSPKCG-343" value="" style="rounded=0;whiteSpace=wrap;html=1;strokeColor=#CCCCCC;dashed=1;dashPattern=1 2;fillColor=none;" vertex="1" parent="1">
          <mxGeometry x="650" y="650" width="10" height="10" as="geometry" />
        </mxCell>
        <mxCell id="k5IW1HagH6-RW2qSPKCG-344" value="" style="rounded=0;whiteSpace=wrap;html=1;strokeColor=#CCCCCC;dashed=1;dashPattern=1 2;fillColor=none;" vertex="1" parent="1">
          <mxGeometry x="660" y="650" width="10" height="10" as="geometry" />
        </mxCell>
        <mxCell id="k5IW1HagH6-RW2qSPKCG-345" value="" style="rounded=0;whiteSpace=wrap;html=1;strokeColor=#CCCCCC;dashed=1;dashPattern=1 2;fillColor=none;" vertex="1" parent="1">
          <mxGeometry x="670" y="650" width="10" height="10" as="geometry" />
        </mxCell>
        <mxCell id="k5IW1HagH6-RW2qSPKCG-346" value="" style="rounded=0;whiteSpace=wrap;html=1;strokeColor=#CCCCCC;dashed=1;dashPattern=1 2;fillColor=none;" vertex="1" parent="1">
          <mxGeometry x="680" y="650" width="10" height="10" as="geometry" />
        </mxCell>
        <mxCell id="k5IW1HagH6-RW2qSPKCG-347" value="" style="rounded=0;whiteSpace=wrap;html=1;strokeColor=#CCCCCC;dashed=1;dashPattern=1 2;fillColor=none;" vertex="1" parent="1">
          <mxGeometry x="690" y="650" width="10" height="10" as="geometry" />
        </mxCell>
        <mxCell id="k5IW1HagH6-RW2qSPKCG-348" value="" style="rounded=0;whiteSpace=wrap;html=1;strokeColor=#CCCCCC;dashed=1;dashPattern=1 2;fillColor=none;" vertex="1" parent="1">
          <mxGeometry x="700" y="650" width="10" height="10" as="geometry" />
        </mxCell>
        <mxCell id="k5IW1HagH6-RW2qSPKCG-349" value="" style="rounded=0;whiteSpace=wrap;html=1;strokeColor=#CCCCCC;dashed=1;dashPattern=1 2;fillColor=none;" vertex="1" parent="1">
          <mxGeometry x="710" y="650" width="10" height="10" as="geometry" />
        </mxCell>
        <mxCell id="k5IW1HagH6-RW2qSPKCG-350" value="" style="rounded=0;whiteSpace=wrap;html=1;strokeColor=#CCCCCC;dashed=1;dashPattern=1 2;fillColor=none;" vertex="1" parent="1">
          <mxGeometry x="720" y="650" width="10" height="10" as="geometry" />
        </mxCell>
        <mxCell id="k5IW1HagH6-RW2qSPKCG-351" value="" style="rounded=0;whiteSpace=wrap;html=1;strokeColor=#CCCCCC;dashed=1;dashPattern=1 2;fillColor=none;" vertex="1" parent="1">
          <mxGeometry x="730" y="650" width="10" height="10" as="geometry" />
        </mxCell>
        <mxCell id="k5IW1HagH6-RW2qSPKCG-352" value="" style="rounded=0;whiteSpace=wrap;html=1;strokeColor=#CCCCCC;dashed=1;dashPattern=1 2;fillColor=none;" vertex="1" parent="1">
          <mxGeometry x="740" y="650" width="10" height="10" as="geometry" />
        </mxCell>
        <mxCell id="k5IW1HagH6-RW2qSPKCG-353" value="" style="rounded=0;whiteSpace=wrap;html=1;strokeColor=#CCCCCC;dashed=1;dashPattern=1 2;fillColor=none;" vertex="1" parent="1">
          <mxGeometry x="750" y="650" width="10" height="10" as="geometry" />
        </mxCell>
        <mxCell id="k5IW1HagH6-RW2qSPKCG-354" value="" style="rounded=0;whiteSpace=wrap;html=1;strokeColor=#CCCCCC;dashed=1;dashPattern=1 2;fillColor=none;" vertex="1" parent="1">
          <mxGeometry x="760" y="650" width="10" height="10" as="geometry" />
        </mxCell>
        <mxCell id="k5IW1HagH6-RW2qSPKCG-355" value="" style="rounded=0;whiteSpace=wrap;html=1;strokeColor=#CCCCCC;dashed=1;dashPattern=1 2;fillColor=none;" vertex="1" parent="1">
          <mxGeometry x="770" y="650" width="10" height="10" as="geometry" />
        </mxCell>
        <mxCell id="k5IW1HagH6-RW2qSPKCG-356" value="" style="rounded=0;whiteSpace=wrap;html=1;strokeColor=#CCCCCC;dashed=1;dashPattern=1 2;fillColor=none;" vertex="1" parent="1">
          <mxGeometry x="780" y="650" width="10" height="10" as="geometry" />
        </mxCell>
        <mxCell id="k5IW1HagH6-RW2qSPKCG-357" value="" style="rounded=0;whiteSpace=wrap;html=1;strokeColor=#CCCCCC;dashed=1;dashPattern=1 2;fillColor=none;" vertex="1" parent="1">
          <mxGeometry x="790" y="650" width="10" height="10" as="geometry" />
        </mxCell>
        <mxCell id="k5IW1HagH6-RW2qSPKCG-358" value="" style="rounded=0;whiteSpace=wrap;html=1;strokeColor=#CCCCCC;dashed=1;dashPattern=1 2;fillColor=none;" vertex="1" parent="1">
          <mxGeometry x="800" y="650" width="10" height="10" as="geometry" />
        </mxCell>
        <mxCell id="k5IW1HagH6-RW2qSPKCG-359" value="" style="rounded=0;whiteSpace=wrap;html=1;strokeColor=#CCCCCC;dashed=1;dashPattern=1 2;fillColor=none;" vertex="1" parent="1">
          <mxGeometry x="810" y="650" width="10" height="10" as="geometry" />
        </mxCell>
        <mxCell id="k5IW1HagH6-RW2qSPKCG-360" value="" style="rounded=0;whiteSpace=wrap;html=1;strokeColor=#CCCCCC;dashed=1;dashPattern=1 2;fillColor=none;" vertex="1" parent="1">
          <mxGeometry x="820" y="650" width="10" height="10" as="geometry" />
        </mxCell>
        <mxCell id="k5IW1HagH6-RW2qSPKCG-361" value="" style="rounded=0;whiteSpace=wrap;html=1;strokeColor=#CCCCCC;dashed=1;dashPattern=1 2;fillColor=none;" vertex="1" parent="1">
          <mxGeometry x="830" y="650" width="10" height="10" as="geometry" />
        </mxCell>
        <mxCell id="k5IW1HagH6-RW2qSPKCG-362" value="" style="rounded=0;whiteSpace=wrap;html=1;strokeColor=#CCCCCC;dashed=1;dashPattern=1 2;fillColor=none;" vertex="1" parent="1">
          <mxGeometry x="600" y="660" width="10" height="10" as="geometry" />
        </mxCell>
        <mxCell id="k5IW1HagH6-RW2qSPKCG-363" value="" style="rounded=0;whiteSpace=wrap;html=1;strokeColor=#CCCCCC;dashed=1;dashPattern=1 2;fillColor=none;" vertex="1" parent="1">
          <mxGeometry x="610" y="660" width="10" height="10" as="geometry" />
        </mxCell>
        <mxCell id="k5IW1HagH6-RW2qSPKCG-364" value="" style="rounded=0;whiteSpace=wrap;html=1;strokeColor=#CCCCCC;dashed=1;dashPattern=1 2;fillColor=none;" vertex="1" parent="1">
          <mxGeometry x="620" y="660" width="10" height="10" as="geometry" />
        </mxCell>
        <mxCell id="k5IW1HagH6-RW2qSPKCG-365" value="" style="rounded=0;whiteSpace=wrap;html=1;strokeColor=#CCCCCC;dashed=1;dashPattern=1 2;fillColor=none;" vertex="1" parent="1">
          <mxGeometry x="630" y="660" width="10" height="10" as="geometry" />
        </mxCell>
        <mxCell id="k5IW1HagH6-RW2qSPKCG-366" value="" style="rounded=0;whiteSpace=wrap;html=1;strokeColor=#CCCCCC;dashed=1;dashPattern=1 2;fillColor=none;" vertex="1" parent="1">
          <mxGeometry x="640" y="660" width="10" height="10" as="geometry" />
        </mxCell>
        <mxCell id="k5IW1HagH6-RW2qSPKCG-367" value="" style="rounded=0;whiteSpace=wrap;html=1;strokeColor=#CCCCCC;dashed=1;dashPattern=1 2;fillColor=none;" vertex="1" parent="1">
          <mxGeometry x="650" y="660" width="10" height="10" as="geometry" />
        </mxCell>
        <mxCell id="k5IW1HagH6-RW2qSPKCG-368" value="" style="rounded=0;whiteSpace=wrap;html=1;strokeColor=#CCCCCC;dashed=1;dashPattern=1 2;fillColor=none;" vertex="1" parent="1">
          <mxGeometry x="660" y="660" width="10" height="10" as="geometry" />
        </mxCell>
        <mxCell id="k5IW1HagH6-RW2qSPKCG-369" value="" style="rounded=0;whiteSpace=wrap;html=1;strokeColor=#CCCCCC;dashed=1;dashPattern=1 2;fillColor=none;" vertex="1" parent="1">
          <mxGeometry x="670" y="660" width="10" height="10" as="geometry" />
        </mxCell>
        <mxCell id="k5IW1HagH6-RW2qSPKCG-370" value="" style="rounded=0;whiteSpace=wrap;html=1;strokeColor=#CCCCCC;dashed=1;dashPattern=1 2;fillColor=none;" vertex="1" parent="1">
          <mxGeometry x="680" y="660" width="10" height="10" as="geometry" />
        </mxCell>
        <mxCell id="k5IW1HagH6-RW2qSPKCG-371" value="" style="rounded=0;whiteSpace=wrap;html=1;strokeColor=#CCCCCC;dashed=1;dashPattern=1 2;fillColor=none;" vertex="1" parent="1">
          <mxGeometry x="690" y="660" width="10" height="10" as="geometry" />
        </mxCell>
        <mxCell id="k5IW1HagH6-RW2qSPKCG-372" value="" style="rounded=0;whiteSpace=wrap;html=1;strokeColor=#CCCCCC;dashed=1;dashPattern=1 2;fillColor=none;" vertex="1" parent="1">
          <mxGeometry x="700" y="660" width="10" height="10" as="geometry" />
        </mxCell>
        <mxCell id="k5IW1HagH6-RW2qSPKCG-373" value="" style="rounded=0;whiteSpace=wrap;html=1;strokeColor=#CCCCCC;dashed=1;dashPattern=1 2;fillColor=none;" vertex="1" parent="1">
          <mxGeometry x="710" y="660" width="10" height="10" as="geometry" />
        </mxCell>
        <mxCell id="k5IW1HagH6-RW2qSPKCG-374" value="" style="rounded=0;whiteSpace=wrap;html=1;strokeColor=#CCCCCC;dashed=1;dashPattern=1 2;fillColor=none;" vertex="1" parent="1">
          <mxGeometry x="720" y="660" width="10" height="10" as="geometry" />
        </mxCell>
        <mxCell id="k5IW1HagH6-RW2qSPKCG-375" value="" style="rounded=0;whiteSpace=wrap;html=1;strokeColor=#CCCCCC;dashed=1;dashPattern=1 2;fillColor=none;" vertex="1" parent="1">
          <mxGeometry x="730" y="660" width="10" height="10" as="geometry" />
        </mxCell>
        <mxCell id="k5IW1HagH6-RW2qSPKCG-376" value="" style="rounded=0;whiteSpace=wrap;html=1;strokeColor=#CCCCCC;dashed=1;dashPattern=1 2;fillColor=none;" vertex="1" parent="1">
          <mxGeometry x="740" y="660" width="10" height="10" as="geometry" />
        </mxCell>
        <mxCell id="k5IW1HagH6-RW2qSPKCG-377" value="" style="rounded=0;whiteSpace=wrap;html=1;strokeColor=#CCCCCC;dashed=1;dashPattern=1 2;fillColor=none;" vertex="1" parent="1">
          <mxGeometry x="750" y="660" width="10" height="10" as="geometry" />
        </mxCell>
        <mxCell id="k5IW1HagH6-RW2qSPKCG-378" value="" style="rounded=0;whiteSpace=wrap;html=1;strokeColor=#CCCCCC;dashed=1;dashPattern=1 2;fillColor=none;" vertex="1" parent="1">
          <mxGeometry x="760" y="660" width="10" height="10" as="geometry" />
        </mxCell>
        <mxCell id="k5IW1HagH6-RW2qSPKCG-379" value="" style="rounded=0;whiteSpace=wrap;html=1;strokeColor=#CCCCCC;dashed=1;dashPattern=1 2;fillColor=none;" vertex="1" parent="1">
          <mxGeometry x="770" y="660" width="10" height="10" as="geometry" />
        </mxCell>
        <mxCell id="k5IW1HagH6-RW2qSPKCG-380" value="" style="rounded=0;whiteSpace=wrap;html=1;strokeColor=#CCCCCC;dashed=1;dashPattern=1 2;fillColor=none;" vertex="1" parent="1">
          <mxGeometry x="780" y="660" width="10" height="10" as="geometry" />
        </mxCell>
        <mxCell id="k5IW1HagH6-RW2qSPKCG-381" value="" style="rounded=0;whiteSpace=wrap;html=1;strokeColor=#CCCCCC;dashed=1;dashPattern=1 2;fillColor=none;" vertex="1" parent="1">
          <mxGeometry x="790" y="660" width="10" height="10" as="geometry" />
        </mxCell>
        <mxCell id="k5IW1HagH6-RW2qSPKCG-382" value="" style="rounded=0;whiteSpace=wrap;html=1;strokeColor=#CCCCCC;dashed=1;dashPattern=1 2;fillColor=none;" vertex="1" parent="1">
          <mxGeometry x="800" y="660" width="10" height="10" as="geometry" />
        </mxCell>
        <mxCell id="k5IW1HagH6-RW2qSPKCG-383" value="" style="rounded=0;whiteSpace=wrap;html=1;strokeColor=#CCCCCC;dashed=1;dashPattern=1 2;fillColor=none;" vertex="1" parent="1">
          <mxGeometry x="810" y="660" width="10" height="10" as="geometry" />
        </mxCell>
        <mxCell id="k5IW1HagH6-RW2qSPKCG-384" value="" style="rounded=0;whiteSpace=wrap;html=1;strokeColor=#CCCCCC;dashed=1;dashPattern=1 2;fillColor=none;" vertex="1" parent="1">
          <mxGeometry x="820" y="660" width="10" height="10" as="geometry" />
        </mxCell>
        <mxCell id="k5IW1HagH6-RW2qSPKCG-385" value="" style="rounded=0;whiteSpace=wrap;html=1;strokeColor=#CCCCCC;dashed=1;dashPattern=1 2;fillColor=none;" vertex="1" parent="1">
          <mxGeometry x="830" y="660" width="10" height="10" as="geometry" />
        </mxCell>
        <mxCell id="k5IW1HagH6-RW2qSPKCG-386" value="" style="rounded=0;whiteSpace=wrap;html=1;strokeColor=#CCCCCC;dashed=1;dashPattern=1 2;fillColor=none;" vertex="1" parent="1">
          <mxGeometry x="600" y="670" width="10" height="10" as="geometry" />
        </mxCell>
        <mxCell id="k5IW1HagH6-RW2qSPKCG-387" value="" style="rounded=0;whiteSpace=wrap;html=1;strokeColor=#CCCCCC;dashed=1;dashPattern=1 2;fillColor=none;" vertex="1" parent="1">
          <mxGeometry x="610" y="670" width="10" height="10" as="geometry" />
        </mxCell>
        <mxCell id="k5IW1HagH6-RW2qSPKCG-388" value="" style="rounded=0;whiteSpace=wrap;html=1;strokeColor=#CCCCCC;dashed=1;dashPattern=1 2;fillColor=none;" vertex="1" parent="1">
          <mxGeometry x="620" y="670" width="10" height="10" as="geometry" />
        </mxCell>
        <mxCell id="k5IW1HagH6-RW2qSPKCG-389" value="" style="rounded=0;whiteSpace=wrap;html=1;strokeColor=#CCCCCC;dashed=1;dashPattern=1 2;fillColor=none;" vertex="1" parent="1">
          <mxGeometry x="630" y="670" width="10" height="10" as="geometry" />
        </mxCell>
        <mxCell id="k5IW1HagH6-RW2qSPKCG-390" value="" style="rounded=0;whiteSpace=wrap;html=1;strokeColor=#CCCCCC;dashed=1;dashPattern=1 2;fillColor=none;" vertex="1" parent="1">
          <mxGeometry x="640" y="670" width="10" height="10" as="geometry" />
        </mxCell>
        <mxCell id="k5IW1HagH6-RW2qSPKCG-391" value="" style="rounded=0;whiteSpace=wrap;html=1;strokeColor=#CCCCCC;dashed=1;dashPattern=1 2;fillColor=none;" vertex="1" parent="1">
          <mxGeometry x="650" y="670" width="10" height="10" as="geometry" />
        </mxCell>
        <mxCell id="k5IW1HagH6-RW2qSPKCG-392" value="" style="rounded=0;whiteSpace=wrap;html=1;strokeColor=#CCCCCC;dashed=1;dashPattern=1 2;fillColor=none;" vertex="1" parent="1">
          <mxGeometry x="660" y="670" width="10" height="10" as="geometry" />
        </mxCell>
        <mxCell id="k5IW1HagH6-RW2qSPKCG-393" value="" style="rounded=0;whiteSpace=wrap;html=1;strokeColor=#CCCCCC;dashed=1;dashPattern=1 2;fillColor=none;" vertex="1" parent="1">
          <mxGeometry x="670" y="670" width="10" height="10" as="geometry" />
        </mxCell>
        <mxCell id="k5IW1HagH6-RW2qSPKCG-394" value="" style="rounded=0;whiteSpace=wrap;html=1;strokeColor=#CCCCCC;dashed=1;dashPattern=1 2;fillColor=none;" vertex="1" parent="1">
          <mxGeometry x="680" y="670" width="10" height="10" as="geometry" />
        </mxCell>
        <mxCell id="k5IW1HagH6-RW2qSPKCG-395" value="" style="rounded=0;whiteSpace=wrap;html=1;strokeColor=#CCCCCC;dashed=1;dashPattern=1 2;fillColor=none;" vertex="1" parent="1">
          <mxGeometry x="690" y="670" width="10" height="10" as="geometry" />
        </mxCell>
        <mxCell id="k5IW1HagH6-RW2qSPKCG-396" value="" style="rounded=0;whiteSpace=wrap;html=1;strokeColor=#CCCCCC;dashed=1;dashPattern=1 2;fillColor=none;" vertex="1" parent="1">
          <mxGeometry x="700" y="670" width="10" height="10" as="geometry" />
        </mxCell>
        <mxCell id="k5IW1HagH6-RW2qSPKCG-397" value="" style="rounded=0;whiteSpace=wrap;html=1;strokeColor=#CCCCCC;dashed=1;dashPattern=1 2;fillColor=none;" vertex="1" parent="1">
          <mxGeometry x="710" y="670" width="10" height="10" as="geometry" />
        </mxCell>
        <mxCell id="k5IW1HagH6-RW2qSPKCG-398" value="" style="rounded=0;whiteSpace=wrap;html=1;strokeColor=#CCCCCC;dashed=1;dashPattern=1 2;fillColor=none;" vertex="1" parent="1">
          <mxGeometry x="720" y="670" width="10" height="10" as="geometry" />
        </mxCell>
        <mxCell id="k5IW1HagH6-RW2qSPKCG-399" value="" style="rounded=0;whiteSpace=wrap;html=1;strokeColor=#CCCCCC;dashed=1;dashPattern=1 2;fillColor=none;" vertex="1" parent="1">
          <mxGeometry x="730" y="670" width="10" height="10" as="geometry" />
        </mxCell>
        <mxCell id="k5IW1HagH6-RW2qSPKCG-400" value="" style="rounded=0;whiteSpace=wrap;html=1;strokeColor=#CCCCCC;dashed=1;dashPattern=1 2;fillColor=none;" vertex="1" parent="1">
          <mxGeometry x="740" y="670" width="10" height="10" as="geometry" />
        </mxCell>
        <mxCell id="k5IW1HagH6-RW2qSPKCG-401" value="" style="rounded=0;whiteSpace=wrap;html=1;strokeColor=#CCCCCC;dashed=1;dashPattern=1 2;fillColor=none;" vertex="1" parent="1">
          <mxGeometry x="750" y="670" width="10" height="10" as="geometry" />
        </mxCell>
        <mxCell id="k5IW1HagH6-RW2qSPKCG-402" value="" style="rounded=0;whiteSpace=wrap;html=1;strokeColor=#CCCCCC;dashed=1;dashPattern=1 2;fillColor=none;" vertex="1" parent="1">
          <mxGeometry x="760" y="670" width="10" height="10" as="geometry" />
        </mxCell>
        <mxCell id="k5IW1HagH6-RW2qSPKCG-403" value="" style="rounded=0;whiteSpace=wrap;html=1;strokeColor=#CCCCCC;dashed=1;dashPattern=1 2;fillColor=none;" vertex="1" parent="1">
          <mxGeometry x="770" y="670" width="10" height="10" as="geometry" />
        </mxCell>
        <mxCell id="k5IW1HagH6-RW2qSPKCG-404" value="" style="rounded=0;whiteSpace=wrap;html=1;strokeColor=#CCCCCC;dashed=1;dashPattern=1 2;fillColor=none;" vertex="1" parent="1">
          <mxGeometry x="780" y="670" width="10" height="10" as="geometry" />
        </mxCell>
        <mxCell id="k5IW1HagH6-RW2qSPKCG-405" value="" style="rounded=0;whiteSpace=wrap;html=1;strokeColor=#CCCCCC;dashed=1;dashPattern=1 2;fillColor=none;" vertex="1" parent="1">
          <mxGeometry x="790" y="670" width="10" height="10" as="geometry" />
        </mxCell>
        <mxCell id="k5IW1HagH6-RW2qSPKCG-406" value="" style="rounded=0;whiteSpace=wrap;html=1;strokeColor=#CCCCCC;dashed=1;dashPattern=1 2;fillColor=none;" vertex="1" parent="1">
          <mxGeometry x="800" y="670" width="10" height="10" as="geometry" />
        </mxCell>
        <mxCell id="k5IW1HagH6-RW2qSPKCG-407" value="" style="rounded=0;whiteSpace=wrap;html=1;strokeColor=#CCCCCC;dashed=1;dashPattern=1 2;fillColor=none;" vertex="1" parent="1">
          <mxGeometry x="810" y="670" width="10" height="10" as="geometry" />
        </mxCell>
        <mxCell id="k5IW1HagH6-RW2qSPKCG-408" value="" style="rounded=0;whiteSpace=wrap;html=1;strokeColor=#CCCCCC;dashed=1;dashPattern=1 2;fillColor=none;" vertex="1" parent="1">
          <mxGeometry x="820" y="670" width="10" height="10" as="geometry" />
        </mxCell>
        <mxCell id="k5IW1HagH6-RW2qSPKCG-409" value="" style="rounded=0;whiteSpace=wrap;html=1;strokeColor=#CCCCCC;dashed=1;dashPattern=1 2;fillColor=none;" vertex="1" parent="1">
          <mxGeometry x="830" y="670" width="10" height="10" as="geometry" />
        </mxCell>
        <mxCell id="k5IW1HagH6-RW2qSPKCG-410" value="" style="rounded=0;whiteSpace=wrap;html=1;strokeColor=#CCCCCC;dashed=1;dashPattern=1 2;fillColor=none;" vertex="1" parent="1">
          <mxGeometry x="600" y="680" width="10" height="10" as="geometry" />
        </mxCell>
        <mxCell id="k5IW1HagH6-RW2qSPKCG-411" value="" style="rounded=0;whiteSpace=wrap;html=1;strokeColor=#CCCCCC;dashed=1;dashPattern=1 2;fillColor=none;" vertex="1" parent="1">
          <mxGeometry x="610" y="680" width="10" height="10" as="geometry" />
        </mxCell>
        <mxCell id="k5IW1HagH6-RW2qSPKCG-412" value="" style="rounded=0;whiteSpace=wrap;html=1;strokeColor=#CCCCCC;dashed=1;dashPattern=1 2;fillColor=none;" vertex="1" parent="1">
          <mxGeometry x="620" y="680" width="10" height="10" as="geometry" />
        </mxCell>
        <mxCell id="k5IW1HagH6-RW2qSPKCG-413" value="" style="rounded=0;whiteSpace=wrap;html=1;strokeColor=#CCCCCC;dashed=1;dashPattern=1 2;fillColor=none;" vertex="1" parent="1">
          <mxGeometry x="630" y="680" width="10" height="10" as="geometry" />
        </mxCell>
        <mxCell id="k5IW1HagH6-RW2qSPKCG-414" value="" style="rounded=0;whiteSpace=wrap;html=1;strokeColor=#CCCCCC;dashed=1;dashPattern=1 2;fillColor=none;" vertex="1" parent="1">
          <mxGeometry x="640" y="680" width="10" height="10" as="geometry" />
        </mxCell>
        <mxCell id="k5IW1HagH6-RW2qSPKCG-415" value="" style="rounded=0;whiteSpace=wrap;html=1;strokeColor=#CCCCCC;dashed=1;dashPattern=1 2;fillColor=none;" vertex="1" parent="1">
          <mxGeometry x="650" y="680" width="10" height="10" as="geometry" />
        </mxCell>
        <mxCell id="k5IW1HagH6-RW2qSPKCG-416" value="" style="rounded=0;whiteSpace=wrap;html=1;strokeColor=#CCCCCC;dashed=1;dashPattern=1 2;fillColor=none;" vertex="1" parent="1">
          <mxGeometry x="660" y="680" width="10" height="10" as="geometry" />
        </mxCell>
        <mxCell id="k5IW1HagH6-RW2qSPKCG-417" value="" style="rounded=0;whiteSpace=wrap;html=1;strokeColor=#CCCCCC;dashed=1;dashPattern=1 2;fillColor=none;" vertex="1" parent="1">
          <mxGeometry x="670" y="680" width="10" height="10" as="geometry" />
        </mxCell>
        <mxCell id="k5IW1HagH6-RW2qSPKCG-418" value="" style="rounded=0;whiteSpace=wrap;html=1;strokeColor=#CCCCCC;dashed=1;dashPattern=1 2;fillColor=none;" vertex="1" parent="1">
          <mxGeometry x="680" y="680" width="10" height="10" as="geometry" />
        </mxCell>
        <mxCell id="k5IW1HagH6-RW2qSPKCG-419" value="" style="rounded=0;whiteSpace=wrap;html=1;strokeColor=#CCCCCC;dashed=1;dashPattern=1 2;fillColor=none;" vertex="1" parent="1">
          <mxGeometry x="690" y="680" width="10" height="10" as="geometry" />
        </mxCell>
        <mxCell id="k5IW1HagH6-RW2qSPKCG-420" value="" style="rounded=0;whiteSpace=wrap;html=1;strokeColor=#CCCCCC;dashed=1;dashPattern=1 2;fillColor=none;" vertex="1" parent="1">
          <mxGeometry x="700" y="680" width="10" height="10" as="geometry" />
        </mxCell>
        <mxCell id="k5IW1HagH6-RW2qSPKCG-421" value="" style="rounded=0;whiteSpace=wrap;html=1;strokeColor=#CCCCCC;dashed=1;dashPattern=1 2;fillColor=none;" vertex="1" parent="1">
          <mxGeometry x="710" y="680" width="10" height="10" as="geometry" />
        </mxCell>
        <mxCell id="k5IW1HagH6-RW2qSPKCG-422" value="" style="rounded=0;whiteSpace=wrap;html=1;strokeColor=#CCCCCC;dashed=1;dashPattern=1 2;fillColor=none;" vertex="1" parent="1">
          <mxGeometry x="720" y="680" width="10" height="10" as="geometry" />
        </mxCell>
        <mxCell id="k5IW1HagH6-RW2qSPKCG-423" value="" style="rounded=0;whiteSpace=wrap;html=1;strokeColor=#CCCCCC;dashed=1;dashPattern=1 2;fillColor=none;" vertex="1" parent="1">
          <mxGeometry x="730" y="680" width="10" height="10" as="geometry" />
        </mxCell>
        <mxCell id="k5IW1HagH6-RW2qSPKCG-424" value="" style="rounded=0;whiteSpace=wrap;html=1;strokeColor=#CCCCCC;dashed=1;dashPattern=1 2;fillColor=none;" vertex="1" parent="1">
          <mxGeometry x="740" y="680" width="10" height="10" as="geometry" />
        </mxCell>
        <mxCell id="k5IW1HagH6-RW2qSPKCG-425" value="" style="rounded=0;whiteSpace=wrap;html=1;strokeColor=#CCCCCC;dashed=1;dashPattern=1 2;fillColor=none;" vertex="1" parent="1">
          <mxGeometry x="750" y="680" width="10" height="10" as="geometry" />
        </mxCell>
        <mxCell id="k5IW1HagH6-RW2qSPKCG-426" value="" style="rounded=0;whiteSpace=wrap;html=1;strokeColor=#CCCCCC;dashed=1;dashPattern=1 2;fillColor=none;" vertex="1" parent="1">
          <mxGeometry x="760" y="680" width="10" height="10" as="geometry" />
        </mxCell>
        <mxCell id="k5IW1HagH6-RW2qSPKCG-427" value="" style="rounded=0;whiteSpace=wrap;html=1;strokeColor=#CCCCCC;dashed=1;dashPattern=1 2;fillColor=none;" vertex="1" parent="1">
          <mxGeometry x="770" y="680" width="10" height="10" as="geometry" />
        </mxCell>
        <mxCell id="k5IW1HagH6-RW2qSPKCG-428" value="" style="rounded=0;whiteSpace=wrap;html=1;strokeColor=#CCCCCC;dashed=1;dashPattern=1 2;fillColor=none;" vertex="1" parent="1">
          <mxGeometry x="780" y="680" width="10" height="10" as="geometry" />
        </mxCell>
        <mxCell id="k5IW1HagH6-RW2qSPKCG-429" value="" style="rounded=0;whiteSpace=wrap;html=1;strokeColor=#CCCCCC;dashed=1;dashPattern=1 2;fillColor=none;" vertex="1" parent="1">
          <mxGeometry x="790" y="680" width="10" height="10" as="geometry" />
        </mxCell>
        <mxCell id="k5IW1HagH6-RW2qSPKCG-430" value="" style="rounded=0;whiteSpace=wrap;html=1;strokeColor=#CCCCCC;dashed=1;dashPattern=1 2;fillColor=none;" vertex="1" parent="1">
          <mxGeometry x="800" y="680" width="10" height="10" as="geometry" />
        </mxCell>
        <mxCell id="k5IW1HagH6-RW2qSPKCG-431" value="" style="rounded=0;whiteSpace=wrap;html=1;strokeColor=#CCCCCC;dashed=1;dashPattern=1 2;fillColor=none;" vertex="1" parent="1">
          <mxGeometry x="810" y="680" width="10" height="10" as="geometry" />
        </mxCell>
        <mxCell id="k5IW1HagH6-RW2qSPKCG-432" value="" style="rounded=0;whiteSpace=wrap;html=1;strokeColor=#CCCCCC;dashed=1;dashPattern=1 2;fillColor=none;" vertex="1" parent="1">
          <mxGeometry x="820" y="680" width="10" height="10" as="geometry" />
        </mxCell>
        <mxCell id="k5IW1HagH6-RW2qSPKCG-433" value="" style="rounded=0;whiteSpace=wrap;html=1;strokeColor=#CCCCCC;dashed=1;dashPattern=1 2;fillColor=none;" vertex="1" parent="1">
          <mxGeometry x="830" y="680" width="10" height="10" as="geometry" />
        </mxCell>
        <mxCell id="k5IW1HagH6-RW2qSPKCG-434" value="" style="rounded=0;whiteSpace=wrap;html=1;strokeColor=#CCCCCC;dashed=1;dashPattern=1 2;fillColor=none;" vertex="1" parent="1">
          <mxGeometry x="600" y="690" width="10" height="10" as="geometry" />
        </mxCell>
        <mxCell id="k5IW1HagH6-RW2qSPKCG-435" value="" style="rounded=0;whiteSpace=wrap;html=1;strokeColor=#CCCCCC;dashed=1;dashPattern=1 2;fillColor=none;" vertex="1" parent="1">
          <mxGeometry x="610" y="690" width="10" height="10" as="geometry" />
        </mxCell>
        <mxCell id="k5IW1HagH6-RW2qSPKCG-436" value="" style="rounded=0;whiteSpace=wrap;html=1;strokeColor=#CCCCCC;dashed=1;dashPattern=1 2;fillColor=none;" vertex="1" parent="1">
          <mxGeometry x="620" y="690" width="10" height="10" as="geometry" />
        </mxCell>
        <mxCell id="k5IW1HagH6-RW2qSPKCG-437" value="" style="rounded=0;whiteSpace=wrap;html=1;strokeColor=#CCCCCC;dashed=1;dashPattern=1 2;fillColor=none;" vertex="1" parent="1">
          <mxGeometry x="630" y="690" width="10" height="10" as="geometry" />
        </mxCell>
        <mxCell id="k5IW1HagH6-RW2qSPKCG-438" value="" style="rounded=0;whiteSpace=wrap;html=1;strokeColor=#CCCCCC;dashed=1;dashPattern=1 2;fillColor=none;" vertex="1" parent="1">
          <mxGeometry x="640" y="690" width="10" height="10" as="geometry" />
        </mxCell>
        <mxCell id="k5IW1HagH6-RW2qSPKCG-439" value="" style="rounded=0;whiteSpace=wrap;html=1;strokeColor=#CCCCCC;dashed=1;dashPattern=1 2;fillColor=none;" vertex="1" parent="1">
          <mxGeometry x="650" y="690" width="10" height="10" as="geometry" />
        </mxCell>
        <mxCell id="k5IW1HagH6-RW2qSPKCG-440" value="" style="rounded=0;whiteSpace=wrap;html=1;strokeColor=#CCCCCC;dashed=1;dashPattern=1 2;fillColor=none;" vertex="1" parent="1">
          <mxGeometry x="660" y="690" width="10" height="10" as="geometry" />
        </mxCell>
        <mxCell id="k5IW1HagH6-RW2qSPKCG-441" value="" style="rounded=0;whiteSpace=wrap;html=1;strokeColor=#CCCCCC;dashed=1;dashPattern=1 2;fillColor=#33FF99;" vertex="1" parent="1">
          <mxGeometry x="670" y="690" width="10" height="10" as="geometry" />
        </mxCell>
        <mxCell id="k5IW1HagH6-RW2qSPKCG-442" value="" style="rounded=0;whiteSpace=wrap;html=1;strokeColor=#CCCCCC;dashed=1;dashPattern=1 2;fillColor=#33FF99;" vertex="1" parent="1">
          <mxGeometry x="680" y="690" width="10" height="10" as="geometry" />
        </mxCell>
        <mxCell id="k5IW1HagH6-RW2qSPKCG-443" value="" style="rounded=0;whiteSpace=wrap;html=1;strokeColor=#CCCCCC;dashed=1;dashPattern=1 2;fillColor=#33FF99;" vertex="1" parent="1">
          <mxGeometry x="690" y="690" width="10" height="10" as="geometry" />
        </mxCell>
        <mxCell id="k5IW1HagH6-RW2qSPKCG-444" value="" style="rounded=0;whiteSpace=wrap;html=1;strokeColor=#CCCCCC;dashed=1;dashPattern=1 2;fillColor=#33FF99;" vertex="1" parent="1">
          <mxGeometry x="700" y="690" width="10" height="10" as="geometry" />
        </mxCell>
        <mxCell id="k5IW1HagH6-RW2qSPKCG-445" value="" style="rounded=0;whiteSpace=wrap;html=1;strokeColor=#CCCCCC;dashed=1;dashPattern=1 2;fillColor=#33FF99;" vertex="1" parent="1">
          <mxGeometry x="710" y="690" width="10" height="10" as="geometry" />
        </mxCell>
        <mxCell id="k5IW1HagH6-RW2qSPKCG-446" value="" style="rounded=0;whiteSpace=wrap;html=1;strokeColor=#CCCCCC;dashed=1;dashPattern=1 2;fillColor=#33FF99;" vertex="1" parent="1">
          <mxGeometry x="720" y="690" width="10" height="10" as="geometry" />
        </mxCell>
        <mxCell id="k5IW1HagH6-RW2qSPKCG-447" value="" style="rounded=0;whiteSpace=wrap;html=1;strokeColor=#CCCCCC;dashed=1;dashPattern=1 2;fillColor=#33FF99;" vertex="1" parent="1">
          <mxGeometry x="730" y="690" width="10" height="10" as="geometry" />
        </mxCell>
        <mxCell id="k5IW1HagH6-RW2qSPKCG-448" value="" style="rounded=0;whiteSpace=wrap;html=1;strokeColor=#CCCCCC;dashed=1;dashPattern=1 2;fillColor=#33FF99;" vertex="1" parent="1">
          <mxGeometry x="740" y="690" width="10" height="10" as="geometry" />
        </mxCell>
        <mxCell id="k5IW1HagH6-RW2qSPKCG-449" value="" style="rounded=0;whiteSpace=wrap;html=1;strokeColor=#CCCCCC;dashed=1;dashPattern=1 2;fillColor=#33FF99;" vertex="1" parent="1">
          <mxGeometry x="750" y="690" width="10" height="10" as="geometry" />
        </mxCell>
        <mxCell id="k5IW1HagH6-RW2qSPKCG-450" value="" style="rounded=0;whiteSpace=wrap;html=1;strokeColor=#CCCCCC;dashed=1;dashPattern=1 2;fillColor=#33FF99;" vertex="1" parent="1">
          <mxGeometry x="760" y="690" width="10" height="10" as="geometry" />
        </mxCell>
        <mxCell id="k5IW1HagH6-RW2qSPKCG-451" value="" style="rounded=0;whiteSpace=wrap;html=1;strokeColor=#CCCCCC;dashed=1;dashPattern=1 2;fillColor=#33FF99;" vertex="1" parent="1">
          <mxGeometry x="770" y="690" width="10" height="10" as="geometry" />
        </mxCell>
        <mxCell id="k5IW1HagH6-RW2qSPKCG-452" value="" style="rounded=0;whiteSpace=wrap;html=1;strokeColor=#CCCCCC;dashed=1;dashPattern=1 2;fillColor=none;" vertex="1" parent="1">
          <mxGeometry x="780" y="690" width="10" height="10" as="geometry" />
        </mxCell>
        <mxCell id="k5IW1HagH6-RW2qSPKCG-453" value="" style="rounded=0;whiteSpace=wrap;html=1;strokeColor=#CCCCCC;dashed=1;dashPattern=1 2;fillColor=none;" vertex="1" parent="1">
          <mxGeometry x="790" y="690" width="10" height="10" as="geometry" />
        </mxCell>
        <mxCell id="k5IW1HagH6-RW2qSPKCG-454" value="" style="rounded=0;whiteSpace=wrap;html=1;strokeColor=#CCCCCC;dashed=1;dashPattern=1 2;fillColor=none;" vertex="1" parent="1">
          <mxGeometry x="800" y="690" width="10" height="10" as="geometry" />
        </mxCell>
        <mxCell id="k5IW1HagH6-RW2qSPKCG-455" value="" style="rounded=0;whiteSpace=wrap;html=1;strokeColor=#CCCCCC;dashed=1;dashPattern=1 2;fillColor=none;" vertex="1" parent="1">
          <mxGeometry x="810" y="690" width="10" height="10" as="geometry" />
        </mxCell>
        <mxCell id="k5IW1HagH6-RW2qSPKCG-456" value="" style="rounded=0;whiteSpace=wrap;html=1;strokeColor=#CCCCCC;dashed=1;dashPattern=1 2;fillColor=none;" vertex="1" parent="1">
          <mxGeometry x="820" y="690" width="10" height="10" as="geometry" />
        </mxCell>
        <mxCell id="k5IW1HagH6-RW2qSPKCG-457" value="" style="rounded=0;whiteSpace=wrap;html=1;strokeColor=#CCCCCC;dashed=1;dashPattern=1 2;fillColor=none;" vertex="1" parent="1">
          <mxGeometry x="830" y="690" width="10" height="10" as="geometry" />
        </mxCell>
        <mxCell id="k5IW1HagH6-RW2qSPKCG-458" value="" style="rounded=0;whiteSpace=wrap;html=1;strokeColor=#CCCCCC;dashed=1;dashPattern=1 2;fillColor=none;" vertex="1" parent="1">
          <mxGeometry x="600" y="700" width="10" height="10" as="geometry" />
        </mxCell>
        <mxCell id="k5IW1HagH6-RW2qSPKCG-459" value="" style="rounded=0;whiteSpace=wrap;html=1;strokeColor=#CCCCCC;dashed=1;dashPattern=1 2;fillColor=none;" vertex="1" parent="1">
          <mxGeometry x="610" y="700" width="10" height="10" as="geometry" />
        </mxCell>
        <mxCell id="k5IW1HagH6-RW2qSPKCG-460" value="" style="rounded=0;whiteSpace=wrap;html=1;strokeColor=#CCCCCC;dashed=1;dashPattern=1 2;fillColor=none;" vertex="1" parent="1">
          <mxGeometry x="620" y="700" width="10" height="10" as="geometry" />
        </mxCell>
        <mxCell id="k5IW1HagH6-RW2qSPKCG-461" value="" style="rounded=0;whiteSpace=wrap;html=1;strokeColor=#CCCCCC;dashed=1;dashPattern=1 2;fillColor=none;" vertex="1" parent="1">
          <mxGeometry x="630" y="700" width="10" height="10" as="geometry" />
        </mxCell>
        <mxCell id="k5IW1HagH6-RW2qSPKCG-462" value="" style="rounded=0;whiteSpace=wrap;html=1;strokeColor=#CCCCCC;dashed=1;dashPattern=1 2;fillColor=none;" vertex="1" parent="1">
          <mxGeometry x="640" y="700" width="10" height="10" as="geometry" />
        </mxCell>
        <mxCell id="k5IW1HagH6-RW2qSPKCG-463" value="" style="rounded=0;whiteSpace=wrap;html=1;strokeColor=#CCCCCC;dashed=1;dashPattern=1 2;fillColor=none;" vertex="1" parent="1">
          <mxGeometry x="650" y="700" width="10" height="10" as="geometry" />
        </mxCell>
        <mxCell id="k5IW1HagH6-RW2qSPKCG-464" value="" style="rounded=0;whiteSpace=wrap;html=1;strokeColor=#CCCCCC;dashed=1;dashPattern=1 2;fillColor=#33FF99;" vertex="1" parent="1">
          <mxGeometry x="660" y="700" width="10" height="10" as="geometry" />
        </mxCell>
        <mxCell id="k5IW1HagH6-RW2qSPKCG-465" value="" style="rounded=0;whiteSpace=wrap;html=1;strokeColor=#CCCCCC;dashed=1;dashPattern=1 2;fillColor=#000000;" vertex="1" parent="1">
          <mxGeometry x="670" y="700" width="10" height="10" as="geometry" />
        </mxCell>
        <mxCell id="k5IW1HagH6-RW2qSPKCG-466" value="" style="rounded=0;whiteSpace=wrap;html=1;strokeColor=#CCCCCC;dashed=1;dashPattern=1 2;fillColor=#000000;" vertex="1" parent="1">
          <mxGeometry x="680" y="700" width="10" height="10" as="geometry" />
        </mxCell>
        <mxCell id="k5IW1HagH6-RW2qSPKCG-467" value="" style="rounded=0;whiteSpace=wrap;html=1;strokeColor=#CCCCCC;dashed=1;dashPattern=1 2;fillColor=#000000;" vertex="1" parent="1">
          <mxGeometry x="690" y="700" width="10" height="10" as="geometry" />
        </mxCell>
        <mxCell id="k5IW1HagH6-RW2qSPKCG-468" value="" style="rounded=0;whiteSpace=wrap;html=1;strokeColor=#CCCCCC;dashed=1;dashPattern=1 2;fillColor=#000000;" vertex="1" parent="1">
          <mxGeometry x="700" y="700" width="10" height="10" as="geometry" />
        </mxCell>
        <mxCell id="k5IW1HagH6-RW2qSPKCG-469" value="" style="rounded=0;whiteSpace=wrap;html=1;strokeColor=#CCCCCC;dashed=1;dashPattern=1 2;fillColor=#000000;" vertex="1" parent="1">
          <mxGeometry x="710" y="700" width="10" height="10" as="geometry" />
        </mxCell>
        <mxCell id="k5IW1HagH6-RW2qSPKCG-470" value="" style="rounded=0;whiteSpace=wrap;html=1;strokeColor=#CCCCCC;dashed=1;dashPattern=1 2;fillColor=#000000;" vertex="1" parent="1">
          <mxGeometry x="720" y="700" width="10" height="10" as="geometry" />
        </mxCell>
        <mxCell id="k5IW1HagH6-RW2qSPKCG-471" value="" style="rounded=0;whiteSpace=wrap;html=1;strokeColor=#CCCCCC;dashed=1;dashPattern=1 2;fillColor=#000000;" vertex="1" parent="1">
          <mxGeometry x="730" y="700" width="10" height="10" as="geometry" />
        </mxCell>
        <mxCell id="k5IW1HagH6-RW2qSPKCG-472" value="" style="rounded=0;whiteSpace=wrap;html=1;strokeColor=#CCCCCC;dashed=1;dashPattern=1 2;fillColor=#000000;" vertex="1" parent="1">
          <mxGeometry x="740" y="700" width="10" height="10" as="geometry" />
        </mxCell>
        <mxCell id="k5IW1HagH6-RW2qSPKCG-473" value="" style="rounded=0;whiteSpace=wrap;html=1;strokeColor=#CCCCCC;dashed=1;dashPattern=1 2;fillColor=#000000;" vertex="1" parent="1">
          <mxGeometry x="750" y="700" width="10" height="10" as="geometry" />
        </mxCell>
        <mxCell id="k5IW1HagH6-RW2qSPKCG-474" value="" style="rounded=0;whiteSpace=wrap;html=1;strokeColor=#CCCCCC;dashed=1;dashPattern=1 2;fillColor=#000000;" vertex="1" parent="1">
          <mxGeometry x="760" y="700" width="10" height="10" as="geometry" />
        </mxCell>
        <mxCell id="k5IW1HagH6-RW2qSPKCG-475" value="" style="rounded=0;whiteSpace=wrap;html=1;strokeColor=#CCCCCC;dashed=1;dashPattern=1 2;fillColor=#000000;" vertex="1" parent="1">
          <mxGeometry x="770" y="700" width="10" height="10" as="geometry" />
        </mxCell>
        <mxCell id="k5IW1HagH6-RW2qSPKCG-476" value="" style="rounded=0;whiteSpace=wrap;html=1;strokeColor=#CCCCCC;dashed=1;dashPattern=1 2;fillColor=#33FF99;" vertex="1" parent="1">
          <mxGeometry x="780" y="700" width="10" height="10" as="geometry" />
        </mxCell>
        <mxCell id="k5IW1HagH6-RW2qSPKCG-477" value="" style="rounded=0;whiteSpace=wrap;html=1;strokeColor=#CCCCCC;dashed=1;dashPattern=1 2;fillColor=none;" vertex="1" parent="1">
          <mxGeometry x="790" y="700" width="10" height="10" as="geometry" />
        </mxCell>
        <mxCell id="k5IW1HagH6-RW2qSPKCG-478" value="" style="rounded=0;whiteSpace=wrap;html=1;strokeColor=#CCCCCC;dashed=1;dashPattern=1 2;fillColor=none;" vertex="1" parent="1">
          <mxGeometry x="800" y="700" width="10" height="10" as="geometry" />
        </mxCell>
        <mxCell id="k5IW1HagH6-RW2qSPKCG-479" value="" style="rounded=0;whiteSpace=wrap;html=1;strokeColor=#CCCCCC;dashed=1;dashPattern=1 2;fillColor=none;" vertex="1" parent="1">
          <mxGeometry x="810" y="700" width="10" height="10" as="geometry" />
        </mxCell>
        <mxCell id="k5IW1HagH6-RW2qSPKCG-480" value="" style="rounded=0;whiteSpace=wrap;html=1;strokeColor=#CCCCCC;dashed=1;dashPattern=1 2;fillColor=none;" vertex="1" parent="1">
          <mxGeometry x="820" y="700" width="10" height="10" as="geometry" />
        </mxCell>
        <mxCell id="k5IW1HagH6-RW2qSPKCG-481" value="" style="rounded=0;whiteSpace=wrap;html=1;strokeColor=#CCCCCC;dashed=1;dashPattern=1 2;fillColor=none;" vertex="1" parent="1">
          <mxGeometry x="830" y="700" width="10" height="10" as="geometry" />
        </mxCell>
        <mxCell id="k5IW1HagH6-RW2qSPKCG-482" value="" style="rounded=0;whiteSpace=wrap;html=1;strokeColor=#CCCCCC;dashed=1;dashPattern=1 2;fillColor=none;" vertex="1" parent="1">
          <mxGeometry x="600" y="710" width="10" height="10" as="geometry" />
        </mxCell>
        <mxCell id="k5IW1HagH6-RW2qSPKCG-483" value="" style="rounded=0;whiteSpace=wrap;html=1;strokeColor=#CCCCCC;dashed=1;dashPattern=1 2;fillColor=none;" vertex="1" parent="1">
          <mxGeometry x="610" y="710" width="10" height="10" as="geometry" />
        </mxCell>
        <mxCell id="k5IW1HagH6-RW2qSPKCG-484" value="" style="rounded=0;whiteSpace=wrap;html=1;strokeColor=#CCCCCC;dashed=1;dashPattern=1 2;fillColor=none;" vertex="1" parent="1">
          <mxGeometry x="620" y="710" width="10" height="10" as="geometry" />
        </mxCell>
        <mxCell id="k5IW1HagH6-RW2qSPKCG-485" value="" style="rounded=0;whiteSpace=wrap;html=1;strokeColor=#CCCCCC;dashed=1;dashPattern=1 2;fillColor=none;" vertex="1" parent="1">
          <mxGeometry x="630" y="710" width="10" height="10" as="geometry" />
        </mxCell>
        <mxCell id="k5IW1HagH6-RW2qSPKCG-486" value="" style="rounded=0;whiteSpace=wrap;html=1;strokeColor=#CCCCCC;dashed=1;dashPattern=1 2;fillColor=none;" vertex="1" parent="1">
          <mxGeometry x="640" y="710" width="10" height="10" as="geometry" />
        </mxCell>
        <mxCell id="k5IW1HagH6-RW2qSPKCG-487" value="" style="rounded=0;whiteSpace=wrap;html=1;strokeColor=#CCCCCC;dashed=1;dashPattern=1 2;fillColor=#33FF99;" vertex="1" parent="1">
          <mxGeometry x="650" y="710" width="10" height="10" as="geometry" />
        </mxCell>
        <mxCell id="k5IW1HagH6-RW2qSPKCG-488" value="" style="rounded=0;whiteSpace=wrap;html=1;strokeColor=#CCCCCC;dashed=1;dashPattern=1 2;fillColor=#000000;" vertex="1" parent="1">
          <mxGeometry x="660" y="710" width="10" height="10" as="geometry" />
        </mxCell>
        <mxCell id="k5IW1HagH6-RW2qSPKCG-489" value="" style="rounded=0;whiteSpace=wrap;html=1;strokeColor=#CCCCCC;dashed=1;dashPattern=1 2;fillColor=none;" vertex="1" parent="1">
          <mxGeometry x="670" y="710" width="10" height="10" as="geometry" />
        </mxCell>
        <mxCell id="k5IW1HagH6-RW2qSPKCG-490" value="" style="rounded=0;whiteSpace=wrap;html=1;strokeColor=#CCCCCC;dashed=1;dashPattern=1 2;fillColor=none;" vertex="1" parent="1">
          <mxGeometry x="680" y="710" width="10" height="10" as="geometry" />
        </mxCell>
        <mxCell id="k5IW1HagH6-RW2qSPKCG-491" value="" style="rounded=0;whiteSpace=wrap;html=1;strokeColor=#CCCCCC;dashed=1;dashPattern=1 2;fillColor=none;" vertex="1" parent="1">
          <mxGeometry x="690" y="710" width="10" height="10" as="geometry" />
        </mxCell>
        <mxCell id="k5IW1HagH6-RW2qSPKCG-492" value="" style="rounded=0;whiteSpace=wrap;html=1;strokeColor=#CCCCCC;dashed=1;dashPattern=1 2;fillColor=none;" vertex="1" parent="1">
          <mxGeometry x="700" y="710" width="10" height="10" as="geometry" />
        </mxCell>
        <mxCell id="k5IW1HagH6-RW2qSPKCG-493" value="" style="rounded=0;whiteSpace=wrap;html=1;strokeColor=#CCCCCC;dashed=1;dashPattern=1 2;fillColor=none;" vertex="1" parent="1">
          <mxGeometry x="710" y="710" width="10" height="10" as="geometry" />
        </mxCell>
        <mxCell id="k5IW1HagH6-RW2qSPKCG-494" value="" style="rounded=0;whiteSpace=wrap;html=1;strokeColor=#CCCCCC;dashed=1;dashPattern=1 2;fillColor=none;" vertex="1" parent="1">
          <mxGeometry x="720" y="710" width="10" height="10" as="geometry" />
        </mxCell>
        <mxCell id="k5IW1HagH6-RW2qSPKCG-495" value="" style="rounded=0;whiteSpace=wrap;html=1;strokeColor=#CCCCCC;dashed=1;dashPattern=1 2;fillColor=none;" vertex="1" parent="1">
          <mxGeometry x="730" y="710" width="10" height="10" as="geometry" />
        </mxCell>
        <mxCell id="k5IW1HagH6-RW2qSPKCG-496" value="" style="rounded=0;whiteSpace=wrap;html=1;strokeColor=#CCCCCC;dashed=1;dashPattern=1 2;fillColor=none;" vertex="1" parent="1">
          <mxGeometry x="740" y="710" width="10" height="10" as="geometry" />
        </mxCell>
        <mxCell id="k5IW1HagH6-RW2qSPKCG-497" value="" style="rounded=0;whiteSpace=wrap;html=1;strokeColor=#005700;dashed=1;dashPattern=1 2;fillColor=#008a00;fontColor=#ffffff;" vertex="1" parent="1">
          <mxGeometry x="750" y="710" width="10" height="10" as="geometry" />
        </mxCell>
        <mxCell id="k5IW1HagH6-RW2qSPKCG-498" value="" style="rounded=0;whiteSpace=wrap;html=1;strokeColor=#005700;dashed=1;dashPattern=1 2;fillColor=#008a00;fontColor=#ffffff;" vertex="1" parent="1">
          <mxGeometry x="760" y="710" width="10" height="10" as="geometry" />
        </mxCell>
        <mxCell id="k5IW1HagH6-RW2qSPKCG-499" value="" style="rounded=0;whiteSpace=wrap;html=1;strokeColor=#005700;dashed=1;dashPattern=1 2;fillColor=#004A00;fontColor=#ffffff;" vertex="1" parent="1">
          <mxGeometry x="770" y="710" width="10" height="10" as="geometry" />
        </mxCell>
        <mxCell id="k5IW1HagH6-RW2qSPKCG-500" value="" style="rounded=0;whiteSpace=wrap;html=1;strokeColor=#CCCCCC;dashed=1;dashPattern=1 2;fillColor=#000000;" vertex="1" parent="1">
          <mxGeometry x="780" y="710" width="10" height="10" as="geometry" />
        </mxCell>
        <mxCell id="k5IW1HagH6-RW2qSPKCG-501" value="" style="rounded=0;whiteSpace=wrap;html=1;strokeColor=#CCCCCC;dashed=1;dashPattern=1 2;fillColor=#33FF99;" vertex="1" parent="1">
          <mxGeometry x="790" y="710" width="10" height="10" as="geometry" />
        </mxCell>
        <mxCell id="k5IW1HagH6-RW2qSPKCG-502" value="" style="rounded=0;whiteSpace=wrap;html=1;strokeColor=#CCCCCC;dashed=1;dashPattern=1 2;fillColor=none;" vertex="1" parent="1">
          <mxGeometry x="800" y="710" width="10" height="10" as="geometry" />
        </mxCell>
        <mxCell id="k5IW1HagH6-RW2qSPKCG-503" value="" style="rounded=0;whiteSpace=wrap;html=1;strokeColor=#CCCCCC;dashed=1;dashPattern=1 2;fillColor=none;" vertex="1" parent="1">
          <mxGeometry x="810" y="710" width="10" height="10" as="geometry" />
        </mxCell>
        <mxCell id="k5IW1HagH6-RW2qSPKCG-504" value="" style="rounded=0;whiteSpace=wrap;html=1;strokeColor=#CCCCCC;dashed=1;dashPattern=1 2;fillColor=none;" vertex="1" parent="1">
          <mxGeometry x="820" y="710" width="10" height="10" as="geometry" />
        </mxCell>
        <mxCell id="k5IW1HagH6-RW2qSPKCG-505" value="" style="rounded=0;whiteSpace=wrap;html=1;strokeColor=#CCCCCC;dashed=1;dashPattern=1 2;fillColor=none;" vertex="1" parent="1">
          <mxGeometry x="830" y="710" width="10" height="10" as="geometry" />
        </mxCell>
        <mxCell id="k5IW1HagH6-RW2qSPKCG-506" value="" style="rounded=0;whiteSpace=wrap;html=1;strokeColor=#CCCCCC;dashed=1;dashPattern=1 2;fillColor=none;" vertex="1" parent="1">
          <mxGeometry x="600" y="720" width="10" height="10" as="geometry" />
        </mxCell>
        <mxCell id="k5IW1HagH6-RW2qSPKCG-507" value="" style="rounded=0;whiteSpace=wrap;html=1;strokeColor=#CCCCCC;dashed=1;dashPattern=1 2;fillColor=none;" vertex="1" parent="1">
          <mxGeometry x="610" y="720" width="10" height="10" as="geometry" />
        </mxCell>
        <mxCell id="k5IW1HagH6-RW2qSPKCG-508" value="" style="rounded=0;whiteSpace=wrap;html=1;strokeColor=#CCCCCC;dashed=1;dashPattern=1 2;fillColor=none;" vertex="1" parent="1">
          <mxGeometry x="620" y="720" width="10" height="10" as="geometry" />
        </mxCell>
        <mxCell id="k5IW1HagH6-RW2qSPKCG-509" value="" style="rounded=0;whiteSpace=wrap;html=1;strokeColor=#CCCCCC;dashed=1;dashPattern=1 2;fillColor=none;" vertex="1" parent="1">
          <mxGeometry x="630" y="720" width="10" height="10" as="geometry" />
        </mxCell>
        <mxCell id="k5IW1HagH6-RW2qSPKCG-510" value="" style="rounded=0;whiteSpace=wrap;html=1;strokeColor=#CCCCCC;dashed=1;dashPattern=1 2;fillColor=#33FF99;" vertex="1" parent="1">
          <mxGeometry x="640" y="720" width="10" height="10" as="geometry" />
        </mxCell>
        <mxCell id="k5IW1HagH6-RW2qSPKCG-511" value="" style="rounded=0;whiteSpace=wrap;html=1;strokeColor=#CCCCCC;dashed=1;dashPattern=1 2;fillColor=#000000;" vertex="1" parent="1">
          <mxGeometry x="650" y="720" width="10" height="10" as="geometry" />
        </mxCell>
        <mxCell id="k5IW1HagH6-RW2qSPKCG-512" value="" style="rounded=0;whiteSpace=wrap;html=1;strokeColor=#CCCCCC;dashed=1;dashPattern=1 2;fillColor=none;" vertex="1" parent="1">
          <mxGeometry x="660" y="720" width="10" height="10" as="geometry" />
        </mxCell>
        <mxCell id="k5IW1HagH6-RW2qSPKCG-513" value="" style="rounded=0;whiteSpace=wrap;html=1;strokeColor=#CCCCCC;dashed=1;dashPattern=1 2;fillColor=none;" vertex="1" parent="1">
          <mxGeometry x="670" y="720" width="10" height="10" as="geometry" />
        </mxCell>
        <mxCell id="k5IW1HagH6-RW2qSPKCG-514" value="" style="rounded=0;whiteSpace=wrap;html=1;strokeColor=#CCCCCC;dashed=1;dashPattern=1 2;fillColor=none;" vertex="1" parent="1">
          <mxGeometry x="680" y="720" width="10" height="10" as="geometry" />
        </mxCell>
        <mxCell id="k5IW1HagH6-RW2qSPKCG-515" value="" style="rounded=0;whiteSpace=wrap;html=1;strokeColor=#CCCCCC;dashed=1;dashPattern=1 2;fillColor=none;" vertex="1" parent="1">
          <mxGeometry x="690" y="720" width="10" height="10" as="geometry" />
        </mxCell>
        <mxCell id="k5IW1HagH6-RW2qSPKCG-516" value="" style="rounded=0;whiteSpace=wrap;html=1;strokeColor=#CCCCCC;dashed=1;dashPattern=1 2;fillColor=none;" vertex="1" parent="1">
          <mxGeometry x="700" y="720" width="10" height="10" as="geometry" />
        </mxCell>
        <mxCell id="k5IW1HagH6-RW2qSPKCG-517" value="" style="rounded=0;whiteSpace=wrap;html=1;strokeColor=#CCCCCC;dashed=1;dashPattern=1 2;fillColor=none;" vertex="1" parent="1">
          <mxGeometry x="710" y="720" width="10" height="10" as="geometry" />
        </mxCell>
        <mxCell id="k5IW1HagH6-RW2qSPKCG-518" value="" style="rounded=0;whiteSpace=wrap;html=1;strokeColor=#CCCCCC;dashed=1;dashPattern=1 2;fillColor=none;" vertex="1" parent="1">
          <mxGeometry x="720" y="720" width="10" height="10" as="geometry" />
        </mxCell>
        <mxCell id="k5IW1HagH6-RW2qSPKCG-519" value="" style="rounded=0;whiteSpace=wrap;html=1;strokeColor=#CCCCCC;dashed=1;dashPattern=1 2;fillColor=none;" vertex="1" parent="1">
          <mxGeometry x="730" y="720" width="10" height="10" as="geometry" />
        </mxCell>
        <mxCell id="k5IW1HagH6-RW2qSPKCG-520" value="" style="rounded=0;whiteSpace=wrap;html=1;strokeColor=#CCCCCC;dashed=1;dashPattern=1 2;fillColor=none;" vertex="1" parent="1">
          <mxGeometry x="740" y="720" width="10" height="10" as="geometry" />
        </mxCell>
        <mxCell id="k5IW1HagH6-RW2qSPKCG-521" value="" style="rounded=0;whiteSpace=wrap;html=1;strokeColor=#005700;dashed=1;dashPattern=1 2;fillColor=#008a00;fontColor=#ffffff;" vertex="1" parent="1">
          <mxGeometry x="750" y="720" width="10" height="10" as="geometry" />
        </mxCell>
        <mxCell id="k5IW1HagH6-RW2qSPKCG-522" value="" style="rounded=0;whiteSpace=wrap;html=1;strokeColor=#005700;dashed=1;dashPattern=1 2;fillColor=#008a00;fontColor=#ffffff;" vertex="1" parent="1">
          <mxGeometry x="760" y="720" width="10" height="10" as="geometry" />
        </mxCell>
        <mxCell id="k5IW1HagH6-RW2qSPKCG-523" value="" style="rounded=0;whiteSpace=wrap;html=1;strokeColor=#005700;dashed=1;dashPattern=1 2;fillColor=#008a00;fontColor=#ffffff;" vertex="1" parent="1">
          <mxGeometry x="770" y="720" width="10" height="10" as="geometry" />
        </mxCell>
        <mxCell id="k5IW1HagH6-RW2qSPKCG-524" value="" style="rounded=0;whiteSpace=wrap;html=1;strokeColor=#005700;dashed=1;dashPattern=1 2;fillColor=#004A00;fontColor=#ffffff;" vertex="1" parent="1">
          <mxGeometry x="780" y="720" width="10" height="10" as="geometry" />
        </mxCell>
        <mxCell id="k5IW1HagH6-RW2qSPKCG-525" value="" style="rounded=0;whiteSpace=wrap;html=1;strokeColor=#CCCCCC;dashed=1;dashPattern=1 2;fillColor=#000000;" vertex="1" parent="1">
          <mxGeometry x="790" y="720" width="10" height="10" as="geometry" />
        </mxCell>
        <mxCell id="k5IW1HagH6-RW2qSPKCG-526" value="" style="rounded=0;whiteSpace=wrap;html=1;strokeColor=#CCCCCC;dashed=1;dashPattern=1 2;fillColor=#33FF99;" vertex="1" parent="1">
          <mxGeometry x="800" y="720" width="10" height="10" as="geometry" />
        </mxCell>
        <mxCell id="k5IW1HagH6-RW2qSPKCG-527" value="" style="rounded=0;whiteSpace=wrap;html=1;strokeColor=#CCCCCC;dashed=1;dashPattern=1 2;fillColor=none;" vertex="1" parent="1">
          <mxGeometry x="810" y="720" width="10" height="10" as="geometry" />
        </mxCell>
        <mxCell id="k5IW1HagH6-RW2qSPKCG-528" value="" style="rounded=0;whiteSpace=wrap;html=1;strokeColor=#CCCCCC;dashed=1;dashPattern=1 2;fillColor=none;" vertex="1" parent="1">
          <mxGeometry x="820" y="720" width="10" height="10" as="geometry" />
        </mxCell>
        <mxCell id="k5IW1HagH6-RW2qSPKCG-529" value="" style="rounded=0;whiteSpace=wrap;html=1;strokeColor=#CCCCCC;dashed=1;dashPattern=1 2;fillColor=none;" vertex="1" parent="1">
          <mxGeometry x="830" y="720" width="10" height="10" as="geometry" />
        </mxCell>
        <mxCell id="k5IW1HagH6-RW2qSPKCG-530" value="" style="rounded=0;whiteSpace=wrap;html=1;strokeColor=#CCCCCC;dashed=1;dashPattern=1 2;fillColor=none;" vertex="1" parent="1">
          <mxGeometry x="600" y="730" width="10" height="10" as="geometry" />
        </mxCell>
        <mxCell id="k5IW1HagH6-RW2qSPKCG-531" value="" style="rounded=0;whiteSpace=wrap;html=1;strokeColor=#CCCCCC;dashed=1;dashPattern=1 2;fillColor=none;" vertex="1" parent="1">
          <mxGeometry x="610" y="730" width="10" height="10" as="geometry" />
        </mxCell>
        <mxCell id="k5IW1HagH6-RW2qSPKCG-532" value="" style="rounded=0;whiteSpace=wrap;html=1;strokeColor=#CCCCCC;dashed=1;dashPattern=1 2;fillColor=none;" vertex="1" parent="1">
          <mxGeometry x="620" y="730" width="10" height="10" as="geometry" />
        </mxCell>
        <mxCell id="k5IW1HagH6-RW2qSPKCG-533" value="" style="rounded=0;whiteSpace=wrap;html=1;strokeColor=#CCCCCC;dashed=1;dashPattern=1 2;fillColor=none;" vertex="1" parent="1">
          <mxGeometry x="630" y="730" width="10" height="10" as="geometry" />
        </mxCell>
        <mxCell id="k5IW1HagH6-RW2qSPKCG-534" value="" style="rounded=0;whiteSpace=wrap;html=1;strokeColor=#CCCCCC;dashed=1;dashPattern=1 2;fillColor=#33FF99;" vertex="1" parent="1">
          <mxGeometry x="640" y="730" width="10" height="10" as="geometry" />
        </mxCell>
        <mxCell id="k5IW1HagH6-RW2qSPKCG-535" value="" style="rounded=0;whiteSpace=wrap;html=1;strokeColor=#CCCCCC;dashed=1;dashPattern=1 2;fillColor=#000000;" vertex="1" parent="1">
          <mxGeometry x="650" y="730" width="10" height="10" as="geometry" />
        </mxCell>
        <mxCell id="k5IW1HagH6-RW2qSPKCG-536" value="" style="rounded=0;whiteSpace=wrap;html=1;strokeColor=#CCCCCC;dashed=1;dashPattern=1 2;fillColor=#000000;" vertex="1" parent="1">
          <mxGeometry x="660" y="730" width="10" height="10" as="geometry" />
        </mxCell>
        <mxCell id="k5IW1HagH6-RW2qSPKCG-537" value="" style="rounded=0;whiteSpace=wrap;html=1;strokeColor=#CCCCCC;dashed=1;dashPattern=1 2;fillColor=#000000;" vertex="1" parent="1">
          <mxGeometry x="670" y="730" width="10" height="10" as="geometry" />
        </mxCell>
        <mxCell id="k5IW1HagH6-RW2qSPKCG-538" value="" style="rounded=0;whiteSpace=wrap;html=1;strokeColor=#CCCCCC;dashed=1;dashPattern=1 2;fillColor=#000000;" vertex="1" parent="1">
          <mxGeometry x="680" y="730" width="10" height="10" as="geometry" />
        </mxCell>
        <mxCell id="k5IW1HagH6-RW2qSPKCG-539" value="" style="rounded=0;whiteSpace=wrap;html=1;strokeColor=#CCCCCC;dashed=1;dashPattern=1 2;fillColor=#000000;" vertex="1" parent="1">
          <mxGeometry x="690" y="730" width="10" height="10" as="geometry" />
        </mxCell>
        <mxCell id="k5IW1HagH6-RW2qSPKCG-540" value="" style="rounded=0;whiteSpace=wrap;html=1;strokeColor=#CCCCCC;dashed=1;dashPattern=1 2;fillColor=#000000;" vertex="1" parent="1">
          <mxGeometry x="700" y="730" width="10" height="10" as="geometry" />
        </mxCell>
        <mxCell id="k5IW1HagH6-RW2qSPKCG-541" value="" style="rounded=0;whiteSpace=wrap;html=1;strokeColor=#CCCCCC;dashed=1;dashPattern=1 2;fillColor=#000000;" vertex="1" parent="1">
          <mxGeometry x="710" y="730" width="10" height="10" as="geometry" />
        </mxCell>
        <mxCell id="k5IW1HagH6-RW2qSPKCG-542" value="" style="rounded=0;whiteSpace=wrap;html=1;strokeColor=#CCCCCC;dashed=1;dashPattern=1 2;fillColor=#000000;" vertex="1" parent="1">
          <mxGeometry x="720" y="730" width="10" height="10" as="geometry" />
        </mxCell>
        <mxCell id="k5IW1HagH6-RW2qSPKCG-543" value="" style="rounded=0;whiteSpace=wrap;html=1;strokeColor=#CCCCCC;dashed=1;dashPattern=1 2;fillColor=#000000;" vertex="1" parent="1">
          <mxGeometry x="730" y="730" width="10" height="10" as="geometry" />
        </mxCell>
        <mxCell id="k5IW1HagH6-RW2qSPKCG-544" value="" style="rounded=0;whiteSpace=wrap;html=1;strokeColor=#CCCCCC;dashed=1;dashPattern=1 2;fillColor=#000000;" vertex="1" parent="1">
          <mxGeometry x="740" y="730" width="10" height="10" as="geometry" />
        </mxCell>
        <mxCell id="k5IW1HagH6-RW2qSPKCG-545" value="" style="rounded=0;whiteSpace=wrap;html=1;strokeColor=#CCCCCC;dashed=1;dashPattern=1 2;fillColor=#000000;" vertex="1" parent="1">
          <mxGeometry x="750" y="730" width="10" height="10" as="geometry" />
        </mxCell>
        <mxCell id="k5IW1HagH6-RW2qSPKCG-546" value="" style="rounded=0;whiteSpace=wrap;html=1;strokeColor=#CCCCCC;dashed=1;dashPattern=1 2;fillColor=#000000;" vertex="1" parent="1">
          <mxGeometry x="760" y="730" width="10" height="10" as="geometry" />
        </mxCell>
        <mxCell id="k5IW1HagH6-RW2qSPKCG-547" value="" style="rounded=0;whiteSpace=wrap;html=1;strokeColor=#CCCCCC;dashed=1;dashPattern=1 2;fillColor=#000000;" vertex="1" parent="1">
          <mxGeometry x="770" y="730" width="10" height="10" as="geometry" />
        </mxCell>
        <mxCell id="k5IW1HagH6-RW2qSPKCG-548" value="" style="rounded=0;whiteSpace=wrap;html=1;strokeColor=#CCCCCC;dashed=1;dashPattern=1 2;fillColor=#000000;" vertex="1" parent="1">
          <mxGeometry x="780" y="730" width="10" height="10" as="geometry" />
        </mxCell>
        <mxCell id="k5IW1HagH6-RW2qSPKCG-549" value="" style="rounded=0;whiteSpace=wrap;html=1;strokeColor=#CCCCCC;dashed=1;dashPattern=1 2;fillColor=#000000;" vertex="1" parent="1">
          <mxGeometry x="790" y="730" width="10" height="10" as="geometry" />
        </mxCell>
        <mxCell id="k5IW1HagH6-RW2qSPKCG-550" value="" style="rounded=0;whiteSpace=wrap;html=1;strokeColor=#CCCCCC;dashed=1;dashPattern=1 2;fillColor=#33FF99;" vertex="1" parent="1">
          <mxGeometry x="800" y="730" width="10" height="10" as="geometry" />
        </mxCell>
        <mxCell id="k5IW1HagH6-RW2qSPKCG-551" value="" style="rounded=0;whiteSpace=wrap;html=1;strokeColor=#CCCCCC;dashed=1;dashPattern=1 2;fillColor=none;" vertex="1" parent="1">
          <mxGeometry x="810" y="730" width="10" height="10" as="geometry" />
        </mxCell>
        <mxCell id="k5IW1HagH6-RW2qSPKCG-552" value="" style="rounded=0;whiteSpace=wrap;html=1;strokeColor=#CCCCCC;dashed=1;dashPattern=1 2;fillColor=none;" vertex="1" parent="1">
          <mxGeometry x="820" y="730" width="10" height="10" as="geometry" />
        </mxCell>
        <mxCell id="k5IW1HagH6-RW2qSPKCG-553" value="" style="rounded=0;whiteSpace=wrap;html=1;strokeColor=#CCCCCC;dashed=1;dashPattern=1 2;fillColor=none;" vertex="1" parent="1">
          <mxGeometry x="830" y="730" width="10" height="10" as="geometry" />
        </mxCell>
        <mxCell id="k5IW1HagH6-RW2qSPKCG-554" value="" style="rounded=0;whiteSpace=wrap;html=1;strokeColor=#CCCCCC;dashed=1;dashPattern=1 2;fillColor=none;" vertex="1" parent="1">
          <mxGeometry x="600" y="740" width="10" height="10" as="geometry" />
        </mxCell>
        <mxCell id="k5IW1HagH6-RW2qSPKCG-555" value="" style="rounded=0;whiteSpace=wrap;html=1;strokeColor=#CCCCCC;dashed=1;dashPattern=1 2;fillColor=none;" vertex="1" parent="1">
          <mxGeometry x="610" y="740" width="10" height="10" as="geometry" />
        </mxCell>
        <mxCell id="k5IW1HagH6-RW2qSPKCG-556" value="" style="rounded=0;whiteSpace=wrap;html=1;strokeColor=#CCCCCC;dashed=1;dashPattern=1 2;fillColor=none;" vertex="1" parent="1">
          <mxGeometry x="620" y="740" width="10" height="10" as="geometry" />
        </mxCell>
        <mxCell id="k5IW1HagH6-RW2qSPKCG-557" value="" style="rounded=0;whiteSpace=wrap;html=1;strokeColor=#CCCCCC;dashed=1;dashPattern=1 2;fillColor=none;" vertex="1" parent="1">
          <mxGeometry x="630" y="740" width="10" height="10" as="geometry" />
        </mxCell>
        <mxCell id="k5IW1HagH6-RW2qSPKCG-558" value="" style="rounded=0;whiteSpace=wrap;html=1;strokeColor=#CCCCCC;dashed=1;dashPattern=1 2;fillColor=#33FF99;" vertex="1" parent="1">
          <mxGeometry x="640" y="740" width="10" height="10" as="geometry" />
        </mxCell>
        <mxCell id="k5IW1HagH6-RW2qSPKCG-559" value="" style="rounded=0;whiteSpace=wrap;html=1;strokeColor=#CCCCCC;dashed=1;dashPattern=1 2;fillColor=#000000;" vertex="1" parent="1">
          <mxGeometry x="650" y="740" width="10" height="10" as="geometry" />
        </mxCell>
        <mxCell id="k5IW1HagH6-RW2qSPKCG-560" value="" style="rounded=0;whiteSpace=wrap;html=1;strokeColor=#CCCCCC;dashed=1;dashPattern=1 2;fillColor=none;" vertex="1" parent="1">
          <mxGeometry x="660" y="740" width="10" height="10" as="geometry" />
        </mxCell>
        <mxCell id="k5IW1HagH6-RW2qSPKCG-561" value="" style="rounded=0;whiteSpace=wrap;html=1;strokeColor=#CCCCCC;dashed=1;dashPattern=1 2;fillColor=none;" vertex="1" parent="1">
          <mxGeometry x="670" y="740" width="10" height="10" as="geometry" />
        </mxCell>
        <mxCell id="k5IW1HagH6-RW2qSPKCG-562" value="" style="rounded=0;whiteSpace=wrap;html=1;strokeColor=#CCCCCC;dashed=1;dashPattern=1 2;fillColor=none;" vertex="1" parent="1">
          <mxGeometry x="680" y="740" width="10" height="10" as="geometry" />
        </mxCell>
        <mxCell id="k5IW1HagH6-RW2qSPKCG-563" value="" style="rounded=0;whiteSpace=wrap;html=1;strokeColor=#CCCCCC;dashed=1;dashPattern=1 2;fillColor=none;" vertex="1" parent="1">
          <mxGeometry x="690" y="740" width="10" height="10" as="geometry" />
        </mxCell>
        <mxCell id="k5IW1HagH6-RW2qSPKCG-564" value="" style="rounded=0;whiteSpace=wrap;html=1;strokeColor=#CCCCCC;dashed=1;dashPattern=1 2;fillColor=none;" vertex="1" parent="1">
          <mxGeometry x="700" y="740" width="10" height="10" as="geometry" />
        </mxCell>
        <mxCell id="k5IW1HagH6-RW2qSPKCG-565" value="" style="rounded=0;whiteSpace=wrap;html=1;strokeColor=#CCCCCC;dashed=1;dashPattern=1 2;fillColor=none;" vertex="1" parent="1">
          <mxGeometry x="710" y="740" width="10" height="10" as="geometry" />
        </mxCell>
        <mxCell id="k5IW1HagH6-RW2qSPKCG-566" value="" style="rounded=0;whiteSpace=wrap;html=1;strokeColor=#CCCCCC;dashed=1;dashPattern=1 2;fillColor=none;" vertex="1" parent="1">
          <mxGeometry x="720" y="740" width="10" height="10" as="geometry" />
        </mxCell>
        <mxCell id="k5IW1HagH6-RW2qSPKCG-567" value="" style="rounded=0;whiteSpace=wrap;html=1;strokeColor=#CCCCCC;dashed=1;dashPattern=1 2;fillColor=none;" vertex="1" parent="1">
          <mxGeometry x="730" y="740" width="10" height="10" as="geometry" />
        </mxCell>
        <mxCell id="k5IW1HagH6-RW2qSPKCG-568" value="" style="rounded=0;whiteSpace=wrap;html=1;strokeColor=#CCCCCC;dashed=1;dashPattern=1 2;fillColor=none;" vertex="1" parent="1">
          <mxGeometry x="740" y="740" width="10" height="10" as="geometry" />
        </mxCell>
        <mxCell id="k5IW1HagH6-RW2qSPKCG-569" value="" style="rounded=0;whiteSpace=wrap;html=1;strokeColor=#CCCCCC;dashed=1;dashPattern=1 2;fillColor=none;" vertex="1" parent="1">
          <mxGeometry x="750" y="740" width="10" height="10" as="geometry" />
        </mxCell>
        <mxCell id="k5IW1HagH6-RW2qSPKCG-570" value="" style="rounded=0;whiteSpace=wrap;html=1;strokeColor=#CCCCCC;dashed=1;dashPattern=1 2;fillColor=none;" vertex="1" parent="1">
          <mxGeometry x="760" y="740" width="10" height="10" as="geometry" />
        </mxCell>
        <mxCell id="k5IW1HagH6-RW2qSPKCG-571" value="" style="rounded=0;whiteSpace=wrap;html=1;strokeColor=#CCCCCC;dashed=1;dashPattern=1 2;fillColor=none;" vertex="1" parent="1">
          <mxGeometry x="770" y="740" width="10" height="10" as="geometry" />
        </mxCell>
        <mxCell id="k5IW1HagH6-RW2qSPKCG-572" value="" style="rounded=0;whiteSpace=wrap;html=1;strokeColor=#CCCCCC;dashed=1;dashPattern=1 2;fillColor=none;" vertex="1" parent="1">
          <mxGeometry x="780" y="740" width="10" height="10" as="geometry" />
        </mxCell>
        <mxCell id="k5IW1HagH6-RW2qSPKCG-573" value="" style="rounded=0;whiteSpace=wrap;html=1;strokeColor=#CCCCCC;dashed=1;dashPattern=1 2;fillColor=#000000;" vertex="1" parent="1">
          <mxGeometry x="790" y="740" width="10" height="10" as="geometry" />
        </mxCell>
        <mxCell id="k5IW1HagH6-RW2qSPKCG-574" value="" style="rounded=0;whiteSpace=wrap;html=1;strokeColor=#CCCCCC;dashed=1;dashPattern=1 2;fillColor=#33FF99;" vertex="1" parent="1">
          <mxGeometry x="800" y="740" width="10" height="10" as="geometry" />
        </mxCell>
        <mxCell id="k5IW1HagH6-RW2qSPKCG-575" value="" style="rounded=0;whiteSpace=wrap;html=1;strokeColor=#CCCCCC;dashed=1;dashPattern=1 2;fillColor=none;" vertex="1" parent="1">
          <mxGeometry x="810" y="740" width="10" height="10" as="geometry" />
        </mxCell>
        <mxCell id="k5IW1HagH6-RW2qSPKCG-576" value="" style="rounded=0;whiteSpace=wrap;html=1;strokeColor=#CCCCCC;dashed=1;dashPattern=1 2;fillColor=none;" vertex="1" parent="1">
          <mxGeometry x="820" y="740" width="10" height="10" as="geometry" />
        </mxCell>
        <mxCell id="k5IW1HagH6-RW2qSPKCG-577" value="" style="rounded=0;whiteSpace=wrap;html=1;strokeColor=#CCCCCC;dashed=1;dashPattern=1 2;fillColor=none;" vertex="1" parent="1">
          <mxGeometry x="830" y="740" width="10" height="10" as="geometry" />
        </mxCell>
        <mxCell id="k5IW1HagH6-RW2qSPKCG-578" value="" style="rounded=0;whiteSpace=wrap;html=1;strokeColor=#CCCCCC;dashed=1;dashPattern=1 2;fillColor=none;" vertex="1" parent="1">
          <mxGeometry x="600" y="750" width="10" height="10" as="geometry" />
        </mxCell>
        <mxCell id="k5IW1HagH6-RW2qSPKCG-579" value="" style="rounded=0;whiteSpace=wrap;html=1;strokeColor=#CCCCCC;dashed=1;dashPattern=1 2;fillColor=none;" vertex="1" parent="1">
          <mxGeometry x="610" y="750" width="10" height="10" as="geometry" />
        </mxCell>
        <mxCell id="k5IW1HagH6-RW2qSPKCG-580" value="" style="rounded=0;whiteSpace=wrap;html=1;strokeColor=#CCCCCC;dashed=1;dashPattern=1 2;fillColor=none;" vertex="1" parent="1">
          <mxGeometry x="620" y="750" width="10" height="10" as="geometry" />
        </mxCell>
        <mxCell id="k5IW1HagH6-RW2qSPKCG-581" value="" style="rounded=0;whiteSpace=wrap;html=1;strokeColor=#CCCCCC;dashed=1;dashPattern=1 2;fillColor=none;" vertex="1" parent="1">
          <mxGeometry x="630" y="750" width="10" height="10" as="geometry" />
        </mxCell>
        <mxCell id="k5IW1HagH6-RW2qSPKCG-582" value="" style="rounded=0;whiteSpace=wrap;html=1;strokeColor=#CCCCCC;dashed=1;dashPattern=1 2;fillColor=#33FF99;" vertex="1" parent="1">
          <mxGeometry x="640" y="750" width="10" height="10" as="geometry" />
        </mxCell>
        <mxCell id="k5IW1HagH6-RW2qSPKCG-583" value="" style="rounded=0;whiteSpace=wrap;html=1;strokeColor=#CCCCCC;dashed=1;dashPattern=1 2;fillColor=#000000;" vertex="1" parent="1">
          <mxGeometry x="650" y="750" width="10" height="10" as="geometry" />
        </mxCell>
        <mxCell id="k5IW1HagH6-RW2qSPKCG-584" value="" style="rounded=0;whiteSpace=wrap;html=1;strokeColor=#CCCCCC;dashed=1;dashPattern=1 2;fillColor=none;" vertex="1" parent="1">
          <mxGeometry x="660" y="750" width="10" height="10" as="geometry" />
        </mxCell>
        <mxCell id="k5IW1HagH6-RW2qSPKCG-585" value="" style="rounded=0;whiteSpace=wrap;html=1;strokeColor=#CCCCCC;dashed=1;dashPattern=1 2;fillColor=none;" vertex="1" parent="1">
          <mxGeometry x="670" y="750" width="10" height="10" as="geometry" />
        </mxCell>
        <mxCell id="k5IW1HagH6-RW2qSPKCG-586" value="" style="rounded=0;whiteSpace=wrap;html=1;strokeColor=#CCCCCC;dashed=1;dashPattern=1 2;fillColor=none;" vertex="1" parent="1">
          <mxGeometry x="680" y="750" width="10" height="10" as="geometry" />
        </mxCell>
        <mxCell id="k5IW1HagH6-RW2qSPKCG-587" value="" style="rounded=0;whiteSpace=wrap;html=1;strokeColor=#CCCCCC;dashed=1;dashPattern=1 2;fillColor=none;" vertex="1" parent="1">
          <mxGeometry x="690" y="750" width="10" height="10" as="geometry" />
        </mxCell>
        <mxCell id="k5IW1HagH6-RW2qSPKCG-588" value="" style="rounded=0;whiteSpace=wrap;html=1;strokeColor=#CCCCCC;dashed=1;dashPattern=1 2;fillColor=none;" vertex="1" parent="1">
          <mxGeometry x="700" y="750" width="10" height="10" as="geometry" />
        </mxCell>
        <mxCell id="k5IW1HagH6-RW2qSPKCG-589" value="" style="rounded=0;whiteSpace=wrap;html=1;strokeColor=#CCCCCC;dashed=1;dashPattern=1 2;fillColor=none;" vertex="1" parent="1">
          <mxGeometry x="710" y="750" width="10" height="10" as="geometry" />
        </mxCell>
        <mxCell id="k5IW1HagH6-RW2qSPKCG-590" value="" style="rounded=0;whiteSpace=wrap;html=1;strokeColor=#CCCCCC;dashed=1;dashPattern=1 2;fillColor=none;" vertex="1" parent="1">
          <mxGeometry x="720" y="750" width="10" height="10" as="geometry" />
        </mxCell>
        <mxCell id="k5IW1HagH6-RW2qSPKCG-591" value="" style="rounded=0;whiteSpace=wrap;html=1;strokeColor=#CCCCCC;dashed=1;dashPattern=1 2;fillColor=none;" vertex="1" parent="1">
          <mxGeometry x="730" y="750" width="10" height="10" as="geometry" />
        </mxCell>
        <mxCell id="k5IW1HagH6-RW2qSPKCG-592" value="" style="rounded=0;whiteSpace=wrap;html=1;strokeColor=#CCCCCC;dashed=1;dashPattern=1 2;fillColor=none;" vertex="1" parent="1">
          <mxGeometry x="740" y="750" width="10" height="10" as="geometry" />
        </mxCell>
        <mxCell id="k5IW1HagH6-RW2qSPKCG-593" value="" style="rounded=0;whiteSpace=wrap;html=1;strokeColor=#CCCCCC;dashed=1;dashPattern=1 2;fillColor=none;" vertex="1" parent="1">
          <mxGeometry x="750" y="750" width="10" height="10" as="geometry" />
        </mxCell>
        <mxCell id="k5IW1HagH6-RW2qSPKCG-594" value="" style="rounded=0;whiteSpace=wrap;html=1;strokeColor=#CCCCCC;dashed=1;dashPattern=1 2;fillColor=none;" vertex="1" parent="1">
          <mxGeometry x="760" y="750" width="10" height="10" as="geometry" />
        </mxCell>
        <mxCell id="k5IW1HagH6-RW2qSPKCG-595" value="" style="rounded=0;whiteSpace=wrap;html=1;strokeColor=#CCCCCC;dashed=1;dashPattern=1 2;fillColor=none;" vertex="1" parent="1">
          <mxGeometry x="770" y="750" width="10" height="10" as="geometry" />
        </mxCell>
        <mxCell id="k5IW1HagH6-RW2qSPKCG-596" value="" style="rounded=0;whiteSpace=wrap;html=1;strokeColor=#CCCCCC;dashed=1;dashPattern=1 2;fillColor=none;" vertex="1" parent="1">
          <mxGeometry x="780" y="750" width="10" height="10" as="geometry" />
        </mxCell>
        <mxCell id="k5IW1HagH6-RW2qSPKCG-597" value="" style="rounded=0;whiteSpace=wrap;html=1;strokeColor=#CCCCCC;dashed=1;dashPattern=1 2;fillColor=#000000;" vertex="1" parent="1">
          <mxGeometry x="790" y="750" width="10" height="10" as="geometry" />
        </mxCell>
        <mxCell id="k5IW1HagH6-RW2qSPKCG-598" value="" style="rounded=0;whiteSpace=wrap;html=1;strokeColor=#CCCCCC;dashed=1;dashPattern=1 2;fillColor=#33FF99;" vertex="1" parent="1">
          <mxGeometry x="800" y="750" width="10" height="10" as="geometry" />
        </mxCell>
        <mxCell id="k5IW1HagH6-RW2qSPKCG-599" value="" style="rounded=0;whiteSpace=wrap;html=1;strokeColor=#CCCCCC;dashed=1;dashPattern=1 2;fillColor=none;" vertex="1" parent="1">
          <mxGeometry x="810" y="750" width="10" height="10" as="geometry" />
        </mxCell>
        <mxCell id="k5IW1HagH6-RW2qSPKCG-600" value="" style="rounded=0;whiteSpace=wrap;html=1;strokeColor=#CCCCCC;dashed=1;dashPattern=1 2;fillColor=none;" vertex="1" parent="1">
          <mxGeometry x="820" y="750" width="10" height="10" as="geometry" />
        </mxCell>
        <mxCell id="k5IW1HagH6-RW2qSPKCG-601" value="" style="rounded=0;whiteSpace=wrap;html=1;strokeColor=#CCCCCC;dashed=1;dashPattern=1 2;fillColor=none;" vertex="1" parent="1">
          <mxGeometry x="830" y="750" width="10" height="10" as="geometry" />
        </mxCell>
        <mxCell id="k5IW1HagH6-RW2qSPKCG-603" value="Lighting" style="rounded=0;whiteSpace=wrap;html=1;" vertex="1" parent="1">
          <mxGeometry x="400" y="690" width="126" height="40" as="geometry" />
        </mxCell>
        <mxCell id="k5IW1HagH6-RW2qSPKCG-606" value="Bitmap" style="text;html=1;strokeColor=none;fillColor=none;align=center;verticalAlign=middle;whiteSpace=wrap;rounded=0;" vertex="1" parent="1">
          <mxGeometry x="585" y="590" width="60" height="30" as="geometry" />
        </mxCell>
        <mxCell id="k5IW1HagH6-RW2qSPKCG-607" value="Fragment" style="text;html=1;strokeColor=none;fillColor=none;align=center;verticalAlign=middle;whiteSpace=wrap;rounded=0;" vertex="1" parent="1">
          <mxGeometry x="595" y="760" width="60" height="30" as="geometry" />
        </mxCell>
        <mxCell id="k5IW1HagH6-RW2qSPKCG-608" value="Fragment&lt;br&gt;Process" style="rounded=0;whiteSpace=wrap;html=1;" vertex="1" parent="1">
          <mxGeometry x="280" y="640" width="106" height="60" as="geometry" />
        </mxCell>
        <mxCell id="k5IW1HagH6-RW2qSPKCG-609" value="" style="rounded=0;whiteSpace=wrap;html=1;" vertex="1" parent="1">
          <mxGeometry x="270" y="800" width="270" height="160" as="geometry" />
        </mxCell>
        <mxCell id="k5IW1HagH6-RW2qSPKCG-610" value="Pixel&lt;br&gt;Output" style="rounded=0;whiteSpace=wrap;html=1;" vertex="1" parent="1">
          <mxGeometry x="280" y="810" width="106" height="60" as="geometry" />
        </mxCell>
        <mxCell id="k5IW1HagH6-RW2qSPKCG-611" value="Buffering" style="rounded=0;whiteSpace=wrap;html=1;" vertex="1" parent="1">
          <mxGeometry x="400" y="810" width="126" height="40" as="geometry" />
        </mxCell>
        <mxCell id="k5IW1HagH6-RW2qSPKCG-613" value="Post&lt;br&gt;Process" style="rounded=0;whiteSpace=wrap;html=1;" vertex="1" parent="1">
          <mxGeometry x="157" y="760" width="106" height="60" as="geometry" />
        </mxCell>
        <mxCell id="k5IW1HagH6-RW2qSPKCG-614" value="" style="rounded=0;whiteSpace=wrap;html=1;fillColor=#FF0000;" vertex="1" parent="1">
          <mxGeometry x="880" y="500" width="10" height="10" as="geometry" />
        </mxCell>
        <mxCell id="k5IW1HagH6-RW2qSPKCG-615" value="" style="rounded=0;whiteSpace=wrap;html=1;fillColor=#FF2E2E;" vertex="1" parent="1">
          <mxGeometry x="890" y="500" width="10" height="10" as="geometry" />
        </mxCell>
        <mxCell id="k5IW1HagH6-RW2qSPKCG-618" value="" style="rounded=0;whiteSpace=wrap;html=1;fillColor=#FF5757;" vertex="1" parent="1">
          <mxGeometry x="900" y="500" width="10" height="10" as="geometry" />
        </mxCell>
        <mxCell id="k5IW1HagH6-RW2qSPKCG-619" value="" style="rounded=0;whiteSpace=wrap;html=1;fillColor=#FF8282;" vertex="1" parent="1">
          <mxGeometry x="910" y="500" width="10" height="10" as="geometry" />
        </mxCell>
        <mxCell id="k5IW1HagH6-RW2qSPKCG-620" value="" style="rounded=0;whiteSpace=wrap;html=1;fillColor=#FFB0B0;" vertex="1" parent="1">
          <mxGeometry x="920" y="500" width="10" height="10" as="geometry" />
        </mxCell>
        <mxCell id="k5IW1HagH6-RW2qSPKCG-621" value="" style="rounded=0;whiteSpace=wrap;html=1;fillColor=#FFDEDE;" vertex="1" parent="1">
          <mxGeometry x="930" y="500" width="10" height="10" as="geometry" />
        </mxCell>
        <mxCell id="k5IW1HagH6-RW2qSPKCG-622" value="" style="rounded=0;whiteSpace=wrap;html=1;fillColor=#00FF55;" vertex="1" parent="1">
          <mxGeometry x="880" y="520" width="10" height="10" as="geometry" />
        </mxCell>
        <mxCell id="k5IW1HagH6-RW2qSPKCG-629" value="" style="rounded=0;whiteSpace=wrap;html=1;fillColor=#2EFF74;" vertex="1" parent="1">
          <mxGeometry x="890" y="520" width="10" height="10" as="geometry" />
        </mxCell>
        <mxCell id="k5IW1HagH6-RW2qSPKCG-630" value="" style="rounded=0;whiteSpace=wrap;html=1;fillColor=#59FF96;" vertex="1" parent="1">
          <mxGeometry x="900" y="520" width="10" height="10" as="geometry" />
        </mxCell>
        <mxCell id="k5IW1HagH6-RW2qSPKCG-631" value="" style="rounded=0;whiteSpace=wrap;html=1;fillColor=#94FFBF;" vertex="1" parent="1">
          <mxGeometry x="910" y="520" width="10" height="10" as="geometry" />
        </mxCell>
        <mxCell id="k5IW1HagH6-RW2qSPKCG-632" value="" style="rounded=0;whiteSpace=wrap;html=1;fillColor=#B8FFD2;" vertex="1" parent="1">
          <mxGeometry x="920" y="520" width="10" height="10" as="geometry" />
        </mxCell>
        <mxCell id="k5IW1HagH6-RW2qSPKCG-633" value="" style="rounded=0;whiteSpace=wrap;html=1;fillColor=#D9FFE8;" vertex="1" parent="1">
          <mxGeometry x="930" y="520" width="10" height="10" as="geometry" />
        </mxCell>
        <mxCell id="k5IW1HagH6-RW2qSPKCG-634" value="" style="rounded=0;whiteSpace=wrap;html=1;strokeColor=#FF1100;fillColor=#FF322B;" vertex="1" parent="1">
          <mxGeometry x="685" y="390" width="40" height="20" as="geometry" />
        </mxCell>
        <mxCell id="k5IW1HagH6-RW2qSPKCG-635" value="" style="rounded=0;whiteSpace=wrap;html=1;strokeColor=#FF1100;fillColor=#19FF29;" vertex="1" parent="1">
          <mxGeometry x="725" y="390" width="40" height="20" as="geometry" />
        </mxCell>
        <mxCell id="k5IW1HagH6-RW2qSPKCG-638" value="" style="endArrow=none;html=1;rounded=0;" edge="1" parent="1">
          <mxGeometry width="50" height="50" relative="1" as="geometry">
            <mxPoint x="650" y="420" as="sourcePoint" />
            <mxPoint x="770" y="390" as="targetPoint" />
          </mxGeometry>
        </mxCell>
        <mxCell id="k5IW1HagH6-RW2qSPKCG-641" value="" style="rounded=0;whiteSpace=wrap;html=1;strokeColor=#CCCCCC;dashed=1;dashPattern=1 2;fillColor=#000000;" vertex="1" parent="1">
          <mxGeometry x="770" y="530" width="10" height="10" as="geometry" />
        </mxCell>
      </root>
    </mxGraphModel>
  </diagram>
</mxfile>
